<?xml version="1.0" encoding="UTF-8" standalone="no"?>
<!-- Created with Inkscape (http://www.inkscape.org/) -->

<svg
   xmlns:ns0="http://www.iki.fi/pav/software/textext/"
   xmlns:dc="http://purl.org/dc/elements/1.1/"
   xmlns:cc="http://creativecommons.org/ns#"
   xmlns:rdf="http://www.w3.org/1999/02/22-rdf-syntax-ns#"
   xmlns:svg="http://www.w3.org/2000/svg"
   xmlns="http://www.w3.org/2000/svg"
   xmlns:xlink="http://www.w3.org/1999/xlink"
   xmlns:sodipodi="http://sodipodi.sourceforge.net/DTD/sodipodi-0.dtd"
   xmlns:inkscape="http://www.inkscape.org/namespaces/inkscape"
   width="402.17578"
   height="115.88821"
   id="svg2"
   version="1.1"
   inkscape:version="0.48.3.1 r9886"
   sodipodi:docname="minimum-image-convention.pdf">
  <sodipodi:namedview
     id="base"
     pagecolor="#ffffff"
     bordercolor="#666666"
     borderopacity="1.0"
     inkscape:pageopacity="0.0"
     inkscape:pageshadow="2"
     inkscape:zoom="1.2239024"
     inkscape:cx="201.30377"
     inkscape:cy="5.0514275"
     inkscape:document-units="px"
     inkscape:current-layer="layer1"
     showgrid="false"
     fit-margin-top="0"
     fit-margin-left="0"
     fit-margin-right="0"
     fit-margin-bottom="0"
     inkscape:window-width="1301"
     inkscape:window-height="744"
     inkscape:window-x="65"
     inkscape:window-y="24"
     inkscape:window-maximized="1" />
  <defs
     id="defs4" />
  <metadata
     id="metadata7">
    <rdf:RDF>
      <cc:Work
         rdf:about="">
        <dc:format>image/svg+xml</dc:format>
        <dc:type
           rdf:resource="http://purl.org/dc/dcmitype/StillImage" />
        <dc:title></dc:title>
      </cc:Work>
    </rdf:RDF>
  </metadata>
  <g
     transform="translate(-174.66089,-290.79602)"
     id="layer1"
     inkscape:groupmode="layer"
     inkscape:label="Layer 1">
    <path
       transform="translate(170.25854,229.78477)"
       inkscape:connector-curvature="0"
       id="path3947"
       d="m 4.9023517,121.40653 401.1757783,0"
       style="fill:none;stroke:#000000;stroke-width:1px;stroke-linecap:butt;stroke-linejoin:miter;stroke-opacity:1" />
    <path
       transform="translate(181.63678,43.495405)"
       d="m 117.65644,308.10443 c 0,4.28687 -3.47519,7.76206 -7.76205,7.76206 -4.28687,0 -7.76206,-3.47519 -7.76206,-7.76206 0,-4.28686 3.47519,-7.76206 7.76206,-7.76206 4.28686,0 7.76205,3.4752 7.76205,7.76206 z"
       sodipodi:ry="7.7620568"
       sodipodi:rx="7.7620568"
       sodipodi:cy="308.10443"
       sodipodi:cx="109.89439"
       id="path3050"
       style="fill:#ff0000;fill-opacity:1;stroke:#000000;stroke-width:1.5;stroke-linecap:butt;stroke-miterlimit:4;stroke-opacity:1;stroke-dasharray:none;stroke-dashoffset:0"
       sodipodi:type="arc" />
    <path
       transform="translate(81.49768,43.903925)"
       d="m 117.65644,308.10443 c 0,4.28687 -3.47519,7.76206 -7.76205,7.76206 -4.28687,0 -7.76206,-3.47519 -7.76206,-7.76206 0,-4.28686 3.47519,-7.76206 7.76206,-7.76206 4.28686,0 7.76205,3.4752 7.76205,7.76206 z"
       sodipodi:ry="7.7620568"
       sodipodi:rx="7.7620568"
       sodipodi:cy="308.10443"
       sodipodi:cx="109.89439"
       id="path3050-3"
       style="fill:#ff0000;fill-opacity:1;stroke:#000000;stroke-width:1.5;stroke-linecap:butt;stroke-miterlimit:4;stroke-opacity:1;stroke-dasharray:none;stroke-dashoffset:0"
       sodipodi:type="arc" />
    <rect
       y="291.54602"
       x="175.97795"
       height="114.38821"
       width="132.36349"
       id="rect3909"
       style="opacity:0.21399177;fill:#ff0000;fill-opacity:1;stroke:#000000;stroke-width:1.5;stroke-linecap:butt;stroke-miterlimit:4;stroke-opacity:1;stroke-dasharray:none;stroke-dashoffset:0" />
    <rect
       y="291.54602"
       x="309.15851"
       height="114.38821"
       width="132.36349"
       id="rect3909-6"
       style="opacity:0.21399177;fill:#00ff00;fill-opacity:1;stroke:#000000;stroke-width:1.5;stroke-linecap:butt;stroke-miterlimit:4;stroke-opacity:1;stroke-dasharray:none;stroke-dashoffset:0" />
    <rect
       y="291.54602"
       x="442.33905"
       height="114.38821"
       width="132.36349"
       id="rect3909-6-4"
       style="opacity:0.21399177;fill:#0000ff;fill-opacity:1;stroke:#000000;stroke-width:1.5;stroke-linecap:butt;stroke-miterlimit:4;stroke-opacity:1;stroke-dasharray:none;stroke-dashoffset:0" />
    <path
       transform="translate(317.46659,43.305809)"
       d="m 117.65644,308.10443 c 0,4.28687 -3.47519,7.76206 -7.76205,7.76206 -4.28687,0 -7.76206,-3.47519 -7.76206,-7.76206 0,-4.28686 3.47519,-7.76206 7.76206,-7.76206 4.28686,0 7.76205,3.4752 7.76205,7.76206 z"
       sodipodi:ry="7.7620568"
       sodipodi:rx="7.7620568"
       sodipodi:cy="308.10443"
       sodipodi:cx="109.89439"
       id="path3050-6"
       style="fill:#00ff00;fill-opacity:1;stroke:#000000;stroke-width:1.50000000000000000;stroke-linecap:butt;stroke-miterlimit:4;stroke-opacity:1;stroke-dasharray:none;stroke-dashoffset:0"
       sodipodi:type="arc" />
    <path
       transform="translate(217.32749,43.714329)"
       d="m 117.65644,308.10443 c 0,4.28687 -3.47519,7.76206 -7.76205,7.76206 -4.28687,0 -7.76206,-3.47519 -7.76206,-7.76206 0,-4.28686 3.47519,-7.76206 7.76206,-7.76206 4.28686,0 7.76205,3.4752 7.76205,7.76206 z"
       sodipodi:ry="7.7620568"
       sodipodi:rx="7.7620568"
       sodipodi:cy="308.10443"
       sodipodi:cx="109.89439"
       id="path3050-3-6"
       style="fill:#00ff00;fill-opacity:1;stroke:#000000;stroke-width:1.50000000000000000;stroke-linecap:butt;stroke-miterlimit:4;stroke-opacity:1;stroke-dasharray:none;stroke-dashoffset:0"
       sodipodi:type="arc" />
    <path
       transform="translate(448.19597,42.854632)"
       d="m 117.65644,308.10443 c 0,4.28687 -3.47519,7.76206 -7.76205,7.76206 -4.28687,0 -7.76206,-3.47519 -7.76206,-7.76206 0,-4.28686 3.47519,-7.76206 7.76206,-7.76206 4.28686,0 7.76205,3.4752 7.76205,7.76206 z"
       sodipodi:ry="7.7620568"
       sodipodi:rx="7.7620568"
       sodipodi:cy="308.10443"
       sodipodi:cx="109.89439"
       id="path3050-9"
       style="fill:#0000ff;fill-opacity:1;stroke:#000000;stroke-width:1.50000000000000000;stroke-linecap:butt;stroke-miterlimit:4;stroke-opacity:1;stroke-dasharray:none;stroke-dashoffset:0"
       sodipodi:type="arc" />
    <path
       transform="translate(348.05687,43.263152)"
       d="m 117.65644,308.10443 c 0,4.28687 -3.47519,7.76206 -7.76205,7.76206 -4.28687,0 -7.76206,-3.47519 -7.76206,-7.76206 0,-4.28686 3.47519,-7.76206 7.76206,-7.76206 4.28686,0 7.76205,3.4752 7.76205,7.76206 z"
       sodipodi:ry="7.7620568"
       sodipodi:rx="7.7620568"
       sodipodi:cy="308.10443"
       sodipodi:cx="109.89439"
       id="path3050-3-2"
       style="fill:#0000ff;fill-opacity:1;stroke:#000000;stroke-width:1.50000000000000000;stroke-linecap:butt;stroke-miterlimit:4;stroke-opacity:1;stroke-dasharray:none;stroke-dashoffset:0"
       sodipodi:type="arc" />
    <g
       ns0:text="$k_r$"
       ns0:preamble=""
       transform="matrix(2,0,0,2,-161.02113,109.48585)"
       id="g4525">
      <defs
         id="defs4527">
        <g
           id="g4529">
          <symbol
             overflow="visible"
             id="textext-f06082f3-0">
            <path
               style="stroke:none;"
               d="M 2.859375 -6.8125 C 2.859375 -6.8125 2.859375 -6.921875 2.734375 -6.921875 C 2.5 -6.921875 1.78125 -6.84375 1.515625 -6.8125 C 1.4375 -6.8125 1.328125 -6.796875 1.328125 -6.625 C 1.328125 -6.5 1.421875 -6.5 1.5625 -6.5 C 2.046875 -6.5 2.0625 -6.4375 2.0625 -6.328125 L 2.03125 -6.125 L 0.59375 -0.390625 C 0.546875 -0.25 0.546875 -0.234375 0.546875 -0.171875 C 0.546875 0.0625 0.75 0.109375 0.84375 0.109375 C 0.96875 0.109375 1.109375 0.015625 1.171875 -0.09375 C 1.21875 -0.1875 1.671875 -2.03125 1.734375 -2.28125 C 2.078125 -2.25 2.890625 -2.09375 2.890625 -1.4375 C 2.890625 -1.359375 2.890625 -1.328125 2.859375 -1.21875 C 2.84375 -1.109375 2.828125 -0.984375 2.828125 -0.875 C 2.828125 -0.296875 3.21875 0.109375 3.734375 0.109375 C 4.03125 0.109375 4.3125 -0.046875 4.53125 -0.421875 C 4.78125 -0.859375 4.890625 -1.40625 4.890625 -1.421875 C 4.890625 -1.53125 4.796875 -1.53125 4.765625 -1.53125 C 4.671875 -1.53125 4.65625 -1.484375 4.625 -1.34375 C 4.421875 -0.625 4.203125 -0.109375 3.765625 -0.109375 C 3.5625 -0.109375 3.4375 -0.21875 3.4375 -0.578125 C 3.4375 -0.75 3.484375 -0.984375 3.515625 -1.140625 C 3.5625 -1.3125 3.5625 -1.34375 3.5625 -1.453125 C 3.5625 -2.09375 2.9375 -2.375 2.078125 -2.5 C 2.390625 -2.671875 2.71875 -2.984375 2.9375 -3.234375 C 3.421875 -3.765625 3.875 -4.1875 4.359375 -4.1875 C 4.421875 -4.1875 4.4375 -4.1875 4.453125 -4.171875 C 4.578125 -4.15625 4.578125 -4.15625 4.671875 -4.09375 C 4.6875 -4.09375 4.6875 -4.078125 4.703125 -4.0625 C 4.234375 -4.03125 4.140625 -3.640625 4.140625 -3.515625 C 4.140625 -3.359375 4.25 -3.171875 4.515625 -3.171875 C 4.78125 -3.171875 5.0625 -3.390625 5.0625 -3.78125 C 5.0625 -4.078125 4.828125 -4.40625 4.390625 -4.40625 C 4.109375 -4.40625 3.65625 -4.328125 2.9375 -3.53125 C 2.59375 -3.15625 2.203125 -2.75 1.828125 -2.609375 Z M 2.859375 -6.8125 "
               id="path4532" />
          </symbol>
          <symbol
             overflow="visible"
             id="textext-f06082f3-1">
            <path
               style="stroke:none;"
               d="M 1.640625 -1.40625 C 1.640625 -1.453125 1.8125 -2.078125 1.8125 -2.109375 C 1.828125 -2.171875 2.03125 -2.515625 2.265625 -2.6875 C 2.328125 -2.734375 2.515625 -2.875 2.828125 -2.875 C 2.890625 -2.875 3.0625 -2.875 3.203125 -2.78125 C 2.984375 -2.71875 2.90625 -2.515625 2.90625 -2.390625 C 2.90625 -2.25 3.015625 -2.140625 3.171875 -2.140625 C 3.34375 -2.140625 3.5625 -2.265625 3.5625 -2.5625 C 3.5625 -2.921875 3.1875 -3.078125 2.828125 -3.078125 C 2.46875 -3.078125 2.15625 -2.921875 1.84375 -2.578125 C 1.71875 -3 1.296875 -3.078125 1.125 -3.078125 C 0.875 -3.078125 0.703125 -2.90625 0.578125 -2.71875 C 0.421875 -2.453125 0.328125 -2.046875 0.328125 -2 C 0.328125 -1.921875 0.421875 -1.921875 0.453125 -1.921875 C 0.546875 -1.921875 0.546875 -1.9375 0.59375 -2.125 C 0.703125 -2.546875 0.84375 -2.875 1.109375 -2.875 C 1.296875 -2.875 1.34375 -2.71875 1.34375 -2.53125 C 1.34375 -2.40625 1.28125 -2.140625 1.21875 -1.953125 C 1.171875 -1.765625 1.109375 -1.484375 1.078125 -1.328125 L 0.84375 -0.4375 C 0.828125 -0.34375 0.78125 -0.171875 0.78125 -0.15625 C 0.78125 0 0.90625 0.0625 1.015625 0.0625 C 1.125 0.0625 1.265625 0 1.3125 -0.125 C 1.328125 -0.171875 1.40625 -0.484375 1.453125 -0.65625 Z M 1.640625 -1.40625 "
               id="path4535" />
          </symbol>
        </g>
      </defs>
      <g
         id="textext-f06082f3-2">
        <g
           style="fill:rgb(0%,0%,0%);fill-opacity:1;"
           id="g4538">
          <use
             xlink:href="#textext-f06082f3-0"
             x="223.432"
             y="134.765"
             id="use4540" />
        </g>
        <g
           style="fill:rgb(0%,0%,0%);fill-opacity:1;"
           id="g4542">
          <use
             xlink:href="#textext-f06082f3-1"
             x="228.619"
             y="136.259"
             id="use4544" />
        </g>
      </g>
    </g>
    <g
       id="g4674"
       transform="matrix(2,0,0,2,-260.7517,110.30291)"
       ns0:preamble=""
       ns0:text="$i_r$">
      <defs
         id="defs4676">
        <g
           id="g4678">
          <symbol
             id="textext-29c1aace-0"
             overflow="visible">
            <path
               id="path4681"
               d="M 2.828125 -6.234375 C 2.828125 -6.4375 2.6875 -6.59375 2.46875 -6.59375 C 2.1875 -6.59375 1.921875 -6.328125 1.921875 -6.0625 C 1.921875 -5.875 2.0625 -5.703125 2.296875 -5.703125 C 2.53125 -5.703125 2.828125 -5.9375 2.828125 -6.234375 Z M 2.078125 -2.484375 C 2.1875 -2.765625 2.1875 -2.796875 2.296875 -3.0625 C 2.375 -3.265625 2.421875 -3.40625 2.421875 -3.59375 C 2.421875 -4.03125 2.109375 -4.40625 1.609375 -4.40625 C 0.671875 -4.40625 0.296875 -2.953125 0.296875 -2.875 C 0.296875 -2.765625 0.390625 -2.765625 0.40625 -2.765625 C 0.515625 -2.765625 0.515625 -2.796875 0.5625 -2.953125 C 0.84375 -3.890625 1.234375 -4.1875 1.578125 -4.1875 C 1.65625 -4.1875 1.828125 -4.1875 1.828125 -3.875 C 1.828125 -3.65625 1.75 -3.453125 1.71875 -3.34375 C 1.640625 -3.09375 1.1875 -1.9375 1.03125 -1.5 C 0.921875 -1.25 0.796875 -0.921875 0.796875 -0.703125 C 0.796875 -0.234375 1.140625 0.109375 1.609375 0.109375 C 2.546875 0.109375 2.921875 -1.328125 2.921875 -1.421875 C 2.921875 -1.53125 2.828125 -1.53125 2.796875 -1.53125 C 2.703125 -1.53125 2.703125 -1.5 2.65625 -1.34375 C 2.46875 -0.71875 2.140625 -0.109375 1.640625 -0.109375 C 1.46875 -0.109375 1.390625 -0.203125 1.390625 -0.4375 C 1.390625 -0.6875 1.453125 -0.828125 1.6875 -1.4375 Z M 2.078125 -2.484375 "
               style="stroke:none;" />
          </symbol>
          <symbol
             id="textext-29c1aace-1"
             overflow="visible">
            <path
               id="path4684"
               d="M 1.640625 -1.40625 C 1.640625 -1.453125 1.8125 -2.078125 1.8125 -2.109375 C 1.828125 -2.171875 2.03125 -2.515625 2.265625 -2.6875 C 2.328125 -2.734375 2.515625 -2.875 2.828125 -2.875 C 2.890625 -2.875 3.0625 -2.875 3.203125 -2.78125 C 2.984375 -2.71875 2.90625 -2.515625 2.90625 -2.390625 C 2.90625 -2.25 3.015625 -2.140625 3.171875 -2.140625 C 3.34375 -2.140625 3.5625 -2.265625 3.5625 -2.5625 C 3.5625 -2.921875 3.1875 -3.078125 2.828125 -3.078125 C 2.46875 -3.078125 2.15625 -2.921875 1.84375 -2.578125 C 1.71875 -3 1.296875 -3.078125 1.125 -3.078125 C 0.875 -3.078125 0.703125 -2.90625 0.578125 -2.71875 C 0.421875 -2.453125 0.328125 -2.046875 0.328125 -2 C 0.328125 -1.921875 0.421875 -1.921875 0.453125 -1.921875 C 0.546875 -1.921875 0.546875 -1.9375 0.59375 -2.125 C 0.703125 -2.546875 0.84375 -2.875 1.109375 -2.875 C 1.296875 -2.875 1.34375 -2.71875 1.34375 -2.53125 C 1.34375 -2.40625 1.28125 -2.140625 1.21875 -1.953125 C 1.171875 -1.765625 1.109375 -1.484375 1.078125 -1.328125 L 0.84375 -0.4375 C 0.828125 -0.34375 0.78125 -0.171875 0.78125 -0.15625 C 0.78125 0 0.90625 0.0625 1.015625 0.0625 C 1.125 0.0625 1.265625 0 1.3125 -0.125 C 1.328125 -0.171875 1.40625 -0.484375 1.453125 -0.65625 Z M 1.640625 -1.40625 "
               style="stroke:none;" />
          </symbol>
        </g>
      </defs>
      <g
         id="textext-29c1aace-2">
        <g
           id="g4687"
           style="fill:rgb(0%,0%,0%);fill-opacity:1;">
          <use
             id="use4689"
             y="134.765"
             x="223.432"
             xlink:href="#textext-29c1aace-0" />
        </g>
        <g
           id="g4691"
           style="fill:rgb(0%,0%,0%);fill-opacity:1;">
          <use
             id="use4693"
             y="136.259"
             x="226.864"
             xlink:href="#textext-29c1aace-1" />
        </g>
      </g>
    </g>
    <g
       ns0:text="$i_g$"
       ns0:preamble=""
       transform="matrix(2,0,0,2,-124.92189,110.11331)"
       id="g4827">
      <defs
         id="defs4829">
        <g
           id="g4831">
          <symbol
             overflow="visible"
             id="textext-38a5bb1f-0">
            <path
               style="stroke:none;"
               d="M 2.828125 -6.234375 C 2.828125 -6.4375 2.6875 -6.59375 2.46875 -6.59375 C 2.1875 -6.59375 1.921875 -6.328125 1.921875 -6.0625 C 1.921875 -5.875 2.0625 -5.703125 2.296875 -5.703125 C 2.53125 -5.703125 2.828125 -5.9375 2.828125 -6.234375 Z M 2.078125 -2.484375 C 2.1875 -2.765625 2.1875 -2.796875 2.296875 -3.0625 C 2.375 -3.265625 2.421875 -3.40625 2.421875 -3.59375 C 2.421875 -4.03125 2.109375 -4.40625 1.609375 -4.40625 C 0.671875 -4.40625 0.296875 -2.953125 0.296875 -2.875 C 0.296875 -2.765625 0.390625 -2.765625 0.40625 -2.765625 C 0.515625 -2.765625 0.515625 -2.796875 0.5625 -2.953125 C 0.84375 -3.890625 1.234375 -4.1875 1.578125 -4.1875 C 1.65625 -4.1875 1.828125 -4.1875 1.828125 -3.875 C 1.828125 -3.65625 1.75 -3.453125 1.71875 -3.34375 C 1.640625 -3.09375 1.1875 -1.9375 1.03125 -1.5 C 0.921875 -1.25 0.796875 -0.921875 0.796875 -0.703125 C 0.796875 -0.234375 1.140625 0.109375 1.609375 0.109375 C 2.546875 0.109375 2.921875 -1.328125 2.921875 -1.421875 C 2.921875 -1.53125 2.828125 -1.53125 2.796875 -1.53125 C 2.703125 -1.53125 2.703125 -1.5 2.65625 -1.34375 C 2.46875 -0.71875 2.140625 -0.109375 1.640625 -0.109375 C 1.46875 -0.109375 1.390625 -0.203125 1.390625 -0.4375 C 1.390625 -0.6875 1.453125 -0.828125 1.6875 -1.4375 Z M 2.078125 -2.484375 "
               id="path4834" />
          </symbol>
          <symbol
             overflow="visible"
             id="textext-38a5bb1f-1">
            <path
               style="stroke:none;"
               d="M 3.703125 -2.578125 C 3.734375 -2.671875 3.734375 -2.703125 3.734375 -2.71875 C 3.734375 -2.875 3.609375 -2.9375 3.5 -2.9375 C 3.34375 -2.9375 3.203125 -2.8125 3.171875 -2.671875 C 3.0625 -2.859375 2.828125 -3.078125 2.453125 -3.078125 C 1.59375 -3.078125 0.671875 -2.140625 0.671875 -1.140625 C 0.671875 -0.421875 1.15625 0 1.734375 0 C 2.0625 0 2.359375 -0.15625 2.609375 -0.375 L 2.453125 0.25 C 2.375 0.546875 2.328125 0.734375 2.0625 0.96875 C 1.75 1.21875 1.453125 1.21875 1.28125 1.21875 C 0.96875 1.21875 0.875 1.203125 0.75 1.171875 C 0.921875 1.09375 0.96875 0.921875 0.96875 0.828125 C 0.96875 0.65625 0.84375 0.578125 0.703125 0.578125 C 0.5 0.578125 0.296875 0.734375 0.296875 1 C 0.296875 1.421875 0.90625 1.421875 1.296875 1.421875 C 2.390625 1.421875 2.84375 0.859375 2.953125 0.46875 Z M 2.75 -0.921875 C 2.71875 -0.828125 2.71875 -0.8125 2.59375 -0.671875 C 2.359375 -0.375 2.015625 -0.1875 1.75 -0.1875 C 1.40625 -0.1875 1.234375 -0.5 1.234375 -0.859375 C 1.234375 -1.15625 1.421875 -1.9375 1.609375 -2.25 C 1.890625 -2.734375 2.21875 -2.875 2.453125 -2.875 C 2.953125 -2.875 3.078125 -2.359375 3.078125 -2.28125 C 3.078125 -2.265625 3.078125 -2.265625 3.0625 -2.1875 Z M 2.75 -0.921875 "
               id="path4837" />
          </symbol>
        </g>
      </defs>
      <g
         id="textext-38a5bb1f-2">
        <g
           style="fill:rgb(0%,0%,0%);fill-opacity:1;"
           id="g4840">
          <use
             xlink:href="#textext-38a5bb1f-0"
             x="223.432"
             y="134.765"
             id="use4842" />
        </g>
        <g
           style="fill:rgb(0%,0%,0%);fill-opacity:1;"
           id="g4844">
          <use
             xlink:href="#textext-38a5bb1f-1"
             x="226.864"
             y="136.259"
             id="use4846" />
        </g>
      </g>
    </g>
    <g
       id="g4988"
       transform="matrix(2,0,0,2,-25.19132,109.29625)"
       ns0:preamble=""
       ns0:text="$k_g$">
      <defs
         id="defs4990">
        <g
           id="g4992">
          <symbol
             id="textext-6d5ada7c-0"
             overflow="visible">
            <path
               id="path4995"
               d="M 2.859375 -6.8125 C 2.859375 -6.8125 2.859375 -6.921875 2.734375 -6.921875 C 2.5 -6.921875 1.78125 -6.84375 1.515625 -6.8125 C 1.4375 -6.8125 1.328125 -6.796875 1.328125 -6.625 C 1.328125 -6.5 1.421875 -6.5 1.5625 -6.5 C 2.046875 -6.5 2.0625 -6.4375 2.0625 -6.328125 L 2.03125 -6.125 L 0.59375 -0.390625 C 0.546875 -0.25 0.546875 -0.234375 0.546875 -0.171875 C 0.546875 0.0625 0.75 0.109375 0.84375 0.109375 C 0.96875 0.109375 1.109375 0.015625 1.171875 -0.09375 C 1.21875 -0.1875 1.671875 -2.03125 1.734375 -2.28125 C 2.078125 -2.25 2.890625 -2.09375 2.890625 -1.4375 C 2.890625 -1.359375 2.890625 -1.328125 2.859375 -1.21875 C 2.84375 -1.109375 2.828125 -0.984375 2.828125 -0.875 C 2.828125 -0.296875 3.21875 0.109375 3.734375 0.109375 C 4.03125 0.109375 4.3125 -0.046875 4.53125 -0.421875 C 4.78125 -0.859375 4.890625 -1.40625 4.890625 -1.421875 C 4.890625 -1.53125 4.796875 -1.53125 4.765625 -1.53125 C 4.671875 -1.53125 4.65625 -1.484375 4.625 -1.34375 C 4.421875 -0.625 4.203125 -0.109375 3.765625 -0.109375 C 3.5625 -0.109375 3.4375 -0.21875 3.4375 -0.578125 C 3.4375 -0.75 3.484375 -0.984375 3.515625 -1.140625 C 3.5625 -1.3125 3.5625 -1.34375 3.5625 -1.453125 C 3.5625 -2.09375 2.9375 -2.375 2.078125 -2.5 C 2.390625 -2.671875 2.71875 -2.984375 2.9375 -3.234375 C 3.421875 -3.765625 3.875 -4.1875 4.359375 -4.1875 C 4.421875 -4.1875 4.4375 -4.1875 4.453125 -4.171875 C 4.578125 -4.15625 4.578125 -4.15625 4.671875 -4.09375 C 4.6875 -4.09375 4.6875 -4.078125 4.703125 -4.0625 C 4.234375 -4.03125 4.140625 -3.640625 4.140625 -3.515625 C 4.140625 -3.359375 4.25 -3.171875 4.515625 -3.171875 C 4.78125 -3.171875 5.0625 -3.390625 5.0625 -3.78125 C 5.0625 -4.078125 4.828125 -4.40625 4.390625 -4.40625 C 4.109375 -4.40625 3.65625 -4.328125 2.9375 -3.53125 C 2.59375 -3.15625 2.203125 -2.75 1.828125 -2.609375 Z M 2.859375 -6.8125 "
               style="stroke:none;" />
          </symbol>
          <symbol
             id="textext-6d5ada7c-1"
             overflow="visible">
            <path
               id="path4998"
               d="M 3.703125 -2.578125 C 3.734375 -2.671875 3.734375 -2.703125 3.734375 -2.71875 C 3.734375 -2.875 3.609375 -2.9375 3.5 -2.9375 C 3.34375 -2.9375 3.203125 -2.8125 3.171875 -2.671875 C 3.0625 -2.859375 2.828125 -3.078125 2.453125 -3.078125 C 1.59375 -3.078125 0.671875 -2.140625 0.671875 -1.140625 C 0.671875 -0.421875 1.15625 0 1.734375 0 C 2.0625 0 2.359375 -0.15625 2.609375 -0.375 L 2.453125 0.25 C 2.375 0.546875 2.328125 0.734375 2.0625 0.96875 C 1.75 1.21875 1.453125 1.21875 1.28125 1.21875 C 0.96875 1.21875 0.875 1.203125 0.75 1.171875 C 0.921875 1.09375 0.96875 0.921875 0.96875 0.828125 C 0.96875 0.65625 0.84375 0.578125 0.703125 0.578125 C 0.5 0.578125 0.296875 0.734375 0.296875 1 C 0.296875 1.421875 0.90625 1.421875 1.296875 1.421875 C 2.390625 1.421875 2.84375 0.859375 2.953125 0.46875 Z M 2.75 -0.921875 C 2.71875 -0.828125 2.71875 -0.8125 2.59375 -0.671875 C 2.359375 -0.375 2.015625 -0.1875 1.75 -0.1875 C 1.40625 -0.1875 1.234375 -0.5 1.234375 -0.859375 C 1.234375 -1.15625 1.421875 -1.9375 1.609375 -2.25 C 1.890625 -2.734375 2.21875 -2.875 2.453125 -2.875 C 2.953125 -2.875 3.078125 -2.359375 3.078125 -2.28125 C 3.078125 -2.265625 3.078125 -2.265625 3.0625 -2.1875 Z M 2.75 -0.921875 "
               style="stroke:none;" />
          </symbol>
        </g>
      </defs>
      <g
         id="textext-6d5ada7c-2">
        <g
           id="g5001"
           style="fill:rgb(0%,0%,0%);fill-opacity:1;">
          <use
             id="use5003"
             y="134.765"
             x="223.432"
             xlink:href="#textext-6d5ada7c-0" />
        </g>
        <g
           id="g5005"
           style="fill:rgb(0%,0%,0%);fill-opacity:1;">
          <use
             id="use5007"
             y="136.259"
             x="228.619"
             xlink:href="#textext-6d5ada7c-1" />
        </g>
      </g>
    </g>
    <g
       ns0:text="$i_b$"
       ns0:preamble=""
       transform="matrix(2,0,0,2,5.8074884,109.66213)"
       id="g5157">
      <defs
         id="defs5159">
        <g
           id="g5161">
          <symbol
             overflow="visible"
             id="textext-eef009c8-0">
            <path
               style="stroke:none;"
               d="M 2.828125 -6.234375 C 2.828125 -6.4375 2.6875 -6.59375 2.46875 -6.59375 C 2.1875 -6.59375 1.921875 -6.328125 1.921875 -6.0625 C 1.921875 -5.875 2.0625 -5.703125 2.296875 -5.703125 C 2.53125 -5.703125 2.828125 -5.9375 2.828125 -6.234375 Z M 2.078125 -2.484375 C 2.1875 -2.765625 2.1875 -2.796875 2.296875 -3.0625 C 2.375 -3.265625 2.421875 -3.40625 2.421875 -3.59375 C 2.421875 -4.03125 2.109375 -4.40625 1.609375 -4.40625 C 0.671875 -4.40625 0.296875 -2.953125 0.296875 -2.875 C 0.296875 -2.765625 0.390625 -2.765625 0.40625 -2.765625 C 0.515625 -2.765625 0.515625 -2.796875 0.5625 -2.953125 C 0.84375 -3.890625 1.234375 -4.1875 1.578125 -4.1875 C 1.65625 -4.1875 1.828125 -4.1875 1.828125 -3.875 C 1.828125 -3.65625 1.75 -3.453125 1.71875 -3.34375 C 1.640625 -3.09375 1.1875 -1.9375 1.03125 -1.5 C 0.921875 -1.25 0.796875 -0.921875 0.796875 -0.703125 C 0.796875 -0.234375 1.140625 0.109375 1.609375 0.109375 C 2.546875 0.109375 2.921875 -1.328125 2.921875 -1.421875 C 2.921875 -1.53125 2.828125 -1.53125 2.796875 -1.53125 C 2.703125 -1.53125 2.703125 -1.5 2.65625 -1.34375 C 2.46875 -0.71875 2.140625 -0.109375 1.640625 -0.109375 C 1.46875 -0.109375 1.390625 -0.203125 1.390625 -0.4375 C 1.390625 -0.6875 1.453125 -0.828125 1.6875 -1.4375 Z M 2.078125 -2.484375 "
               id="path5164" />
          </symbol>
          <symbol
             overflow="visible"
             id="textext-eef009c8-1">
            <path
               style="stroke:none;"
               d="M 1.84375 -4.625 C 1.84375 -4.640625 1.875 -4.734375 1.875 -4.734375 C 1.875 -4.78125 1.84375 -4.84375 1.75 -4.84375 C 1.609375 -4.84375 1.03125 -4.78125 0.859375 -4.765625 C 0.8125 -4.765625 0.703125 -4.75 0.703125 -4.609375 C 0.703125 -4.515625 0.8125 -4.515625 0.890625 -4.515625 C 1.21875 -4.515625 1.21875 -4.453125 1.21875 -4.40625 C 1.21875 -4.359375 1.15625 -4.078125 1.109375 -3.921875 L 0.953125 -3.28125 C 0.890625 -3.03125 0.515625 -1.515625 0.5 -1.421875 C 0.453125 -1.25 0.453125 -1.15625 0.453125 -1.078125 C 0.453125 -0.375 0.90625 0.0625 1.484375 0.0625 C 2.359375 0.0625 3.28125 -0.875 3.28125 -1.90625 C 3.28125 -2.71875 2.71875 -3.078125 2.234375 -3.078125 C 1.875 -3.078125 1.5625 -2.875 1.359375 -2.6875 Z M 1.484375 -0.125 C 1.15625 -0.125 0.953125 -0.421875 0.953125 -0.84375 C 0.953125 -1.09375 1.015625 -1.328125 1.21875 -2.125 C 1.25 -2.25 1.25 -2.265625 1.390625 -2.421875 C 1.65625 -2.71875 1.96875 -2.875 2.21875 -2.875 C 2.484375 -2.875 2.71875 -2.671875 2.71875 -2.203125 C 2.71875 -1.921875 2.578125 -1.203125 2.359375 -0.796875 C 2.1875 -0.453125 1.84375 -0.125 1.484375 -0.125 Z M 1.484375 -0.125 "
               id="path5167" />
          </symbol>
        </g>
      </defs>
      <g
         id="textext-eef009c8-2">
        <g
           style="fill:rgb(0%,0%,0%);fill-opacity:1;"
           id="g5170">
          <use
             xlink:href="#textext-eef009c8-0"
             x="223.432"
             y="134.765"
             id="use5172" />
        </g>
        <g
           style="fill:rgb(0%,0%,0%);fill-opacity:1;"
           id="g5174">
          <use
             xlink:href="#textext-eef009c8-1"
             x="226.864"
             y="136.259"
             id="use5176" />
        </g>
      </g>
    </g>
    <g
       id="g5334"
       transform="matrix(2,0,0,2,105.53806,108.84507)"
       ns0:preamble=""
       ns0:text="$k_b$">
      <defs
         id="defs5336">
        <g
           id="g5338">
          <symbol
             id="textext-7fc68163-0"
             overflow="visible">
            <path
               id="path5341"
               d="M 2.859375 -6.8125 C 2.859375 -6.8125 2.859375 -6.921875 2.734375 -6.921875 C 2.5 -6.921875 1.78125 -6.84375 1.515625 -6.8125 C 1.4375 -6.8125 1.328125 -6.796875 1.328125 -6.625 C 1.328125 -6.5 1.421875 -6.5 1.5625 -6.5 C 2.046875 -6.5 2.0625 -6.4375 2.0625 -6.328125 L 2.03125 -6.125 L 0.59375 -0.390625 C 0.546875 -0.25 0.546875 -0.234375 0.546875 -0.171875 C 0.546875 0.0625 0.75 0.109375 0.84375 0.109375 C 0.96875 0.109375 1.109375 0.015625 1.171875 -0.09375 C 1.21875 -0.1875 1.671875 -2.03125 1.734375 -2.28125 C 2.078125 -2.25 2.890625 -2.09375 2.890625 -1.4375 C 2.890625 -1.359375 2.890625 -1.328125 2.859375 -1.21875 C 2.84375 -1.109375 2.828125 -0.984375 2.828125 -0.875 C 2.828125 -0.296875 3.21875 0.109375 3.734375 0.109375 C 4.03125 0.109375 4.3125 -0.046875 4.53125 -0.421875 C 4.78125 -0.859375 4.890625 -1.40625 4.890625 -1.421875 C 4.890625 -1.53125 4.796875 -1.53125 4.765625 -1.53125 C 4.671875 -1.53125 4.65625 -1.484375 4.625 -1.34375 C 4.421875 -0.625 4.203125 -0.109375 3.765625 -0.109375 C 3.5625 -0.109375 3.4375 -0.21875 3.4375 -0.578125 C 3.4375 -0.75 3.484375 -0.984375 3.515625 -1.140625 C 3.5625 -1.3125 3.5625 -1.34375 3.5625 -1.453125 C 3.5625 -2.09375 2.9375 -2.375 2.078125 -2.5 C 2.390625 -2.671875 2.71875 -2.984375 2.9375 -3.234375 C 3.421875 -3.765625 3.875 -4.1875 4.359375 -4.1875 C 4.421875 -4.1875 4.4375 -4.1875 4.453125 -4.171875 C 4.578125 -4.15625 4.578125 -4.15625 4.671875 -4.09375 C 4.6875 -4.09375 4.6875 -4.078125 4.703125 -4.0625 C 4.234375 -4.03125 4.140625 -3.640625 4.140625 -3.515625 C 4.140625 -3.359375 4.25 -3.171875 4.515625 -3.171875 C 4.78125 -3.171875 5.0625 -3.390625 5.0625 -3.78125 C 5.0625 -4.078125 4.828125 -4.40625 4.390625 -4.40625 C 4.109375 -4.40625 3.65625 -4.328125 2.9375 -3.53125 C 2.59375 -3.15625 2.203125 -2.75 1.828125 -2.609375 Z M 2.859375 -6.8125 "
               style="stroke:none;" />
          </symbol>
          <symbol
             id="textext-7fc68163-1"
             overflow="visible">
            <path
               id="path5344"
               d="M 1.84375 -4.625 C 1.84375 -4.640625 1.875 -4.734375 1.875 -4.734375 C 1.875 -4.78125 1.84375 -4.84375 1.75 -4.84375 C 1.609375 -4.84375 1.03125 -4.78125 0.859375 -4.765625 C 0.8125 -4.765625 0.703125 -4.75 0.703125 -4.609375 C 0.703125 -4.515625 0.8125 -4.515625 0.890625 -4.515625 C 1.21875 -4.515625 1.21875 -4.453125 1.21875 -4.40625 C 1.21875 -4.359375 1.15625 -4.078125 1.109375 -3.921875 L 0.953125 -3.28125 C 0.890625 -3.03125 0.515625 -1.515625 0.5 -1.421875 C 0.453125 -1.25 0.453125 -1.15625 0.453125 -1.078125 C 0.453125 -0.375 0.90625 0.0625 1.484375 0.0625 C 2.359375 0.0625 3.28125 -0.875 3.28125 -1.90625 C 3.28125 -2.71875 2.71875 -3.078125 2.234375 -3.078125 C 1.875 -3.078125 1.5625 -2.875 1.359375 -2.6875 Z M 1.484375 -0.125 C 1.15625 -0.125 0.953125 -0.421875 0.953125 -0.84375 C 0.953125 -1.09375 1.015625 -1.328125 1.21875 -2.125 C 1.25 -2.25 1.25 -2.265625 1.390625 -2.421875 C 1.65625 -2.71875 1.96875 -2.875 2.21875 -2.875 C 2.484375 -2.875 2.71875 -2.671875 2.71875 -2.203125 C 2.71875 -1.921875 2.578125 -1.203125 2.359375 -0.796875 C 2.1875 -0.453125 1.84375 -0.125 1.484375 -0.125 Z M 1.484375 -0.125 "
               style="stroke:none;" />
          </symbol>
        </g>
      </defs>
      <g
         id="textext-7fc68163-2">
        <g
           id="g5347"
           style="fill:rgb(0%,0%,0%);fill-opacity:1;">
          <use
             id="use5349"
             y="134.765"
             x="223.432"
             xlink:href="#textext-7fc68163-0" />
        </g>
        <g
           id="g5351"
           style="fill:rgb(0%,0%,0%);fill-opacity:1;">
          <use
             id="use5353"
             y="136.259"
             x="228.619"
             xlink:href="#textext-7fc68163-1" />
        </g>
      </g>
    </g>
  </g>
</svg>
