<?xml version="1.0" encoding="UTF-8" standalone="no"?>
<svg
   xmlns:dc="http://purl.org/dc/elements/1.1/"
   xmlns:cc="http://creativecommons.org/ns#"
   xmlns:rdf="http://www.w3.org/1999/02/22-rdf-syntax-ns#"
   xmlns:svg="http://www.w3.org/2000/svg"
   xmlns="http://www.w3.org/2000/svg"
   xmlns:xlink="http://www.w3.org/1999/xlink"
   xmlns:sodipodi="http://sodipodi.sourceforge.net/DTD/sodipodi-0.dtd"
   xmlns:inkscape="http://www.inkscape.org/namespaces/inkscape"
   width="455.43686"
   height="369.47955"
   viewBox="0 0 455.43686 369.47955"
   id="svg2"
   version="1.1"
   inkscape:version="0.48.3.1 r9886"
   sodipodi:docname="Temperature.pdf">
  <sodipodi:namedview
     pagecolor="#ffffff"
     bordercolor="#666666"
     borderopacity="1"
     objecttolerance="10"
     gridtolerance="10"
     guidetolerance="10"
     inkscape:pageopacity="0"
     inkscape:pageshadow="2"
     inkscape:window-width="1855"
     inkscape:window-height="1056"
     id="namedview156"
     showgrid="false"
     inkscape:zoom="1.7455114"
     inkscape:cx="196.70798"
     inkscape:cy="196.99141"
     inkscape:window-x="65"
     inkscape:window-y="24"
     inkscape:window-maximized="1"
     inkscape:current-layer="svg2"
     fit-margin-top="0"
     fit-margin-left="0"
     fit-margin-right="0"
     fit-margin-bottom="0" />
  <metadata
     id="metadata158">
    <rdf:RDF>
      <cc:Work
         rdf:about="">
        <dc:format>image/svg+xml</dc:format>
        <dc:type
           rdf:resource="http://purl.org/dc/dcmitype/StillImage" />
        <dc:title></dc:title>
      </cc:Work>
    </rdf:RDF>
  </metadata>
  <desc
     id="desc4">Produced by GNUPLOT 4.4 patchlevel 3 </desc>
  <defs
     id="defs6">
    <circle
       id="gpDot"
       r="0.5"
       cx="0"
       cy="0"
       sodipodi:cx="0"
       sodipodi:cy="0"
       sodipodi:rx="0.5"
       sodipodi:ry="0.5"
       style="stroke-width:0.5" />
    <path
       id="gpPt0"
       d="M -1,0 H 1 M 0,-1 v 2"
       inkscape:connector-curvature="0"
       style="stroke:currentColor;stroke-width:0.26699999" />
    <path
       id="gpPt1"
       d="M -1,-1 1,1 M 1,-1 -1,1"
       inkscape:connector-curvature="0"
       style="stroke:currentColor;stroke-width:0.26699999" />
    <path
       id="gpPt2"
       d="M -1,0 1,0 M 0,-1 0,1 m -1,-2 2,2 m -2,0 2,-2"
       inkscape:connector-curvature="0"
       style="stroke:currentColor;stroke-width:0.26699999" />
    <rect
       id="gpPt3"
       x="-1"
       y="-1"
       width="2"
       height="2"
       style="stroke:currentColor;stroke-width:0.26699999" />
    <rect
       id="gpPt4"
       x="-1"
       y="-1"
       width="2"
       height="2"
       style="fill:currentColor;stroke:currentColor;stroke-width:0.26699999" />
    <circle
       id="gpPt5"
       cx="0"
       cy="0"
       r="1"
       sodipodi:cx="0"
       sodipodi:cy="0"
       sodipodi:rx="1"
       sodipodi:ry="1"
       style="stroke:currentColor;stroke-width:0.26699999" />
    <use
       xlink:href="#gpPt5"
       id="gpPt6"
       style="fill:currentColor;stroke:none"
       x="0"
       y="0"
       width="450"
       height="362" />
    <path
       id="gpPt7"
       d="m 0,-1.33 -1.33,2 2.66,0 z"
       inkscape:connector-curvature="0"
       style="stroke:currentColor;stroke-width:0.26699999" />
    <use
       xlink:href="#gpPt7"
       id="gpPt8"
       style="fill:currentColor;stroke:none"
       x="0"
       y="0"
       width="450"
       height="362" />
    <use
       xlink:href="#gpPt7"
       id="gpPt9"
       transform="scale(-1,-1)"
       style="stroke:currentColor"
       x="0"
       y="0"
       width="450"
       height="362" />
    <use
       xlink:href="#gpPt9"
       id="gpPt10"
       style="fill:currentColor;stroke:none"
       x="0"
       y="0"
       width="450"
       height="362" />
    <use
       xlink:href="#gpPt3"
       id="gpPt11"
       transform="matrix(0.70710678,0.70710678,-0.70710678,0.70710678,0,0)"
       style="stroke:currentColor"
       x="0"
       y="0"
       width="450"
       height="362" />
    <use
       xlink:href="#gpPt11"
       id="gpPt12"
       style="fill:currentColor;stroke:none"
       x="0"
       y="0"
       width="450"
       height="362" />
  </defs>
  <g
     style="color:#ffffff;fill:none;stroke:currentColor;stroke-width:1;stroke-linecap:butt;stroke-linejoin:miter"
     id="g22"
     transform="translate(19.114048,-8.5118652)" />
  <path
     style="color:#000000;fill:none;stroke:currentColor;stroke-width:1;stroke-linecap:butt;stroke-linejoin:miter"
     inkscape:connector-curvature="0"
     id="path26"
     d="m 50.114048,323.48813 7.5,0 m 390.700002,0 -7.5,0" />
  <g
     id="g28"
     style="font-size:12.5px;text-anchor:end;color:#000000;fill:#000000;stroke:none;font-family:Verdana"
     transform="translate(43.214048,327.18813)">
    <text
       id="text30">0</text>
  </g>
  <path
     style="color:#000000;fill:none;stroke:currentColor;stroke-width:1;stroke-linecap:butt;stroke-linejoin:miter"
     inkscape:connector-curvature="0"
     id="path32"
     d="m 50.114048,278.08813 7.5,0 m 390.700002,0 -7.5,0" />
  <g
     id="g34"
     style="font-size:12.5px;text-anchor:end;color:#000000;fill:#000000;stroke:none;font-family:Verdana"
     transform="translate(43.214048,281.78813)">
    <text
       id="text36">1</text>
  </g>
  <path
     style="color:#000000;fill:none;stroke:currentColor;stroke-width:1;stroke-linecap:butt;stroke-linejoin:miter"
     inkscape:connector-curvature="0"
     id="path38"
     d="m 50.114048,232.58813 7.5,0 m 390.700002,0 -7.5,0" />
  <g
     id="g40"
     style="font-size:12.5px;text-anchor:end;color:#000000;fill:#000000;stroke:none;font-family:Verdana"
     transform="translate(43.214048,236.28813)">
    <text
       id="text42">2</text>
  </g>
  <path
     style="color:#000000;fill:none;stroke:currentColor;stroke-width:1;stroke-linecap:butt;stroke-linejoin:miter"
     inkscape:connector-curvature="0"
     id="path44"
     d="m 50.114048,187.18813 7.5,0 m 390.700002,0 -7.5,0" />
  <g
     id="g46"
     style="font-size:12.5px;text-anchor:end;color:#000000;fill:#000000;stroke:none;font-family:Verdana"
     transform="translate(43.214048,190.88813)">
    <text
       id="text48">3</text>
  </g>
  <path
     style="color:#000000;fill:none;stroke:currentColor;stroke-width:1;stroke-linecap:butt;stroke-linejoin:miter"
     inkscape:connector-curvature="0"
     id="path50"
     d="m 50.114048,141.68813 7.5,0 m 390.700002,0 -7.5,0" />
  <g
     id="g52"
     style="font-size:12.5px;text-anchor:end;color:#000000;fill:#000000;stroke:none;font-family:Verdana"
     transform="translate(43.214048,145.38813)">
    <text
       id="text54">4</text>
  </g>
  <path
     style="color:#000000;fill:none;stroke:currentColor;stroke-width:1;stroke-linecap:butt;stroke-linejoin:miter"
     inkscape:connector-curvature="0"
     id="path56"
     d="m 50.114048,96.288135 7.5,0 m 390.700002,0 -7.5,0" />
  <g
     id="g58"
     style="font-size:12.5px;text-anchor:end;color:#000000;fill:#000000;stroke:none;font-family:Verdana"
     transform="translate(43.214048,99.988135)">
    <text
       id="text60">5</text>
  </g>
  <path
     style="color:#000000;fill:none;stroke:currentColor;stroke-width:1;stroke-linecap:butt;stroke-linejoin:miter"
     inkscape:connector-curvature="0"
     id="path62"
     d="m 50.114048,50.788135 7.5,0 m 390.700002,0 -7.5,0" />
  <g
     id="g64"
     style="font-size:12.5px;text-anchor:end;color:#000000;fill:#000000;stroke:none;font-family:Verdana"
     transform="translate(43.214048,54.488135)">
    <text
       id="text66">6</text>
  </g>
  <path
     style="color:#000000;fill:none;stroke:currentColor;stroke-width:1;stroke-linecap:butt;stroke-linejoin:miter"
     inkscape:connector-curvature="0"
     id="path68"
     d="m 50.114048,5.3881348 7.5,0 m 390.700002,0 -7.5,0" />
  <g
     id="g70"
     style="font-size:12.5px;text-anchor:end;color:#000000;fill:#000000;stroke:none;font-family:Verdana"
     transform="translate(43.214048,9.0881348)">
    <text
       id="text72">7</text>
  </g>
  <path
     style="color:#000000;fill:none;stroke:currentColor;stroke-width:1;stroke-linecap:butt;stroke-linejoin:miter"
     inkscape:connector-curvature="0"
     id="path74"
     d="m 50.114048,323.48813 0,-7.5 m 0,-310.5999952 0,7.5000002" />
  <g
     id="g76"
     style="font-size:12.5px;text-anchor:middle;color:#000000;fill:#000000;stroke:none;font-family:Verdana"
     transform="translate(50.114048,342.18813)">
    <text
       id="text78">0</text>
  </g>
  <path
     style="color:#000000;fill:none;stroke:currentColor;stroke-width:1;stroke-linecap:butt;stroke-linejoin:miter"
     inkscape:connector-curvature="0"
     id="path80"
     d="m 89.914048,323.48813 0,-7.5 m 0,-310.5999952 0,7.5000002" />
  <g
     id="g82"
     style="font-size:12.5px;text-anchor:middle;color:#000000;fill:#000000;stroke:none;font-family:Verdana"
     transform="translate(89.914048,342.18813)">
    <text
       id="text84">2</text>
  </g>
  <path
     style="color:#000000;fill:none;stroke:currentColor;stroke-width:1;stroke-linecap:butt;stroke-linejoin:miter"
     inkscape:connector-curvature="0"
     id="path86"
     d="m 129.71405,323.48813 0,-7.5 m 0,-310.5999952 0,7.5000002" />
  <g
     id="g88"
     style="font-size:12.5px;text-anchor:middle;color:#000000;fill:#000000;stroke:none;font-family:Verdana"
     transform="translate(129.71405,342.18813)">
    <text
       id="text90">4</text>
  </g>
  <path
     style="color:#000000;fill:none;stroke:currentColor;stroke-width:1;stroke-linecap:butt;stroke-linejoin:miter"
     inkscape:connector-curvature="0"
     id="path92"
     d="m 169.61405,323.48813 0,-7.5 m 0,-310.5999952 0,7.5000002" />
  <g
     id="g94"
     style="font-size:12.5px;text-anchor:middle;color:#000000;fill:#000000;stroke:none;font-family:Verdana"
     transform="translate(169.61405,342.18813)">
    <text
       id="text96">6</text>
  </g>
  <path
     style="color:#000000;fill:none;stroke:currentColor;stroke-width:1;stroke-linecap:butt;stroke-linejoin:miter"
     inkscape:connector-curvature="0"
     id="path98"
     d="m 209.41405,323.48813 0,-7.5 m 0,-310.5999952 0,7.5000002" />
  <g
     id="g100"
     style="font-size:12.5px;text-anchor:middle;color:#000000;fill:#000000;stroke:none;font-family:Verdana"
     transform="translate(209.41405,342.18813)">
    <text
       id="text102">8</text>
  </g>
  <path
     style="color:#000000;fill:none;stroke:currentColor;stroke-width:1;stroke-linecap:butt;stroke-linejoin:miter"
     inkscape:connector-curvature="0"
     id="path104"
     d="m 249.21405,323.48813 0,-7.5 m 0,-310.5999952 0,7.5000002" />
  <g
     id="g106"
     style="font-size:12.5px;text-anchor:middle;color:#000000;fill:#000000;stroke:none;font-family:Verdana"
     transform="translate(249.21405,342.18813)">
    <text
       id="text108">10</text>
  </g>
  <path
     style="color:#000000;fill:none;stroke:currentColor;stroke-width:1;stroke-linecap:butt;stroke-linejoin:miter"
     inkscape:connector-curvature="0"
     id="path110"
     d="m 289.01405,323.48813 0,-7.5 m 0,-310.5999952 0,7.5000002" />
  <g
     id="g112"
     style="font-size:12.5px;text-anchor:middle;color:#000000;fill:#000000;stroke:none;font-family:Verdana"
     transform="translate(289.01405,342.18813)">
    <text
       id="text114">12</text>
  </g>
  <path
     style="color:#000000;fill:none;stroke:currentColor;stroke-width:1;stroke-linecap:butt;stroke-linejoin:miter"
     inkscape:connector-curvature="0"
     id="path116"
     d="m 328.81405,323.48813 0,-7.5 m 0,-310.5999952 0,7.5000002" />
  <g
     id="g118"
     style="font-size:12.5px;text-anchor:middle;color:#000000;fill:#000000;stroke:none;font-family:Verdana"
     transform="translate(328.81405,342.18813)">
    <text
       id="text120">14</text>
  </g>
  <path
     style="color:#000000;fill:none;stroke:currentColor;stroke-width:1;stroke-linecap:butt;stroke-linejoin:miter"
     inkscape:connector-curvature="0"
     id="path122"
     d="m 368.71405,323.48813 0,-7.5 m 0,-310.5999952 0,7.5000002" />
  <g
     id="g124"
     style="font-size:12.5px;text-anchor:middle;color:#000000;fill:#000000;stroke:none;font-family:Verdana"
     transform="translate(368.71405,342.18813)">
    <text
       id="text126">16</text>
  </g>
  <path
     style="color:#000000;fill:none;stroke:currentColor;stroke-width:1;stroke-linecap:butt;stroke-linejoin:miter"
     inkscape:connector-curvature="0"
     id="path128"
     d="m 408.51405,323.48813 0,-7.5 m 0,-310.5999952 0,7.5000002" />
  <g
     id="g130"
     style="font-size:12.5px;text-anchor:middle;color:#000000;fill:#000000;stroke:none;font-family:Verdana"
     transform="translate(408.51405,342.18813)">
    <text
       id="text132">18</text>
  </g>
  <path
     style="color:#000000;fill:none;stroke:currentColor;stroke-width:1;stroke-linecap:butt;stroke-linejoin:miter"
     inkscape:connector-curvature="0"
     id="path134"
     d="m 448.31405,323.48813 0,-7.5 m 0,-310.5999952 0,7.5000002" />
  <g
     id="g136"
     style="font-size:12.5px;text-anchor:middle;color:#000000;fill:#000000;stroke:none;font-family:Verdana"
     transform="translate(448.31405,342.18813)">
    <text
       id="text138">20</text>
  </g>
  <path
     style="color:#000000;fill:none;stroke:currentColor;stroke-width:1;stroke-linecap:butt;stroke-linejoin:miter"
     inkscape:connector-curvature="0"
     id="path140"
     d="m 50.114048,5.3881348 0,318.0999952 398.200002,0 0,-318.0999952 -398.200002,0 z" />
  <path
     style="color:#ff0000;fill:none;stroke:currentColor;stroke-width:1;stroke-linecap:butt;stroke-linejoin:miter"
     d="m 399.41405,20.388135 35.1,0 m -384.400002,75.9 0.1,0 0,0.4 0,2.1 0.1,0 0,-0.2 0.1,0 0,-0.9 0,-0.4 0,0.1 0.1,0 0,0.2 0,-1.4 0,0.1 0.1,-1.3 0,-0.6 0,1.4 0,0.1 0.1,0 0,0.6 0,0.1 0,-1.4 0.1,0.1 0,-0.1 0.1,0 0,0.1 0,-0.3 0,-0.3 0.1,0.1 0,0.1 0,-0.1 0.1,0.1 0,0.1 0.1,0.1 0,0.1 0,0.1 0,-1.8 0.1,0.1 0,0.3 0,0.1 0.1,0 0,0.7 0,0.1 0,-0.8 0.1,-0.4 0,0.1 0,0.1 0,0.1 0.1,0.1 0,0.3 0,2.6 0,0.1 0,0.1 0.1,0.1 0,0.1 0,0.1 0,0.1 0.1,0.1 0,0.1 0,0.1 0,-0.1 0.1,0.1 0,0.1 0,0.1 0,0.1 0.1,0.1 0,0.4 0,0.1 0,0.1 0,0.1 0.1,0.1 0,0.1 0,0.1 0,0.5 0,0.1 0.1,0.1 0,0.1 0,0.199995 0,0.1 0,0.1 0.1,1.1 0,0.1 0,0.1 0,0.1 0,0.2 0,0.1 0.1,0.1 0,0.1 0,0.2 0,0.1 0.1,0.2 0,-1.1 0,0.2 0,0.1 0,-1.2 0.1,0.1 0,0.1 0,0.2 0,0.1 0,0.1 0.1,2 0,0.1 0,0.2 0,0.1 0,0.1 0.1,0.2 0,0.1 0,0.2 0,0.1 0,0.2 0.1,0.1 0,0.2 0,0.1 0,0.2 0,0.2 0.1,0.4 0,-1.2 0,-0.5 0,0.2 0,0.1 0.1,0.2 0,0.2 0,-1.7 0,1 0,-0.1 0.1,0.2 0,0.1 0,0.2 0,0.1 0,0.2 0.1,0.2 0,0.1 0,-0.5 0,0.2 0,0.4 0.1,0.2 0,0.2 0,0.1 0,0.4 0,0.2 0.1,0.2 0,0.2 0,0.2 0,0.2 0,0.2 0.1,1 0,1 0,0.2 0,0.2 0,0.2 0.1,0.2 0,0.3 0,0.2 0,0.2 0,0.2 0.1,0.2 0,0.2 0,0.2 0,0.3 0.1,0.5 0,-1.1 0,0.5 0,0.3 0,0.2 0.1,0.2 0,0.3 0,1 0,-1.3 0,0.2 0.1,0.2 0,0.3 0,0.2 0,0.3 0,0.2 0.1,0.3 0,0.2 0,0.3 0,0.2 0,0.3 0.1,0.2 0,0.3 0,0.2 0,0.3 0,0.3 0.1,-1.5 0,0.3 0,0.3 0,0.2 0,0.3 0.1,0.2 0,0.3 0,0.3 0,-1.9 0,0.3 0.1,0.3 0,0.3 0,0.3 0,0.5 0,0.3 0.1,0.3 0,0.2 0,0.3 0,0.3 0,0.3 0.1,-0.9 0,0.3 0,0.3 0,0.4 0,0.3 0.1,-0.5 0,-0.1 0,0.3 0,0.3 0,0.2 0.1,0.3 0,0.3 0,0.4 0,0.3 0,-0.4 0.1,0.4 0,0.3 0,0.3 0,0.4 0,0.3 0.1,0.3 0,0.6 0,0.3 0,0.4 0,0.5 0.1,0.3 0,0.4 0,0.3 0,0.4 0,0.3 0.1,1.8 0,0.3 0,0.4 0,0.4 0,0.3 0.1,0.4 0,0.4 0,0.3 0,1.3 0,0.3 0.1,0.4 0,0.4 0,0.3 0,0.4 0,0.4 0.1,0.4 0,0.3 0,0.4 0,0.4 0,0.4 0.1,0.4 0,0.4 0,0.4 0,0.4 0,0.4 0.1,0.4 0,0.4 0,0.4 0,0.4 0,0.4 0.1,0.4 0,0.4 0,0.2 0,0.5 0,0.7 0.1,0.4 0,0.4 0,0.4 0,0.4 0,0.4 0.1,0.4 0,0.4 0,0.4 0,0.5 0,0.4 0.1,0.4 0,0.5 0,0.4 0,0.4 0,0.4 0.1,0.4 0,0.5 0,0.4 0,0.4 0,0.1 0.1,0.8 0,0.4 0,0.4 0,0.5 0,0.3 0.1,0.4 0,0.7 0,0.5 0,0.5 0,0.5 0.1,0.4 0,0.5 0,-4.7 0,0.5 0,0.4 0,0.5 0.1,0.4 0,0.5 0,0.4 0,0.5 0,0.4 0.1,0.4 0,0.5 0,0.4 0,-1.1 0,0.5 0.1,0.4 0,0.5 0,0.4 0,0.5 0.1,0.4 0,0.5 0,0.4 0,0.5 0.1,0.4 0,0.1 0,0.5 0,0.4 0,0.6 0.1,0.4 0,0.4 0,0.5 0,0.4 0,0.5 0.1,0.4 0,0.5 0,0.4 0,0.4 0,0.5 0.1,0.4 0,0.5 0,0.4 0,0.4 0,0.5 0.1,-0.2 0,0.4 0,0.5 0,0.4 0,0.4 0.1,0.4 0,0.8 0,-1 0,0.4 0,0.4 0.1,0.5 0,0.6 0,0.4 0,0.4 0,-0.7 0.1,0.4 0,0.4 0,0.4 0,0.4 0,0.4 0.1,0.4 0,0.4 0,-0.1 0,0.3 0.1,0.4 0,0.4 0,0.4 0,0.4 0,-0.5 0.1,0.4 0,0.4 0,0.4 0,0.3 0.1,0.3 0,0.4 0,0.4 0,0.2 0,0.3 0.1,0.3 0,0.4 0,-0.6 0,0.3 0,0.4 0.1,0.3 0,0.4 0,-1 0,0.3 0,0.4 0.1,0.3 0,0.3 0,-0.9 0,0.3 0,0.3 0.1,0.3 0,0.3 0,0.3 0,0.4 0,0.3 0.1,0.3 0,0.3 0,0.4 0,0.3 0,0.3 0.1,0.7 0,0.3 0,0.3 0,0.3 0,0.2 0.1,0.3 0,0.3 0,0.3 0,0.9 0,0.3 0.1,0.2 0,0.2 0,-2.1 0,0.2 0,-0.4 0.1,0.2 0,0.5 0,0.2 0,0.2 0,0.2 0.1,0.2 0,0.2 0,0.2 0,0.2 0,0.2 0.1,-0.7 0,0.2 0,-0.5 0,0.1 0,0.2 0.1,0.2 0,1.5 0,-0.2 0,1.1 0,0.2 0.1,0.2 0,2.3 0,0.2 0,0.2 0,0.1 0.1,0.2 0,0.1 0,-0.4 0,0.1 0,1.1 0.1,0.1 0,-0.1 0,0.1 0,0.1 0,0.1 0.1,-2.3 0,0.1 0,0.1 0,0.3 0,0.1 0.1,0.5 0,0.1 0,-0.8 0,0.1 0,0.1 0.1,0.1 0,0.1 0,0.1 0,0.1 0.1,0.1 0,0.1 0,0.1 0,0.1 0.1,0.1 0,-0.3 0,0.1 0,0.4 0,0.1 0.1,0 0,-1.6 0,0.1 0,0.1 0.1,0 0,0.1 0,-2.1 0.1,0.1 0,0.1 0.1,0.1 0,0.1 0,0.1 0.1,0 0,0.1 0.1,0 0,-0.7 0.1,0 0,-0.5 0.1,0 0,-3.2 0,-1.9 0.1,0 0,-0.6 0.1,0 0,-0.1 0.1,0 0,-0.2 0,0.2 0.1,-0.1 0,0.1 0,-0.1 0.1,0 0,0.7 0,-0.1 0.1,0 0,-0.1 0,-0.1 0.1,0 0,-0.1 0.1,-0.1 0,-1.3 0,-0.1 0.1,-0.1 0,-0.1 0,-0.2 0,-1.1 0.1,-0.1 0,-0.6 0,-0.1 0.1,0 0,-0.1 0,-0.9 0,-0.1 0.1,-0.1 0,-0.1 0.1,-1.3 0,-0.1 0,-0.1 0,-0.1 0.1,0 0,-0.1 0,-0.1 0,-0.1 0.1,0 0,-1.3 0,-0.1 0,-0.1 0,-0.1 0.1,-0.1 0,-0.1 0,-0.1 0,-0.1 0.1,0 0,0.3 0,-0.1 0,-0.4 0.1,0 0,-0.1 0,-0.1 0,-0.1 0.1,-0.1 0,-0.3 0,-0.4 0,-0.1 0,0.4 0.1,-0.4 0,-0.1 0,-0.1 0.1,-1 0,-0.1 0,-0.8 0.1,-0.1 0,-0.1 0.1,-0.1 0,-0.1 0,-0.1 0,1.1 0.1,0 0,0.2 0,-0.1 0.1,-3.2 0,1.2 0,-0.1 0,1.3 0.1,-0.1 0,-0.1 0.1,0 0,-0.1 0,-1.4 0.1,0 0,-0.1 0,-0.8 0.1,0 0,-0.1 0.1,0 0,0.8 0.1,0 0,-2.3 0.1,0 0,-0.1 0,-0.3 0.1,0 0,-0.1 0.1,-0.4 0,-0.5 0.1,0 0.1,0 0,0.5 0.1,0 0.1,0 0,0.3 0.1,0 0,-1 0,0.2 0,-0.2 0.1,0 0.1,0.6 0.1,-0.5 0,0.1 0,0.1 0,0.1 0.1,0 0,-0.5 0,-0.6 0.1,0.1 0,-0.1 0.1,0 0,-1.1 0,0.1 0,0.2 0.1,0.1 0,-0.5 0,0.4 0.1,-0.8 0,-2 0,0.1 0.1,-0.1 0,0.1 0,0.1 0.1,0.1 0,0.1 0,-3.2 0,0.1 0.1,0.1 0,0.1 0,0.1 0.1,0.1 0,0.1 0,1.8 0,-1.6 0,0.1 0.1,0 0,0.1 0,0.1 0,0.1 0.1,0.1 0,-0.1 0,0.1 0,-1.2 0.1,0.1 0,0.5 0,0.1 0,0.1 0.1,0.1 0,0.1 0,0.1 0,-0.4 0,0.1 0.1,0 0,0.1 0,0.1 0,0.1 0,0.1 0.1,0.1 0,0.1 0,0.1 0,0.1 0.1,0.1 0,0.1 0,0.1 0,0.1 0.1,0.1 0,0.1 0,0.1 0,0.1 0.1,0.1 0,-1.8 0,0.1 0,0.1 0,0.1 0.1,0.6 0,0.1 0,0.1 0,2.1 0,0.1 0.1,-0.4 0,0.1 0,0.1 0,-0.1 0,0.1 0.1,0.1 0,0.1 0,0.1 0,0.1 0,0.1 0.1,0.1 0,0.1 0,0.1 0,0.1 0.1,0.1 0,0.1 0,2.5 0,0.1 0.1,0.1 0,0.1 0,0.1 0,0.1 0,0.1 0.1,0.1 0,0.1 0,0.1 0,0.1 0,0.8 0.1,0.1 0,0.1 0,-0.1 0,0.1 0,-1 0.1,0.1 0,0.1 0,0.1 0,0.1 0,-1 0.1,-0.6 0,0.1 0,0.4 0,0.1 0,0.2 0.1,0.1 0,0.1 0,0.1 0,0.1 0.1,0.2 0,-0.1 0,0.1 0,0.1 0,0.1 0.1,0.1 0,0.1 0,-2.5 0,-1.8 0.1,0.1 0,0.1 0,0.1 0,0.1 0.1,0.1 0,0.1 0,0.1 0,0.1 0,0.1 0.1,-0.1 0,0.1 0,0.1 0,0.7 0,1 0.1,0.1 0,0.1 0,0.1 0,-1.3 0,0.1 0.1,0.1 0,0.1 0,0.1 0,0.2 0.1,0.4 0,0.1 0,0.2 0,0.1 0.1,-0.2 0,0.1 0,0.1 0,0.1 0.1,0.3 0,0.1 0,0.1 0,-1 0.1,0.1 0,-0.2 0,0.1 0.1,0.1 0,-1.4 0,0.1 0,-2.6 0.1,0.1 0,0.1 0,0.1 0.1,0.1 0,-0.2 0,0.1 0.1,-0.2 0,0.8 0,0.1 0,0.1 0.1,0.1 0,0.1 0.1,0.1 0,-1.6 0,-1 0,0.1 0.1,0 0,0.1 0,-0.4 0.1,0.2 0,0.1 0,1.2 0,-0.9 0.1,0 0,0.1 0.1,0 0,0.6 0.1,0 0,0.1 0,0.8 0.1,-1.1 0,-1 0.1,0 0.1,0 0,0.6 0.1,0.4 0,-0.6 0.1,0 0,0.3 0.1,0 0,-2.3 0,-1.9 0,-0.4 0,-0.5 0.1,0 0,-1.7 0.1,-1.8 0,-0.4 0.1,0 0.1,0.4 0.1,0 0.1,-0.7 0.1,0 0.1,-0.1 0,-0.1 0,-0.1 0.1,1.2 0,-0.1 0,-0.3 0,-0.1 0.1,0 0,-0.1 0,0.1 0,-0.1 0.1,0 0,-0.1 0.1,-0.1 0,-0.1 0.1,-0.2 0,-0.1 0,-2.8 0.1,-0.1 0,-0.4 0,-0.1 0.1,0 0,-0.1 0,-0.1 0.1,0.1 0,-0.1 0,-0.3 0.1,0 0,0.9 0,-0.1 0.1,0 0,-4.8 0,-0.1 0.1,0 0,-0.5 0,-0.1 0,-0.6 0.1,0 0,-0.1 0,-1.4 0.1,0 0,-0.1 0.1,-3 0,-0.5 0,-0.1 0.1,0 0,-0.1 0.1,-0.1 0,-0.1 0.1,-0.1 0,-3.1 0,1.5 0,-0.1 0.1,-0.3 0,-0.1 0.1,0 0,-0.1 0,0.7 0.1,-0.1 0,-0.1 0.1,0 0,-0.1 0.1,0 0,-0.1 0.1,-0.1 0,-0.1 0.1,0 0,-0.1 0.1,0 0,-0.1 0.1,0 0,-0.7 0,-1 0,-0.5 0.1,0 0,-0.1 0,1.9 0.1,0 0.1,0 0,-0.1 0,-1.5 0.1,0 0,-0.9 0,-0.1 0.1,0 0,0.2 0.1,0 0,0.1 0,-1.4 0.1,-1.6 0,-0.9 0.1,0 0,0.5 0.1,0.1 0,-2.4 0.1,0 0,0.1 0.1,-0.4 0,1.6 0.1,-1.6 0,0.1 0.1,0.1 0,0.1 0.1,1.3 0,0.1 0.1,0 0,0.1 0,1.5 0.1,0 0,0.1 0,0.1 0.1,0 0,0.1 0,0.1 0.1,0 0,0.1 0,-0.1 0.1,0 0,0.1 0,0.1 0.1,0 0,0.1 0,0.1 0.1,-1.4 0,-1.8 0,-0.4 0.1,0.1 0,0.1 0.1,0.1 0,-1.5 0,0.1 0.1,0 0,-0.2 0,1.4 0.1,1.8 0,-0.1 0,-0.8 0,-0.3 0.1,0 0,-0.1 0,1 0.1,-1.7 0,0.1 0.1,0 0.1,0 0,0.8 0.1,0 0,-0.4 0,1 0.1,0 0,-0.1 0,1.1 0.1,0 0,-1.7 0.1,0 0.1,0 0,-0.9 0.1,0 0.1,0 0.1,0 0,1.1 0,-0.1 0,0.1 0.1,-0.8 0,-0.2 0.1,0 0,-0.1 0.1,0 0,-0.1 0.1,0 0,-2 0,-0.5 0.1,0 0,0.7 0,1 0.1,0 0,-0.1 0.1,0 0,-0.1 0.1,0 0,-0.1 0,-0.1 0.1,-0.3 0,-0.1 0.1,0 0,0.1 0,-0.4 0.1,-0.1 0.1,-0.1 0,-0.1 0,-0.1 0.1,0 0,-0.1 0,0.6 0.1,-0.2 0,1 0.1,0 0,-0.1 0,-0.2 0,-0.1 0.1,-0.9 0,-1 0,-0.3 0,-0.8 0.1,0 0,-0.7 0.1,0 0.1,0 0,-0.6 0,-0.7 0.1,0.1 0,-0.1 0,0.2 0,0.1 0,-0.7 0.1,0.1 0,1.6 0,0.3 0.1,0 0,0.1 0,0.1 0.1,0 0,0.1 0,0.1 0.1,0 0,-0.6 0,0.1 0,0.1 0.1,0 0,0.1 0,0.1 0,1.2 0.1,0.1 0,0.1 0,-0.9 0,0.1 0.1,0 0,0.3 0,0.1 0,0.1 0.1,0.1 0,-2.7 0,0.1 0,0.1 0,1.1 0.1,0.1 0,0.5 0,0.1 0,0.1 0,-0.7 0.1,-1.5 0,0.1 0,0.1 0,0.2 0,0.1 0.1,0.2 0,0.1 0,0.1 0,0.1 0.1,2.3 0,-0.1 0,0.5 0,0.1 0,0.1 0.1,-0.2 0,0.1 0,-1 0,0.2 0,0.1 0.1,0.1 0,-1 0,0.1 0.1,-1.1 0,0.1 0,1.7 0,0.3 0,0.1 0.1,0.1 0,0.1 0,0.1 0,0.1 0,0.1 0.1,-0.2 0,0.1 0,0.1 0,0.1 0,0.1 0.1,0.1 0,0.1 0,0.1 0,0.1 0.1,-0.3 0,0.1 0,0.1 0,0.1 0,0.1 0.1,0 0,0.1 0,-0.3 0,0.1 0,0.1 0.1,0.1 0,0.1 0,0.1 0,0.1 0,0.1 0.1,0.1 0,0.1 0,0.1 0,0.1 0,0.1 0.1,0.1 0,0.1 0,0.1 0,0.1 0,-0.9 0.1,0.1 0,0.1 0,0.1 0,0.1 0,0.1 0.1,0.1 0,0.1 0,0.1 0,0.1 0.1,0.1 0,0.1 0,0.1 0,0.1 0,0.1 0.1,0.1 0,0.1 0,0.1 0,0.1 0,0.1 0.1,-3.6 0,0.7 0,-0.3 0,-1.6 0,0.1 0.1,0.1 0,0.1 0,0.1 0,-2.3 0,0.1 0.1,0.1 0,0.1 0,0.7 0,0.1 0,-2.5 0.1,0.1 0,0.1 0,0.1 0,0.1 0.1,0.1 0,0.1 0,0.1 0,0.1 0,-0.8 0.1,0.1 0,0.1 0,0.1 0,0.1 0.1,0.1 0,-0.1 0,0.1 0.1,0.1 0,-0.4 0,-0.6 0,0.1 0,0.1 0.1,0.1 0,0.1 0,-0.2 0,0.1 0,0.1 0.1,0.1 0,0.1 0,0.1 0,0.1 0.1,0.1 0,0.1 0,0.1 0,0.1 0.1,0.1 0,0.1 0,0.1 0,0.1 0.1,0.1 0,0.1 0,0.1 0,0.1 0.1,0 0,0.1 0,0.1 0,0.1 0.1,0 0,0.1 0,0.1 0,0.1 0.1,0 0,0.1 0,0.1 0,2.2 0.1,0.2 0,0.1 0,-0.7 0.1,0.1 0,-0.4 0,1 0.1,0.1 0,0.1 0.1,0 0,1.7 0,0.4 0.1,0 0,0.1 0,-0.1 0,-0.7 0.1,0 0,0.1 0.1,0 0,0.6 0,0.1 0.1,0.8 0,0.1 0.1,0 0,0.1 0,1.2 0,0.1 0.1,-0.4 0,-0.4 0.1,0 0.1,0 0,-1.3 0.1,1 0,-0.7 0.1,0.1 0,-0.9 0.1,0 0,0.3 0.1,0 0.1,0 0,0.4 0.1,0 0.1,0 0,0.6 0.1,0 0,-0.1 0.1,-1 0,-1.6 0,0.9 0.1,-0.1 0.1,0 0,-0.3 0,0.1 0.1,0 0,0.5 0,-1 0.1,0 0,-0.4 0,-0.5 0.1,0 0,-0.1 0,0.1 0.1,0 0,-0.9 0.1,0 0.1,-0.8 0.1,0 0,1 0.1,-0.1 0,-2.1 0.1,0 0.1,0 0,-0.5 0.1,0 0.1,0 0,0.2 0.1,-1.3 0,-0.8 0,0.1 0.1,-1.4 0,0.1 0,-0.3 0.1,0 0,0.7 0,2.9 0.1,0.1 0,0.1 0.1,0 0,0.1 0.1,0 0,0.1 0.1,-1.1 0,0.1 0,-1.3 0.1,0.1 0,0.1 0.1,0 0,-0.1 0,0.1 0.1,0 0,0.1 0.1,0.1 0,-0.2 0,1.2 0.1,0 0,-0.3 0,0.1 0,0.1 0.1,-0.3 0,0.1 0,0.9 0,0.1 0,-0.2 0.1,0 0,0.1 0,-0.2 0,0.1 0.1,0 0,0.1 0.1,3 0.1,0 0,0.1 0.1,0 0,-0.6 0,0.1 0,0.9 0.1,0 0,0.1 0.1,0 0,0.1 0.1,0.1 0,0.2 0,0.4 0,-0.7 0.1,0 0,1.4 0,0.1 0,-0.1 0.1,0 0,0.1 0,-1.9 0,0.1 0.1,0 0,0.1 0,0.1 0.1,0.1 0,-0.6 0,0.1 0,0.2 0.1,0.1 0,0.1 0.1,0.1 0,-0.1 0.1,0.1 0,0.1 0.1,0 0,0.1 0,0.1 0.1,0.1 0,0.1 0.1,0.1 0,0.1 0,0.1 0.1,0 0,0.6 0,-1.1 0,0.1 0.1,0 0,0.2 0,-1 0,0.1 0,0.1 0.1,0 0,-0.1 0,-2.9 0.1,0 0,0.2 0.1,0 0.1,-2.1 0.1,0 0,-1.2 0.1,0 0,0.1 0,-0.9 0.1,0 0.1,0 0,-1 0.1,0 0,0.1 0,-0.1 0,-0.8 0.1,0 0,-1.6 0,-0.1 0.1,0.3 0,-0.6 0.1,0 0.1,-0.1 0.1,0 0,-0.1 0.1,0 0,0.4 0.1,-0.1 0,-0.8 0,-0.1 0.1,0 0,-0.1 0.1,0 0,-0.1 0,0.5 0.1,0 0,-0.1 0,-1.2 0.1,0 0,-0.1 0.1,0 0,0.8 0.1,-1.1 0,-1.4 0.1,-0.5 0,-0.1 0.1,-0.2 0,0.1 0.1,-0.3 0,0.4 0.1,0 0,0.1 0.1,0.5 0,0.4 0.1,0.6 0,-2.2 0,0.4 0,0.4 0,0.1 0.1,0 0,-0.5 0.1,0.1 0,1 0.1,0 0,-0.6 0.1,0.1 0.1,0 0,0.2 0.1,0 0,0.1 0.1,0 0,0.9 0.1,0 0,1.1 0,-0.2 0.1,0 0,0.1 0.1,-0.1 0,0.2 0,-0.1 0.1,-0.5 0,-0.4 0.1,0 0,-0.2 0,-1.1 0.1,-0.1 0,1.2 0,-0.7 0.1,0 0,-0.1 0.1,0 0,0.1 0,-0.1 0,1.7 0.1,0 0,-0.8 0.1,-1.8 0,-0.1 0.1,0.3 0,0.2 0,0.6 0.1,0 0,-0.2 0,0.1 0.1,0 0,-0.1 0.1,0 0,-0.1 0,0.8 0,0.1 0.1,-0.2 0,-0.1 0.1,0 0,0.7 0,0.2 0.1,0 0,0.8 0.1,0 0,-0.1 0.1,0.6 0,-0.1 0.1,0 0,-0.1 0,-0.1 0.1,-1 0,-0.7 0.1,0 0,-1.2 0,-0.4 0.1,0 0.1,0 0.1,0 0.1,0 0,0.5 0.1,0 0.1,0 0,-0.4 0.1,0 0.1,-0.4 0,1 0,1.3 0,0.1 0.1,0 0.1,0.3 0.1,0 0,0.1 0.1,0 0,-0.2 0,0.9 0,0.1 0,-0.3 0.1,0.1 0,-0.9 0,-0.7 0,0.2 0.1,0.5 0,0.1 0.1,0.5 0,0.1 0,0.2 0,0.1 0.1,-1.1 0,0.1 0,0.1 0.1,0.1 0,0.4 0,0.7 0,0.1 0.1,0.1 0,0.1 0,0.8 0,0.1 0.1,0.1 0,0.1 0,0.1 0.1,0.2 0,0.1 0,0.1 0.1,0 0,0.1 0,0.1 0,0.8 0,0.1 0.1,0 0,0.1 0,0.1 0.1,0.1 0,0.1 0,-0.9 0.1,0.2 0,0.1 0,-0.7 0,0.2 0,-0.5 0.1,0 0,0.1 0,0.8 0,0.1 0.1,0.1 0,-4 0,0.1 0,0.4 0.1,1.8 0,0.1 0,0.1 0.1,0.1 0,1.1 0,0.1 0,0.1 0.1,0 0,0.3 0,0.1 0,0.1 0.1,0 0,0.1 0,0.6 0,0.1 0,0.1 0.100002,0 0,0.1 0,-0.5 0,0.1 0.1,0 0,0.1 0,0.1 0.1,-0.1 0,-0.2 0,0.1 0.1,-1.9 0,1.3 0,0.1 0.1,0.1 0,0.1 0,1.2 0.1,0 0,0.1 0,0.1 0.1,-0.2 0,0.1 0,0.1 0.1,0 0,0.1 0,0.1 0.1,0.1 0,0.1 0.1,0.1 0,0.7 0.1,0.1 0,-1.6 0,0.5 0,0.1 0.1,0 0,0.1 0.1,0 0,0.8 0,0.2 0.1,0.1 0,-1.2 0.1,0 0.1,-0.3 0,-0.1 0,0.6 0.1,0.1 0,0.2 0,0.2 0,-1 0.1,0 0,-0.1 0.1,0 0,-2.5 0.1,1.5 0.1,0 0,0.1 0,0.6 0.1,0 0.1,-0.3 0,-0.5 0,-0.2 0,-0.4 0.1,0 0.1,-1.5 0.1,0 0,0.9 0.1,0 0,-0.1 0,-0.1 0.1,0 0,-0.1 0.1,0 0,-0.1 0.1,-0.1 0,-0.9 0.1,0 0,-0.8 0,0.4 0.1,0 0,0.4 0,-1.4 0,0.8 0.1,-0.1 0,0.3 0,-0.1 0.1,0 0,0.9 0.1,-1.9 0.1,0 0,-0.1 0.1,0 0,0.9 0.1,0 0,-1.1 0.1,-0.4 0,-0.4 0.1,0 0,-1.5 0.1,0 0,0.1 0,-1.4 0.1,0.8 0,-1.1 0,0.3 0.1,0 0,-0.8 0,-0.7 0.1,0 0,-0.1 0,2.1 0,0.5 0.1,0 0,0.1 0.1,-0.1 0.1,0 0.1,0.4 0.1,0 0,-3.8 0,0.4 0.1,0 0,0.4 0,0.5 0,-0.3 0.1,0.1 0.1,0 0,0.1 0,1.4 0.1,0 0,0.1 0.1,0 0,0.1 0,0.1 0.1,0 0,1.8 0,0.1 0.1,0.1 0,-0.2 0.1,-1.8 0,0.1 0,0.6 0.1,0.4 0,0.8 0,0.1 0,0.6 0.1,0 0,0.1 0,0.9 0,2.2 0.1,0.1 0,0.1 0,0.1 0,0.1 0.1,0.1 0,-0.1 0,0.1 0,-1 0,0.1 0.1,0.1 0,0.1 0,0.1 0,0.1 0.1,0.1 0,0.1 0,-1 0,0.1 0,0.1 0.1,0.1 0,0.1 0,0.1 0,0.1 0,0.1 0.1,0.1 0,-0.4 0,0.1 0,0.1 0,0.2 0.1,0.1 0,-0.3 0,0.1 0,0.1 0,0.7 0.1,0 0,-0.1 0,0.1 0,1 0,0.1 0.1,1.6 0,0.1 0,0.1 0,0.1 0,0.1 0.1,0.1 0,-0.4 0,0.1 0,0.1 0,0.8 0.1,0.2 0,0.5 0,0.1 0,0.1 0,0.1 0.1,0.1 0,-1.5 0,0.1 0,0.1 0,0.1 0.1,0.1 0,0.1 0,0.1 0,0.1 0,0.1 0.1,1.5 0,0.1 0,0.1 0,0.1 0,0.1 0.1,0.1 0,0.1 0,0.1 0,0.1 0,0.1 0.1,0.1 0,0.5 0,0.1 0,0.2 0,0.7 0.1,0.1 0,0.1 0,0.1 0,0.1 0.1,0.1 0,0.1 0,0.1 0,0.1 0.1,0.1 0,0.1 0,0.1 0,0.1 0,0.1 0.1,0 0,-1.4 0,0.1 0,0.3 0,-0.5 0.1,0.1 0,0.1 0,0.1 0,0.1 0,0.1 0.1,-0.4 0,0.1 0,1.3 0,0.1 0.1,0.1 0,0.1 0,0.1 0,0.1 0.1,0 0,0.1 0,0.1 0,0.3 0.1,0.1 0,0.1 0,0.1 0,0.1 0.1,0.4 0,0.1 0,2.4 0,0.4 0.1,-1.1 0,-0.1 0.1,-0.2 0,-0.5 0.1,2 0,0.3 0.1,0 0,-0.1 0,1.3 0,0.2 0.1,0.3 0,-0.1 0.1,0 0,1 0,-0.1 0.1,0 0,-0.5 0,0.5 0,-0.1 0.1,-0.1 0,-0.1 0,1.1 0.1,-0.1 0,-0.2 0,-0.1 0,-0.9 0.1,-0.1 0,-0.1 0,-0.1 0.1,-0.1 0,-0.1 0,-0.1 0,0.1 0.1,0.7 0,-0.9 0,-0.4 0,-0.1 0.1,-0.1 0,-0.1 0,-0.1 0,-0.1 0.1,0 0,-0.3 0,-0.1 0,-2.4 0,-0.1 0,-0.1 0.1,0 0,-0.1 0,-0.1 0,-0.1 0.1,0.8 0,-0.1 0,-0.1 0,-0.5 0.1,-0.1 0,0.7 0,-0.1 0,-0.1 0,-0.1 0.1,-0.3 0,-0.1 0,2.1 0,0.2 0,-0.1 0.1,0 0,-0.1 0,-0.1 0,-0.1 0,0.2 0.1,-1.4 0,-0.1 0,-0.3 0,-0.1 0,0.1 0.1,-0.2 0,-0.1 0,-0.1 0,-0.1 0.1,1.5 0,-0.1 0,-0.1 0,0.9 0.1,-0.1 0,-0.1 0,-0.2 0,-0.1 0.1,0 0,0.1 0,-0.1 0,-0.1 0.1,0.4 0,-0.1 0,-0.3 0,-0.1 0,-0.1 0.1,-0.1 0,-0.1 0,-0.1 0,-0.1 0,-0.1 0.1,-0.1 0,-0.5 0,-0.1 0,1 0.1,-0.1 0,0.3 0,-0.1 0,-0.1 0.1,-0.1 0,-0.1 0,-0.1 0,-0.1 0,-0.1 0.1,-0.2 0,-2.8 0,-0.1 0,-0.2 0.1,-0.1 0,-0.1 0,-0.1 0,-0.1 0,-0.7 0.1,0 0,-1.3 0,0.6 0,-0.1 0,-0.1 0.1,0 0,-0.1 0,-0.2 0,-0.1 0,-0.1 0.1,0.5 0,-0.1 0,-0.1 0,-0.1 0.1,-0.1 0,-0.1 0,-0.1 0,-0.1 0,-0.1 0.1,0 0,-0.1 0,-0.4 0,-0.2 0.1,-0.1 0,-2.9 0,-0.1 0,-0.1 0,1.9 0.1,-0.1 0,-0.1 0,0.1 0,-0.1 0.1,-0.1 0,-0.1 0,-0.1 0,0.9 0,-0.1 0.1,0 0,-0.1 0,-0.1 0,-0.1 0,-0.1 0.1,0 0,-0.1 0,-0.1 0,-0.1 0,-0.1 0.1,-0.1 0,-0.1 0,-0.1 0,-0.1 0.1,-0.1 0,-0.1 0,-0.1 0,-0.1 0,-0.1 0.1,-0.1 0,-0.1 0,-0.1 0,-0.1 0,0.4 0.1,-1.1 0,-0.2 0,-0.1 0,-0.1 0,-0.1 0.1,-0.1 0,-0.1 0,-0.1 0,-0.1 0,-0.1 0.1,-0.1 0,-0.1 0,-0.1 0,-0.5 0,-0.1 0.1,-0.1 0,-0.1 0,-0.1 0,-0.1 0.1,-0.1 0,-0.4 0,0.3 0,-0.1 0,-0.1 0.1,-0.1 0,-0.1 0,-1.1 0,-0.1 0,-0.1 0.1,-0.1 0,-0.1 0,-0.1 0,-0.1 0.1,-0.1 0,-0.1 0,-0.1 0,-0.1 0,-0.1 0.1,-0.1 0,-0.1 0,-0.1 0,-0.1 0,-0.1 0.1,-0.1 0,-0.1 0,-0.1 0,-0.1 0.1,0.1 0,-0.1 0,0.7 0,-0.1 0,-0.1 0.1,-0.1 0,-0.7 0,-0.1 0,-0.1 0,0.3 0.1,-0.5 0,-0.1 0,-0.1 0,-0.1 0,-0.1 0.1,-0.3 0,-0.1 0,-0.1 0,-1.3 0.1,-0.7 0,0.2 0,-0.1 0,-0.1 0,0.6 0.1,-0.1 0,-0.1 0,-0.1 0,0.6 0.1,-0.1 0,-0.1 0,-0.1 0.1,-0.1 0,0.1 0,-0.1 0,1.3 0,-0.3 0.1,-0.1 0,-0.1 0,1.9 0,-0.1 0.1,0 0,-0.1 0,-0.1 0.1,0 0,-0.1 0,-0.1 0.1,0.1 0,-0.1 0,-0.1 0,0.7 0.1,-2.5 0,-0.1 0,0.2 0,-0.1 0.1,0 0,-0.1 0,0.1 0,-0.1 0.1,0.4 0,0.5 0,-0.1 0,0.2 0.1,0 0,2.5 0,0.3 0,-0.1 0.1,0 0,-0.1 0.1,0 0,-1 0.1,0.6 0,-0.7 0.1,0 0.1,0 0,1 0,1.3 0.1,0 0.1,0 0.1,0 0,0.2 0.1,0 0,-0.1 0.1,0 0,-1.7 0,-1.1 0,0.4 0.1,-1.6 0.1,0 0,-0.4 0,0.1 0.1,-1.1 0,0.1 0.1,0 0.1,0 0,0.1 0,0.4 0,-0.1 0.1,0 0,-0.8 0,-1.4 0.1,0.1 0,-0.3 0,0.6 0,0.1 0.1,0 0,0.1 0.1,1.9 0,0.4 0,-0.2 0.1,0 0,0.1 0.1,0 0,-0.6 0,0.3 0.1,0 0,0.1 0.1,0 0,0.1 0.1,2 0,0.1 0,0.1 0.1,0 0,0.1 0.1,0.1 0,0.1 0.1,0 0,0.1 0,-3.4 0,0.1 0.1,0 0,-0.6 0,0.1 0.1,0 0,0.1 0,0.1 0.1,0.1 0,0.1 0.1,0.1 0,-0.1 0,-0.8 0.1,0.1 0,0.1 0.1,0 0,0.1 0,0.1 0,-0.3 0.1,0 0,0.1 0.1,0.1 0,-0.8 0,0.1 0.1,0.1 0,1.2 0,0.1 0,0.1 0.1,-0.8 0,0.1 0,0.1 0.1,0 0,0.1 0,0.1 0.1,0.1 0,-2.1 0,0.1 0.1,0.1 0,0.1 0,0.3 0,0.1 0.1,-0.7 0,0.1 0,0.1 0.1,0.1 0,0.1 0,0.1 0.1,0.1 0,0.1 0,0.1 0.1,0.1 0,0.1 0,0.1 0.1,0.1 0,-0.3 0,0.8 0,0.1 0.1,0 0,0.1 0,0.1 0,0.7 0.1,0.1 0,0.1 0,0.1 0,0.4 0.1,0.1 0,0.1 0,-0.1 0.1,0 0,0.9 0,0.1 0.1,0.1 0,-0.1 0,0.1 0.1,1.2 0,0.1 0,0.1 0.1,0 0,0.1 0,0.1 0.1,0.1 0,0.1 0.1,-1.3 0,0.1 0,0.1 0.1,0 0,2 0.1,0.1 0,-0.5 0,0.1 0,0.7 0.1,0 0,0.1 0,0.9 0,-0.3 0,0.1 0.1,0 0,-1.8 0,0.1 0.1,0 0,-0.6 0.1,0 0.1,0.1 0,2.3 0,0.1 0.1,0 0.1,0 0,-2.9 0.1,-0.1 0.1,0 0,-0.1 0.1,0 0,-2.1 0,-0.1 0.1,0.7 0,-0.1 0.1,1.3 0,-0.1 0.1,-0.1 0,-0.1 0.1,0.1 0,-1.8 0,-0.1 0.1,0 0,0.1 0,1.4 0,-0.4 0.1,-0.1 0,-1.3 0,-0.1 0,2.1 0,-0.1 0.1,0 0,-0.1 0,-0.1 0.1,-0.1 0,-0.1 0,-0.1 0.1,0 0,1 0,-0.1 0.1,-0.1 0,0.9 0,-0.1 0,-0.1 0.1,0 0,-0.1 0,-0.1 0,-0.1 0.1,-0.6 0,-0.1 0,0.8 0,-0.1 0.1,-0.1 0,-0.1 0,0.8 0.1,-0.1 0,-0.1 0,-0.1 0.1,0 0,0.4 0,0.2 0.1,-0.1 0,-0.1 0,1 0.1,0 0,-0.1 0,-0.1 0.1,0 0,-0.1 0.1,-0.1 0,2.2 0.1,0 0,-0.1 0.1,0.7 0,-0.1 0.1,-0.2 0,0.2 0.1,0 0,0.4 0,1.2 0,-0.1 0.1,0 0,-0.9 0,-0.1 0.1,0 0,1.1 0,-0.2 0.1,0 0,-0.4 0.1,-0.1 0,-0.1 0,-0.2 0,-3.2 0.1,0 0,0.9 0.1,0 0,-1.2 0.1,0.1 0,1.3 0.1,0 0,0.1 0.1,0 0,0.5 0.1,0 0,0.1 0.1,0 0,-0.3 0,-0.9 0,0.1 0.1,0 0,0.1 0,0.1 0.1,0 0,-2.2 0,0.1 0.1,0 0,0.1 0.1,0.1 0,-0.3 0.1,0.1 0,-0.6 0,0.1 0.1,0.5 0,0.1 0,-0.7 0,0.1 0.1,0.7 0,0.1 0.1,0.1 0,0.1 0,0.1 0.1,0 0,1.2 0,0.1 0,-2.1 0.1,0 0,0.1 0,0.1 0,0.1 0.1,0 0,0.2 0,0.1 0,0.1 0,-0.1 0.1,0 0,0.1 0,0.1 0,0.1 0.1,-0.4 0,0.1 0,0.1 0,0.1 0.1,0 0,-0.2 0,0.1 0,0.1 0,-0.2 0.1,0.1 0,0.1 0,0.1 0,0.1 0.1,0.1 0,0.2 0,0.1 0.1,-0.4 0,0.1 0,0.1 0,-0.9 0.1,0.1 0,0.1 0,0.1 0,0.1 0.1,0.1 0,0.1 0,0.1 0,0.1 0.1,0.1 0,0.1 0,-1.8 0,0.1 0,0.6 0.1,-2.6 0,0.1 0,0.1 0,0.1 0,0.1 0.1,0.1 0,0.1 0,0.1 0,0.8 0.1,0.1 0,-0.9 0,1.4 0,0.7 0,0.1 0.1,1 0,1.3 0,0.1 0,0.1 0,-0.7 0.1,1 0,0.1 0,0.1 0,0.1 0.1,0 0,0.1 0,1.1 0,0.1 0.1,0.7 0,-0.1 0,0.1 0,0.3 0.1,0.1 0,-0.3 0.1,0.1 0,0.1 0.1,0.1 0,-0.1 0,0.1 0.1,-1 0,0.1 0.1,0 0,0.1 0,-0.9 0,0.1 0.1,0 0,-0.2 0,0.1 0,0.4 0,1.4 0.1,-0.3 0,0.1 0.1,0 0,0.4 0.1,0 0,-0.7 0,-0.3 0.1,2.2 0,-1 0,-1.9 0,-0.3 0.1,-0.6 0,-1.7 0.1,0 0,-0.7 0.1,-0.1 0,-2.2 0,-1.9 0.1,0 0.1,0 0,0.7 0.1,0 0,-1.3 0,0.2 0.1,0 0,-0.7 0.1,0.1 0.1,0 0.1,-1.4 0,1.1 0.1,0 0,-0.2 0,0.1 0,-1.2 0.1,0 0.1,0 0,0.6 0.1,-2.7 0,2.9 0,1.4 0.1,0 0,0.1 0,0.1 0.1,0 0,0.1 0,-0.1 0.1,0.9 0,0.1 0.1,0.1 0,0.4 0,0.2 0.1,-0.2 0,0.1 0.1,0.1 0,0.1 0.1,0 0,0.1 0.1,0 0,-1.2 0,-0.7 0.1,0.1 0.1,0.1 0.1,0 0,0.1 0.1,0 0,0.6 0.1,0 0,0.1 0.1,0.2 0,0.1 0.1,0 0,-1.6 0,0.7 0.1,0 0.1,0.1 0,0.5 0.1,0 0,0.4 0,-0.5 0.1,0 0,-1.8 0.1,0.5 0,0.6 0,0.1 0.1,0 0,-0.1 0,0.1 0.1,0 0,-2.7 0,-0.2 0.1,0 0,-2.2 0.1,-0.1 0.1,-0.3 0,1.3 0,-0.1 0.1,0 0,-0.1 0,0.6 0.1,-0.1 0.1,0 0,-0.1 0.1,-0.1 0,0.3 0.1,0 0,-0.1 0.1,-0.1 0,-0.1 0.1,0 0,-0.1 0,1 0,-0.1 0.1,0 0,-0.1 0,-0.1 0.1,0 0,0.6 0,-0.1 0.1,-0.1 0,-1.5 0,-0.1 0.1,-0.1 0,0.4 0.1,-0.1 0,-0.1 0.1,-0.1 0,-0.5 0.1,-0.1 0,-0.1 0.1,-0.1 0,-0.1 0.1,-0.1 0,-0.1 0.1,-0.1 0,-0.1 0.1,-0.1 0,-0.1 0.1,0 0,-0.1 0,-0.9 0.1,-0.1 0,-0.1 0,-0.899995 0.1,0 0,-0.1 0,-0.1 0.1,1.199995 0,-0.1 0,-1.099995 0.1,-0.1 0,0.4 0,-0.1 0,-1.2 0.1,-0.1 0,-3 0,-0.1 0,-0.1 0.1,0 0,1.3 0,0.1 0,-1.7 0.1,0 0,-0.1 0,-0.1 0.1,-0.1 0,-0.8 0,0.4 0.1,0 0,-0.1 0,-0.1 0.1,0 0,2.1 0,-0.1 0,1.8 0,-0.1 0.1,0 0,-0.1 0,-0.8 0.1,0 0,0.2 0,2.6 0,-0.1 0.1,0 0,-0.1 0.1,0 0,-0.6 0,-0.1 0,0.1 0.1,0 0,-0.1 0,-0.3 0,-0.1 0.1,0 0,1.1 0.1,0 0.1,0 0,1.799995 0.1,-0.4 0.1,0 0.1,1.3 0,0.4 0.1,0 0,0.1 0.1,0 0.1,0 0.1,0.1 0,-1.4 0.1,0 0,0.1 0,-0.9 0,0.1 0.1,0 0,0.1 0,-1.699995 0.1,0 0,0.2 0,0.1 0.1,-1.4 0,-0.8 0,0.1 0.1,-0.6 0,0.1 0.1,0.1 0,0.1 0,0.1 0.1,0 0,0.1 0,0.1 0.1,0 0,0.1 0,0.1 0.1,0 0,0.1 0,0.1 0.1,0 0,0.1 0,-0.4 0,-1.6 0.1,0 0,0.1 0,0.1 0,0.1 0.1,0.1 0,1.8 0,0.1 0.1,0.1 0,0.1 0,0.4 0.1,0 0,0.1 0,0.1 0,0.8 0.1,-0.1 0,0.1 0,0.1 0.1,0 0,-0.3 0,0.1 0,0.5 0.1,0 0,0.1 0,1.699995 0,0.1 0.1,0 0,0.1 0.1,0 0,0.1 0.1,0 0,-0.4 0,-1.499995 0,0.1 0.1,0 0,-0.499995 0,0.899995 0,1.6 0.1,0 0,0.1 0,-0.9 0.1,0.1 0,0.9 0,0.1 0.1,0.7 0,0.2 0,-0.8 0.1,0.1 0,0.3 0.1,-0.1 0,0.1 0,-1.7 0.1,0.1 0,0.1 0,0.1 0.1,0 0,1.7 0,0.1 0.1,0.1 0,-2.5 0,-0.6 0.1,0.3 0,0.1 0.1,0.1 0,0.1 0.1,0 0,0.1 0,0.1 0.1,1.1 0,-1.7 0.1,-1.499995 0,-1.3 0,0.1 0,0.1 0.1,0 0,0.1 0,-0.9 0,0.1 0.1,0 0,0.1 0,0.3 0.1,0 0,0.1 0,0.1 0.1,0.1 0,0.1 0.1,0.1 0,0.1 0,1.5 0,0.1 0.1,0 0,0.1 0,0.1 0.1,0 0,0.1 0,0.1 0,-0.999995 0.1,0.999995 0,0.1 0.1,0.4 0,0.1 0,0.1 0,-1.299995 0.1,0 0,0.1 0,-0.7 0.1,0 0,-0.6 0,0.1 0.1,0 0,0.1 0,0.1 0.1,0 0,0.1 0,-0.7 0,0.8 0.1,0 0,0.1 0.1,0 0,0.1 0,0.6 0.1,0.1 0,0.499995 0,0.1 0.1,0 0,0.1 0,-0.1 0.1,0.1 0,-1.599995 0.1,0 0,0.1 0.1,0 0,0.1 0.1,0 0,0.1 0.1,0.2 0,0.899995 0.1,0 0,0.1 0,-1.299995 0.1,0 0,-0.4 0.1,0 0,0.3 0.1,0 0,-0.8 0.1,0.1 0,0.3 0,0.9 0.1,-0.6 0,1.199995 0,0.1 0.1,0 0,0.1 0,-0.399995 0.1,0.1 0,-0.2 0,0.1 0.1,0 0,-0.5 0,0.1 0.1,-0.7 0,0.6 0,-0.1 0.1,0.1 0,-0.7 0,0.1 0.1,0.1 0,0.1 0,0.1 0.1,0.1 0,0.1 0,0.1 0.1,1.199995 0,0.1 0,-1.099995 0,0.599995 0.1,0.1 0,0.1 0,0.1 0.1,-0.799995 0,-2 0,0.1 0.1,0 0,0.1 0,2.199995 0,0.1 0.1,-0.299995 0,-0.3 0,0.1 0.1,0.1 0,-0.7 0,0.1 0.1,0.1 0,0.1 0,1.699995 0.1,0.1 0,0.1 0,0.1 0.1,0.1 0,0.1 0,0.1 0,0.1 0.1,0 0,0.1 0,-2.799995 0,0.6 0,0.1 0.1,0 0,0.1 0,0.1 0.1,-0.3 0,0.1 0,-0.6 0,0.1 0,0.1 0.1,0 0,0.1 0,0.1 0,1.599995 0.1,0 0,0.5 0,2.5 0,0.1 0,-0.2 0.1,0.1 0,0.1 0,0.1 0,-0.3 0.1,0.1 0,0.1 0,0.1 0,0.1 0.1,0.1 0,1.2 0,0.1 0,2 0,0.1 0.1,0.1 0,0.1 0,0.1 0,0.1 0.1,0.1 0,0.1 0,0.1 0,0.1 0,0.1 0.1,0.1 0,0.1 0,0.1 0,0.1 0,0.1 0.1,0.1 0,0.1 0,0.1 0,0.1 0.1,0.1 0,0.1 0,1.9 0,0.1 0,-0.3 0.1,0.1 0,0.1 0,1.4 0,0.1 0,-1.1 0.1,0.1 0,0.1 0,0.1 0,0.1 0,0.1 0.1,0.1 0,0.1 0,0.1 0,0.1 0,0.9 0.1,0.1 0,0.1 0,0.2 0,0.1 0,0.1 0.1,0.1 0,0.1 0,0.1 0,0.1 0,0.1 0.1,0.1 0,0.1 0,0.1 0,0.1 0,-0.7 0.1,0.1 0,0.2 0,0.1 0,0.1 0,0.1 0.1,0.1 0,0.1 0,0.1 0,0.1 0,0.1 0.1,0.1 0,0.4 0,0.1 0,0.1 0,0.1 0.1,0.1 0,0.1 0,0.5 0,0.1 0,1.2 0.1,0.5 0,0.8 0,-0.4 0,0.1 0,0.1 0.1,0.1 0,0.1 0,-0.4 0,0.1 0,0.1 0.1,0.1 0,0.1 0,0.1 0,-1 0,0.1 0.1,0.6 0,0.1 0,0.1 0,0.1 0,0.1 0.1,0.1 0,-0.5 0,0.1 0,0.1 0,-5.3 0.1,0.1 0,0.1 0,0.1 0,-0.6 0,0.1 0.1,-0.6 0,0.1 0,0.1 0,1.6 0.1,0.1 0,0.1 0,-1 0,0.1 0,0.1 0.1,0.8 0,0.1 0,0.7 0,3.2 0.1,-2 0,0.1 0,0.1 0,0.1 0.1,0.1 0,0.1 0,-0.4 0,0.1 0,0.1 0.1,0.1 0,0.1 0,0.1 0,0.1 0,-0.6 0.1,-0.4 0,0.1 0,0.1 0,0.1 0.1,-0.1 0,-1.6 0,0.3 0.1,0 0,0.1 0,0.1 0.1,0.4 0,0.1 0.1,0 0,0.1 0.1,0 0,0.1 0.1,0 0,-0.6 0,1.7 0.1,0 0,0.1 0.1,0 0,0.2 0,0.1 0.1,0.1 0,0.1 0.1,0 0,0.7 0.1,0 0,-1.3 0.1,-0.2 0,0.1 0,0.6 0.1,1.1 0,-0.1 0,0.1 0,-0.5 0.1,0 0.1,0 0,0.1 0,-0.1 0,1.3 0.1,-1.8 0.1,0 0.1,0 0,-0.1 0.1,-0.1 0,0.7 0.1,-0.4 0,-0.1 0.1,0 0,-0.1 0,-0.1 0.1,0 0,-0.1 0,-0.1 0.1,0 0,0.6 0,-0.1 0.1,0 0,-0.1 0,-0.1 0.1,0 0,-0.9 0,0.8 0,-1.9 0,-0.1 0.1,0 0,-0.1 0.1,-0.1 0,-0.1 0.1,-0.1 0,-0.1 0.1,-0.1 0,-0.1 0,-0.1 0.1,0 0,-0.6 0,0.5 0,-0.1 0.1,-0.1 0,-0.1 0.1,0 0,-0.1 0,-0.3 0.1,-0.1 0,-1.5 0,-0.1 0,0.6 0,-0.1 0.1,0 0,-0.2 0,-0.1 0,-0.1 0.1,1 0,-0.1 0,-1.5 0,-0.1 0.1,0.2 0,-0.5 0,-0.2 0,-0.6 0.1,-0.1 0,0.2 0.1,0 0,-0.1 0,-1.4 0,0.1 0.1,0 0,-0.8 0,0.3 0,-0.1 0.1,0 0,-0.2 0,-0.1 0.1,0 0,-0.1 0,0.3 0,0.7 0,-0.1 0.1,0 0,0.6 0,-0.1 0.1,-0.1 0,-0.1 0.1,0 0,-0.1 0,-3.3 0,2.3 0.1,0 0,0.8 0,-0.3 0,-0.1 0.1,-0.1 0,-0.1 0,-0.1 0.1,-0.1 0,0.3 0,-0.1 0.1,0 0,-0.7 0,-0.1 0,4.3 0,0.4 0.1,-0.1 0,-0.1 0,-0.1 0.1,-0.1 0,-0.1 0,-0.1 0.1,-0.1 0,-0.1 0,-0.1 0,-0.1 0.1,0 0,-0.1 0,1.4 0,-0.1 0.1,-0.1 0,-0.1 0,-0.1 0,-0.1 0.1,-0.1 0,3.7 0,-0.1 0,-0.2 0,-0.1 0.1,3 0,-0.1 0.1,-0.1 0,-0.1 0,-0.3 0,0.7 0.1,-0.1 0,-0.1 0,-0.1 0,-0.1 0,-0.1 0.1,-0.5 0,-0.1 0,1.3 0,-0.1 0,-0.1 0.1,-0.1 0,-0.1 0,-0.1 0,-0.1 0.1,-0.1 0,-0.8 0,0.3 0,0.3 0,2.8 0.1,-0.1 0,-0.1 0,-0.1 0,-0.1 0.1,-0.1 0,-0.1 0,-0.1 0,-0.1 0,-0.1 0.1,-0.1 0,-0.1 0,-0.1 0,-0.3 0,-0.1 0.1,-0.3 0,-1.3 0,-0.1 0,-0.1 0,-0.1 0.1,-0.1 0,-0.1 0,-0.1 0,-0.4 0.1,-0.1 0,-0.1 0,-0.1 0,-0.1 0,-0.2 0.1,-0.1 0,-0.1 0,1.6 0.1,1.5 0,-0.1 0,-0.1 0,-0.1 0,-0.1 0.1,-0.1 0,-0.3 0,-1.1 0,-0.1 0,-0.3 0.1,0.3 0,0.4 0,-0.1 0,-0.1 0,-0.1 0.1,-1.3 0,-0.1 0,-0.2 0,-0.1 0,-0.1 0.1,-0.5 0,-0.3 0,-0.1 0,-0.2 0,-0.1 0.1,-0.1 0,-0.2 0,-0.1 0,-0.2 0,-0.1 0.1,-0.2 0,-0.1 0,-0.2 0,-0.1 0,-0.2 0.1,-0.1 0,-0.2 0,-0.1 0,-0.3 0,-0.2 0.1,-0.1 0,-0.2 0,-0.1 0,-0.2 0,-1.2 0.1,-0.2 0,-0.1 0,-0.2 0,-0.1 0,-0.1 0.1,-0.2 0,-0.1 0,-0.2 0,-0.1 0,-0.1 0.1,-0.2 0,-0.1 0,-0.2 0,1.4 0,-0.1 0.1,-0.2 0,-0.1 0,-0.1 0,-0.1 0,-0.2 0.1,-0.1 0,-0.1 0,-0.2 0,-0.1 0,-0.1 0.1,2.1 0,-0.1 0,-0.2 0,-0.1 0,-0.1 0.1,-0.1 0,-0.2 0,-0.4 0,0.2 0,-0.1 0.1,-0.2 0,-0.1 0,-0.1 0,-0.1 0,-0.1 0.1,-0.6 0,-0.1 0,-0.1 0,-0.7 0,-0.1 0.1,-0.1 0,-0.2 0,-0.1 0,-0.1 0,-0.1 0.1,-0.1 0,-0.1 0,-0.9 0,-0.1 0,-1.1 0.1,0.1 0,-0.1 0,0.7 0,-0.1 0.1,-0.6 0,-0.1 0,-1 0,-0.1 0.1,-0.1 0,-0.5 0,-0.1 0,-1.7 0.1,0.3 0,-0.1 0,-0.1 0,-0.1 0.1,0 0,2.9 0,-0.1 0.1,-0.1 0,-0.1 0,-0.5 0.1,0 0,1.5 0,-0.1 0,-1.2 0.1,-0.6 0,-0.1 0,0.5 0,0.6 0.1,-0.5 0,-0.1 0.1,0 0,1.1 0.1,2.1 0,-0.2 0.1,0 0.1,0 0,0.1 0,1.1 0.1,0 0.1,0.1 0,0.1 0,-0.2 0.1,0 0,0.1 0,1.3 0.1,0 0,0.1 0,0.1 0,0.1 0.1,-0.6 0,1.6 0,0.1 0,-1.3 0.1,0.1 0,0.1 0,-0.3 0,0.7 0.1,-0.3 0,-0.6 0,0.6 0,0.1 0,-2.3 0.1,0.1 0,0.1 0,0.1 0,0.8 0,0.1 0.1,0.1 0,0.1 0,0.1 0,0.1 0,-1.4 0.1,0.1 0,-0.2 0,0.1 0,0.1 0.1,0.1 0,0.1 0,0.1 0,0.1 0,0.1 0.1,0.1 0,0.1 0,0.1 0,0.1 0.1,0.1 0,0.1 0,0.1 0,0.1 0,0.1 0.1,0.1 0,0.1 0,0.1 0,1.1 0,0.1 0.1,0.2 0,-1.1 0,0.1 0,0.1 0,0.1 0.1,0.1 0,0.1 0,0.1 0,1.5 0,0.1 0.1,0.1 0,0.3 0,1.1 0,0.1 0,0.6 0.1,0.1 0,0.1 0,-1.6 0,0.1 0,0.4 0.1,0.1 0,0.1 0,-1.9 0,0.1 0,0.1 0.1,0.1 0,0.6 0,0.6 0,0.2 0,0.1 0.1,0.9 0,0.1 0,0.1 0,-0.5 0,0.1 0.1,0.1 0,0.3 0,-0.5 0,0.1 0,0.1 0.1,0.1 0,0.1 0,-0.3 0,0.4 0,0.1 0.1,0.1 0,-1.4 0,0.1 0,0.1 0,0.1 0.1,0.1 0,0.1 0,0.8 0,0.1 0,-0.5 0.1,0.1 0,0.1 0,0.1 0,0.7 0.1,-4.1 0,0.1 0,0.1 0,0.6 0.1,0.1 0,0.1 0,0.2 0.1,0.1 0,0.1 0,0.1 0,4.7 0.1,0.1 0,0.1 0,-1.4 0,0.1 0.1,0 0,0.8 0,0.1 0,0.1 0.1,0.3 0,0.1 0,0.1 0.1,0 0,0.1 0,0.1 0,0.1 0.1,0 0,0.1 0,2.1 0.1,1.8 0,0.1 0,0.5 0,-3.5 0.1,0.1 0,0.1 0,-2 0,-0.1 0.1,-0.6 0,0.1 0,0.1 0.1,0 0,0.1 0,0.1 0,0.1 0.1,0 0,0.1 0,0.1 0,-0.8 0.1,0.3 0,0.1 0,0.9 0,0.1 0,0.1 0.1,-0.1 0,0.1 0,0.1 0,0.1 0.1,0 0,0.1 0,-0.9 0,0.1 0.1,0 0,0.1 0,0.1 0,0.1 0.1,0 0,0.1 0,0.1 0,0.1 0.1,0 0,0.1 0,0.1 0.1,0.1 0,0.1 0,1 0,0.1 0.1,0.3 0,-0.8 0,0.1 0,0.1 0.1,0.1 0,0.1 0,0.1 0.1,1 0,-0.2 0,0.1 0.1,0.1 0,0.1 0,0.1 0,0.1 0.1,-0.2 0,-0.3 0,-1.5 0,0.1 0.1,0.1 0,-0.5 0,0.1 0.1,0.1 0,0.1 0,0.1 0.1,0 0,0.1 0,0.1 0.1,-0.4 0,0.1 0,-1.2 0,0.1 0.1,0 0,0.5 0,0.1 0.1,-0.6 0,0.9 0,0.1 0,0.1 0.1,0 0,-1.6 0,-0.3 0,0.1 0.1,0 0,0.6 0,0.1 0.1,0 0,0.1 0,0.6 0.1,-0.9 0,0.1 0,0.1 0.1,0 0,0.1 0,-0.5 0.1,0.1 0,0.1 0.1,0 0,0.1 0.1,0 0,0.1 0,0.1 0.1,0 0,0.1 0.1,0 0,0.1 0.1,0.1 0,-0.2 0,0.1 0.1,-0.1 0,-1.3 0,0.1 0.1,0 0,0.1 0,-0.6 0.1,0 0,-0.4 0,0.1 0.1,0.1 0,0.1 0,0.1 0.1,0 0,0.1 0,0.1 0,1 0.1,0.1 0,0.1 0,0.1 0.1,0 0,0.1 0,-2.8 0,0.1 0.1,-1.2 0,0.1 0,-0.9 0,0.1 0.1,0 0,0.3 0,-0.4 0,0.1 0.1,0.1 0,0.6 0,-0.5 0.1,0 0,0.1 0,0.9 0,0.1 0.1,0.1 0,0.1 0,0.1 0,0.8 0.1,0.1 0,-1.3 0,0.1 0.1,0 0,0.1 0,-0.3 0,0.1 0.1,0 0,0.1 0,0.1 0.1,0 0,1.4 0.1,0 0,0.5 0,0.1 0.1,0 0,0.5 0.1,0.1 0,-0.7 0,0.1 0.1,0 0,0.2 0,1.8 0.1,0.5 0.1,0 0,0.3 0,-1.5 0,-1 0.1,0 0,-0.4 0.1,-0.1 0,1.9 0,1 0,-0.1 0.1,0 0,-1.2 0,-0.1 0.1,0 0,-0.1 0.1,0 0,-1.7 0,0.8 0.1,0 0,-0.1 0.1,0 0,-0.1 0.1,0 0,-0.1 0,-0.1 0.1,0 0,-0.1 0,-0.1 0.1,0 0,-0.1 0,-0.1 0.1,0 0,-0.3 0,-0.1 0.1,0 0,-0.1 0,-0.1 0,-0.8 0.1,-0.1 0,0.3 0,-0.2 0,-0.1 0.1,0 0,-0.1 0,-0.1 0.1,0.1 0,-0.1 0,-0.3 0,-0.1 0.1,0.1 0,-0.1 0,-0.1 0.1,-0.1 0,0.4 0,-0.1 0.1,0 0,-0.1 0,-0.1 0.1,-0.6 0,-1.7 0,-0.1 0,-0.4 0,-0.1 0.1,-0.1 0,-0.1 0,-0.1 0.1,0.5 0,-0.1 0,-0.1 0.1,0 0,-0.1 0.1,-0.1 0,-0.8 0,-0.1 0.1,0 0,-0.1 0,-1.5 0.1,1.6 0,-0.1 0.1,-0.1 0,-0.9 0,-0.1 0.1,-1.1 0,-0.1 0.1,0.8 0,-0.6 0,-2 0.1,0 0,-0.1 0,1.4 0.1,-0.1 0,0.1 0,-0.1 0.1,-0.1 0,-0.1 0.1,-0.1 0,-0.1 0,0.2 0.1,-0.1 0,-1.6 0,1.2 0,-0.1 0.1,0 0,0.6 0,-0.1 0.1,0 0,-0.1 0,1.4 0.1,-0.1 0,-0.1 0,0.7 0.1,-0.1 0,-1 0,-0.1 0.1,-0.1 0,-0.1 0.1,0 0,-1.9 0,-0.1 0.1,-0.1 0,-0.1 0,-0.5 0.1,0 0,0.1 0,-0.1 0.1,0 0,-0.1 0.1,0 0,1.8 0,0.2 0,-0.1 0.1,0 0.1,0 0,0.4 0.1,0 0.1,0 0,0.1 0,-0.2 0.1,-0.3 0,0.1 0,-0.8 0,0.1 0.1,0 0,0.4 0,0.1 0.1,0 0,0.1 0,-0.8 0.1,0.1 0,0.1 0.1,0.1 0,0.1 0.1,0 0,0.1 0,-0.2 0.1,0.1 0,0.1 0,-0.5 0.1,0.8 0,0.1 0,0.7 0,0.1 0.1,0 0,0.1 0,0.1 0,0.1 0.1,0 0,0.1 0,3.1 0,0.1 0.1,0 0,0.1 0,0.5 0,0.1 0,0.1 0.1,1.4 0,0.4 0,0.1 0,2.2 0,0.1 0.1,0 0,0.1 0,0.1 0,0.1 0.1,0.1 0,0.1 0,0.7 0.1,0.1 0,0.1 0,0.1 0.1,0.1 0,0.1 0,2.2 0,0.1 0.1,0.1 0,0.1 0,0.8 0,0.1 0.1,0 0,-0.6 0,0.1 0,0.1 0.1,0.1 0,0.1 0,0.1 0.1,0.1 0,0.1 0,0.1 0.1,0.1 0,0.1 0,-0.9 0,0.1 0.1,0.1 0,0.1 0,-1.7 0.1,0.1 0,0.1 0,-0.5 0.1,0.1 0,0.1 0.1,0.1 0,-1.1 0,0.2 0,-0.9 0.1,0.3 0,1 0,0.1 0,0.1 0.1,0 0,0.1 0,0.1 0.1,0.1 0,1.3 0,0.1 0,0.1 0.1,2.4 0,-2 0,1.3 0,1.2 0.1,0 0,0.1 0,0.1 0.1,0 0,0.1 0,-0.3 0,-0.9 0.1,0 0,0.1 0,0.2 0.1,0.1 0,1.1 0.1,0.1 0,-0.2 0,-0.8 0.1,0 0.1,0 0,-1 0,0.1 0.1,-0.3 0,0.4 0,-0.3 0,-1 0,-3.5 0.1,0 0,-1 0.1,0 0.1,0 0,-0.6 0.1,0 0.1,-0.1 0,1.2 0.1,0 0,-0.5 0.1,0.4 0,2.4 0.1,-1.2 0,0.5 0,-0.1 0.1,-0.1 0,-1 0,-0.1 0.1,0 0,0.6 0,-0.1 0.1,-0.1 0,-0.1 0,-0.2 0.1,0 0,-0.1 0,-0.1 0,-0.2 0.1,0 0,-0.1 0,-0.4 0.1,-0.1 0,-0.1 0.1,0 0,-0.1 0.1,0 0,-0.1 0.1,-1.3 0,-0.1 0.1,0 0,-0.1 0.1,0 0,-0.1 0,1.9 0.1,0 0,0.9 0.1,0 0,0.5 0.1,0 0.1,0 0.1,0 0,-0.1 0,0.1 0,-0.5 0.1,0 0.1,0 0,-0.2 0.1,0 0,-1.8 0.1,0 0,-1.3 0.1,0 0,0.1 0.1,0 0,-0.9 0.1,0 0.1,0 0,-0.1 0.1,0 0.1,0 0,-0.1 0,0.7 0.1,0 0,1.3 0,-0.1 0,0.4 0.1,-0.1 0,-0.1 0.1,0 0,-0.1 0.1,-0.5 0,-0.1 0,-0.1 0.1,0 0,-0.1 0,-0.1 0.1,-1.2 0,-0.1 0,-0.1 0.1,-0.1 0,1 0,-0.1 0,-0.1 0.1,0 0,-0.1 0,-0.1 0,-0.1 0.1,0 0,-0.1 0,-0.1 0,-0.5 0.1,-0.1 0,-1.1 0,-0.1 0,-0.1 0.1,-1.5 0,-0.4 0,-0.1 0,-0.1 0.1,0 0,-0.1 0,-0.1 0,0.6 0.1,0.5 0,-0.1 0,-0.2 0.1,0 0,-1.6 0,-0.5 0,-1 0.1,0 0,-0.1 0,-0.3 0,-0.1 0,0.1 0.1,0 0,-0.6 0,-0.1 0.1,-0.1 0,0.4 0,1.8 0.1,1.6 0,-0.2 0,-0.1 0,-0.1 0.1,-0.5 0,0.1 0,-0.1 0.1,0 0,-0.1 0,-0.1 0,-0.1 0.1,0 0,-0.1 0,-0.2 0,-0.1 0.1,0 0,-0.1 0.1,-0.1 0,-1.5 0,0.5 0,-1.3 0.1,0 0,-0.1 0,-0.1 0.1,0 0,-0.5 0,-0.6 0.1,0 0,-0.1 0.1,0 0,-0.1 0,1.3 0.1,-1 0,-0.1 0.1,1.1 0,-0.3 0,0.1 0.1,-0.1 0,-0.6 0.1,-0.1 0,-1.5 0,-1.9 0.1,-1.399995 0,-0.2 0.1,0 0,-0.9 0.1,0.7 0.1,-1.1 0,-0.4 0,1.1 0.1,0 0.1,0 0.1,0 0,-1.5 0.1,0 0.1,0 0,-0.1 0.1,0 0,0.4 0.1,0 0.1,0 0.1,0 0.1,0 0,-0.2 0.1,0 0.1,0 0,-0.7 0.1,1.4 0,0.1 0.1,0.1 0,0.2 0.1,0 0,0.1 0.1,0 0,-0.5 0,2.6 0.1,1.299995 0,0.4 0,-0.2 0.1,0 0,0.1 0.1,0.4 0,0.7 0.1,0 0,0.1 0.1,0 0,0.1 0,-1.1 0.1,0 0,0.7 0,-1.4 0.1,0 0.1,0.1 0,-1.199995 0.1,0 0.1,0.1 0.1,0 0,0.1 0,1.899995 0.1,0 0,0.1 0,-1.2 0,0.4 0.1,0 0,1 0,-1.2 0.1,0 0.1,0 0,0.1 0.1,0 0,0.1 0.1,0 0,0.1 0.1,0 0,-0.4 0,0.1 0.1,-0.1 0,0.1 0.1,-0.5 0,-0.999995 0,0.1 0.1,0 0,-0.3 0,0.1 0.1,-0.8 0,-1.6 0,0.6 0.1,0 0,0.1 0.1,0 0,0.2 0,0.1 0,0.1 0.1,0 0,0.1 0,1.5 0.1,0 0,0.1 0,-1.6 0,0.1 0.1,-0.5 0,0.6 0,-0.6 0,-0.4 0.1,0.1 0,-0.4 0,0.1 0.1,0.1 0,0.1 0,0.1 0.1,0 0,0.9 0,-0.2 0,0.4 0.1,0.1 0,1.599995 0,-0.699995 0.1,0.1 0,0.1 0,0.1 0.1,0.1 0,0.1 0,1 0.1,0.7 0,0.1 0,0.3 0.1,-1.6 0,0.1 0,0.1 0,0.1 0.1,0 0,0.1 0,0.9 0,-0.6 0.1,0.1 0,0.1 0,0.1 0,0.1 0.1,0 0,0.1 0,-0.4 0,-1.1 0,0.1 0.1,0 0,0.1 0,0.1 0,0.1 0.1,-0.5 0,1.9 0,0.1 0,0.1 0.1,0.1 0,0.1 0,0.1 0,-2 0,0.1 0.1,0 0,0.1 0,0.1 0,0.8 0.1,0.1 0,3.1 0,0.1 0,0.1 0.1,0.1 0,0.1 0,0.1 0.1,0.1 0,0.1 0,0.1 0,0.1 0.1,0.1 0,0.1 0,0.1 0,0.1 0,0.1 0.1,0.1 0,0.1 0,0.1 0,-2 0,0.1 0.1,0.1 0,0.1 0,0.1 0,0.1 0,0.7 0.1,0.1 0,0.3 0,0.4 0,0.1 0,0.1 0.1,0.1 0,0.1 0,0.1 0,0.1 0.1,0.1 0,-0.4 0,0.1 0,0.1 0,0.1 0.1,-0.8 0,0.1 0,0.1 0,0.1 0.1,0.1 0,0.1 0,0.1 0,-0.3 0.1,-0.5 0,0.1 0,0.1 0,0.1 0.1,0.1 0,0.2 0,-0.7 0,-1.8 0.1,-0.6 0,2.4 0,0.1 0,0.8 0.1,0 0,0.6 0,-0.4 0.1,0.1 0,0.1 0.1,0 0,0.5 0.1,0 0,-0.6 0,-1.6 0.1,0 0,-0.6 0.1,-1 0,-0.1 0.1,1 0.1,0.8 0,-0.1 0.1,0 0,-0.1 0,0.1 0.1,0 0,-0.1 0,0.9 0.1,-0.1 0,0.6 0.1,0 0,-0.9 0.1,0 0,-0.1 0.1,-0.1 0.1,0 0,-0.1 0,-0.5 0.1,0 0,0.4 0,-0.1 0.1,-0.1 0,-0.1 0.1,0.2 0,-0.1 0,-0.1 0.1,0 0,-0.1 0,-0.1 0.1,0.4 0,-0.1 0,-0.1 0,0.1 0.1,0 0,-1.4 0,-0.1 0,-1.5 0,-0.1 0.1,0 0,-0.1 0,-0.2 0,-0.1 0.1,0 0,-0.1 0,-0.1 0,-0.1 0.1,-0.1 0,0.1 0,-0.1 0.1,0 0,-0.1 0,-0.2 0,1 0.1,-0.1 0,-0.1 0,-0.1 0.1,0 0,-0.1 0,-0.1 0.1,0 0,-0.1 0,-0.1 0.1,0 0,-0.1 0,-0.1 0.1,0 0,-0.1 0,-0.1 0,0.4 0.1,-0.1 0,-0.1 0.1,-0.1 0,-0.1 0.1,0 0,-0.1 0,-0.1 0.1,0 0,-0.999995 0.1,-0.1 0,-0.2 0,-0.9 0.1,0 0,0.8 0,1.799995 0.1,0.6 0,1.2 0,-0.1 0.1,0 0,-0.1 0.1,0 0,-0.1 0.1,0 0,-0.4 0,-0.7 0.1,0 0,1.3 0.1,-0.1 0.1,0 0,-0.2 0.1,-0.8 0,0.5 0,-2.799995 0.1,0 0,-0.1 0.1,0 0,0.699995 0.1,0 0,-0.1 0.1,-2.099995 0,-0.1 0.1,0 0,-2.4 0,-0.1 0.1,0 0,-1.1 0.1,0 0,-0.1 0.1,0 0,-0.4 0.1,-0.3 0,-0.6 0,-0.1 0.1,0 0,0.3 0.1,0 0,-0.4 0.1,-0.1 0.1,0 0,1 0.1,0 0,-0.1 0.1,0.8 0,-0.1 0.1,0 0,-0.1 0.1,0 0,-0.1 0.1,0 0,-0.1 0,0.9 0,0.2 0.1,0 0,-0.5 0.1,-0.1 0,-0.2 0,-0.1 0.1,0 0,-0.3 0,0.4 0.1,0 0,-2.2 0.1,0 0,-0.3 0,-0.1 0.1,0 0,-0.1 0.1,0 0,-0.1 0.1,0 0,0.3 0.1,0 0,-0.1 0,0.6 0.1,-0.1 0,0.5 0,-0.1 0.1,-2.2 0,-0.1 0.1,0 0,-0.1 0.1,-0.1 0,-0.1 0.1,0 0,-1.3 0,-0.1 0.1,-2.5 0,-0.1 0.1,0 0,0.4 0.1,0 0,0.7 0,-0.8 0.1,0 0,0.3 0,1.4 0.1,0.6 0.1,0 0,-1 0.1,0 0,0.2 0,0.1 0.1,0.1 0,-0.4 0.1,0 0,0.1 0.1,0 0.1,0 0,0.1 0.1,0 0.1,0 0,0.1 0.1,0 0,1 0,0.1 0.1,0 0,0.1 0,-0.2 0.1,0.1 0,0.1 0.1,0 0,0.1 0.1,0.1 0,0.4 0,-0.5 0.1,0 0,-0.3 0,0.1 0.1,-0.8 0,0.1 0.1,0.9 0,0.1 0.1,0 0,0.1 0,0.1 0.1,0 0,0.1 0.1,0 0,0.1 0,-2.6 0,1.8 0.1,0 0,0.1 0,0.1 0.1,2.2 0,0.1 0,0.8 0.1,0 0,0.1 0,0.1 0.1,0 0,0.1 0,0.1 0.1,-0.4 0,-0.2 0,0.1 0.1,0.1 0,0.1 0,-0.2 0.1,0 0,-0.9 0,0.1 0.1,0 0,-0.1 0,-0.3 0,-0.5 0.1,0.1 0,0.1 0,0.6 0.1,0 0,0.1 0,3 0,0.1 0.1,0 0,0.8 0,0.1 0,1.2 0.1,0.1 0,0.1 0.1,0.1 0,1.3 0,1 0,0.5 0.1,-0.6 0,-1.6 0,0.1 0.1,0 0,0.1 0.1,0 0,-1.1 0,0.1 0.1,0 0,0.1 0.1,0.1 0,0.8 0.1,0.1 0,0.6 0,0.1 0.1,0.1 0,1 0,0.1 0,-0.2 0.1,0.1 0,0.1 0.1,0 0,0.1 0.1,0.1 0,0.1 0.1,-0.4 0,0.1 0,0.4 0.1,0.1 0,0.7 0,0.5 0.1,0 0,0.1 0,-1.1 0,0.1 0.1,0 0,0.1 0,0.1 0.1,0 0,0.1 0.1,0 0,0.1 0,-0.2 0.1,0.1 0,-2.299995 0.1,0.1 0,-1.4 0,0.1 0.1,-0.1 0,0.1 0,0.9 0,-1.1 0.1,0 0,0.1 0,0.1 0.1,0 0,0.1 0.1,0.1 0,0.1 0,-0.3 0.1,0 0,0.1 0,0.1 0.1,0 0,0.1 0,-0.4 0.1,0.1 0,0.1 0.1,0 0,0.1 0,0.1 0.1,0 0,0.1 0,0.3 0.1,0 0,0.1 0.1,-0.6 0,0.1 0.1,0 0,2.1 0.1,0.1 0.1,0.1 0,0.299995 0,0.1 0,-0.499995 0.1,0 0,0.1 0,2.399995 0.1,0.5 0,0.1 0.1,0 0,-3.599995 0,0.1 0,-0.4 0,0.1 0.1,0 0.1,0.1 0,0.1 0,-1.5 0.1,0.7 0,0.5 0.1,0 0,-0.2 0.1,0 0,-0.2 0.1,0 0.1,-0.1 0,3.499995 0.1,0 0,-0.1 0,1.2 0.1,0 0,-0.1 0,1.8 0,-0.1 0.1,0.4 0,0.5 0,-0.1 0.1,0 0,-0.1 0,0.8 0.1,0 0,0.9 0,-0.1 0.1,-0.7 0,-0.1 0,0.6 0.1,1.6 0,-0.1 0,0.8 0,-0.1 0.1,0 0,-0.3 0,-0.1 0.1,-0.1 0,-0.6 0,-0.1 0.1,0 0,-0.1 0,-0.1 0.1,-0.1 0,1.7 0,-1 0,-0.1 0.1,0 0,-0.1 0,-0.1 0,0.1 0,-0.1 0.1,-0.1 0,-0.1 0,-0.9 0,0.1 0.1,0.8 0,-0.1 0,-0.1 0,1.5 0,-0.1 0.1,0 0,-0.1 0,-0.1 0,-0.6 0,-0.1 0.1,-0.1 0,-0.1 0,-0.1 0,-0.1 0.1,0 0,-0.1 0,1.8 0,-0.1 0,-0.1 0.1,-0.1 0,-0.1 0,-0.1 0,-0.1 0.1,-0.1 0,0.3 0,-0.1 0,-0.1 0,-0.7 0.1,-1.6 0,-0.1 0,-1.2 0,-0.1 0.1,-0.1 0,-0.1 0,0.2 0,1 0,-0.1 0.1,-0.1 0,-0.1 0,-0.1 0,-0.1 0.1,-0.1 0,-0.1 0,0.1 0,-0.1 0,-0.1 0.1,0.3 0,-0.1 0,-0.1 0,-0.1 0,-0.1 0.1,-0.9 0,-0.1 0,-0.1 0,-0.1 0,-0.1 0.1,-0.1 0,-0.1 0,-0.1 0,-0.1 0,-0.1 0.1,-0.1 0,-0.1 0,1.1 0,-1.4 0,0.9 0.1,-0.1 0,-0.1 0,0.1 0,-0.1 0.1,-0.1 0,-0.2 0,-0.1 0,-0.1 0.1,0 0,-0.1 0,1.2 0,0.1 0,1.1 0.1,-0.1 0,-0.1 0,-1.6 0,-0.1 0.1,-0.3 0,-0.1 0,-0.1 0.1,-0.1 0,-0.1 0,-0.1 0,-0.5 0.1,0.8 0,-0.1 0,-0.2 0,-0.1 0.1,1.9 0,0.5 0,-0.1 0.1,-1.1 0,-0.1 0,0.1 0.1,0 0,-0.1 0,0.3 0.1,0 0,-0.1 0.1,0 0,1.5 0.1,0 0.1,0 0,-0.7 0,0.1 0.1,0 0,0.1 0.1,0 0,0.1 0.1,0 0,0.1 0,0.1 0.1,0.9 0,-2.5 0,0.1 0.1,0 0,0.3 0,0.1 0.1,0.1 0,0.4 0,-1 0.1,0 0,0.1 0,-1 0.1,0 0,0.1 0.1,0.1 0,-0.6 0,0.1 0.1,0 0,0.1 0,-0.7 0.1,0.1 0,0.1 0,1.3 0.1,0 0,-2.1 0,-1.699995 0,-1.9 0,-0.2 0.1,0.1 0,0.1 0,0.1 0.1,0 0,-2 0,0.1 0,0.1 0.1,0 0,0.1 0,0.1 0.1,0.2 0,-0.1 0.1,0.1 0,0.1 0,0.1 0.1,0 0,0.1 0,1.2 0,-0.2 0.1,0 0,0.1 0,1 0,-1.2 0.1,0 0,0.1 0.1,0 0,-0.1 0.1,0 0.1,0.1 0.1,-0.1 0,-0.7 0,-1.5 0.1,0 0,-0.3 0.1,0 0,0.1 0,-0.5 0.1,-0.1 0,-0.8 0.1,0.4 0,-0.1 0,-0.4 0,-0.1 0.1,-3.5 0,-0.1 0.1,0 0,-0.1 0,-0.1 0.1,-0.8 0,-0.1 0,-0.1 0.1,-0.1 0,-0.1 0.1,-0.1 0,-0.1 0.1,-0.1 0,0.7 0,-0.1 0.1,0 0,-3.3 0,-0.1 0.1,0 0,-0.1 0,-0.1 0.1,0 0,-0.1 0,0.4 0,-0.1 0.1,0 0,2.9 0,-0.1 0,0.2 0.1,-0.1 0,-0.3 0,-0.6 0.1,-0.1 0,0.2 0.1,-0.1 0,-0.1 0,-0.1 0.1,0 0,1.1 0,-0.1 0.1,0 0,-0.1 0,-0.1 0.1,-0.1 0,1.1 0,2.7 0.1,-0.1 0,-1.3 0.1,-0.1 0,0.8 0.1,0 0,-1.8 0.1,-0.1 0,0.7 0,-0.1 0.1,0 0,-1.4 0.1,0 0,-0.6 0.1,0 0,0.1 0.1,0 0.1,0 0,1.5 0.1,1.7 0,1.2 0.1,0 0,0.1 0,0.1 0,1.1 0.1,0.1 0,-0.4 0.1,0 0,0.1 0.1,0 0.1,0 0,-0.9 0.1,0.1 0.1,0.1 0,0.4 0,0.2 0,-0.2 0,0.6 0.1,0 0,0.1 0,-0.2 0,0.1 0.1,0 0,0.1 0.1,0 0.1,0.1 0,0.1 0.1,0 0,-1.9 0,0.1 0,-0.1 0.1,0 0,0.1 0,1.5 0.1,0.1 0,0.1 0.1,0.1 0,0.1 0,-0.2 0,0.1 0.1,0 0,0.1 0,0.1 0.1,0 0,-0.1 0,0.1 0,-1.4 0,-1.3 0.1,0 0,1 0,0.1 0.1,0 0,0.8 0,0.1 0.1,0 0,0.1 0,-0.5 0,0.1 0.1,-0.5 0,-0.4 0,0.1 0.1,0 0,0.1 0,0.1 0.1,3.8 0,0.6 0,0.1 0.1,0 0,0.1 0.1,0.1 0,1.4 0,0.1 0.1,0 0,0.9 0,-0.5 0,0.9 0.1,0 0,0.399995 0,-1.899995 0,-0.1 0.1,0 0,0.6 0,-0.1 0.1,0.1 0,1.799995 0.1,0.1 0,-0.799995 0,0.399995 0.1,0 0,1.3 0.1,0 0,0.1 0,0.2 0.1,0.1 0,1.3 0,0.1 0.1,0 0,0.1 0.1,0.1 0,1.7 0,0.1 0.1,0 0,0.1 0.1,0 0,0.1 0.1,0.5 0,-0.2 0,0.1 0.1,0 0.1,-0.1 0,0.5 0.1,0 0,-1.3 0.1,0 0.1,0 0,0.9 0.1,0 0,-1.3 0,0.1 0.1,0 0,-1.9 0.1,1.6 0,-1.2 0,0.1 0.1,0.7 0,-1.7 0.1,-0.4 0,-1 0,0.1 0.1,0 0,2 0,-1.2 0.1,-0.1 0.1,-0.1 0,0.5 0,1.5 0,-0.6 0.1,-0.1 0.1,-0.1 0,-0.1 0.1,0 0,-0.1 0,-0.3 0.1,0 0,-0.1 0.1,0 0,-1 0,-0.1 0,-0.2 0.1,-0.1 0,3.6 0,0.3 0.1,0 0,-1.3 0.1,0 0,-1.4 0,0.1 0.1,0 0.1,-0.2 0,-0.1 0.1,0.6 0,-0.6 0.1,0 0,-1 0.1,0 0,1.2 0.1,0.1 0,-1.4 0.1,0 0,0.5 0,0.5 0.1,0.1 0,0.4 0.1,0 0,0.2 0,0.1 0.1,0.1 0,-0.9 0,0.1 0.1,0 0,0.1 0,0.1 0.1,0 0,-2.399995 0,0.399995 0,0.1 0.1,-0.699995 0,1.799995 0,1.6 0.1,0.1 0,0.1 0,0.1 0.1,0 0,-0.1 0,0.3 0,0.1 0.1,0 0,0.1 0,0.1 0.1,0 0,0.1 0,0.1 0.1,0 0,0.1 0.1,0.1 0,0.1 0,0.5 0,0.1 0.1,0 0,-0.4 0,0.1 0.1,0.1 0,0.1 0.1,0.1 0,-0.1 0,0.1 0.1,0 0,-0.4 0,-0.3 0.1,0 0,0.1 0.1,0 0,0.1 0.1,0 0,0.1 0.1,0 0,-0.6 0,0.1 0.1,-0.5 0,-1.5 0.1,0 0,0.6 0.1,0 0.1,0 0,-0.1 0.1,0 0.1,1.6 0.1,-0.1 0,-0.1 0.1,0.5 0,-0.1 0.1,-0.1 0,1.5 0.1,-0.1 0,-0.1 0,0.6 0,-0.1 0.1,-0.1 0,-0.1 0,-0.1 0.1,0 0,-0.1 0,-0.1 0,0.8 0.1,-0.1 0,0.7 0,-3.3 0,-0.1 0.1,0 0,-0.1 0,-0.1 0,-0.8 0.1,-0.1 0,-0.4 0,-0.1 0.1,-1 0,-0.1 0,-0.1 0.1,-0.1 0,-0.1 0,-0.1 0.1,0 0,-0.1 0,-0.199995 0,-0.1 0.1,0 0,-0.1 0,-0.7 0,-0.1 0.1,0 0,1.299995 0,-0.1 0.1,0 0,-0.1 0,-0.1 0.1,0 0,-0.4 0.1,-0.6 0,-0.1 0,-0.1 0.1,0 0,-1.4 0,-0.1 0,-0.4 0.1,0 0,-1 0,-2.4 0.1,0 0,0.7 0,-0.1 0,-0.5 0.1,-0.1 0.1,0 0,-0.2 0,2.2 0.1,0 0,-0.2 0.1,0 0,-1.2 0.1,0 0,0.1 0.1,0.3 0,0.1 0.1,0.1 0,0.1 0,0.1 0.1,0.1 0,0.1 0,0.8 0,0.1 0,0.6 0.1,0 0,0.1 0.1,-2 0,0.1 0.1,0.1 0,0.7 0,0.7 0,-0.5 0.1,0 0,0.1 0.1,0.1 0,0.1 0,0.4 0.1,0 0,0.1 0,0.1 0,-0.9 0,0.1 0.1,0 0,0.1 0.1,-0.7 0,-0.6 0,0.1 0.1,0 0,0.1 0.1,0 0,0.3 0,1.3 0.1,0.2 0,0.1 0.1,0.1 0,-1.2 0.1,0 0,0.1 0.1,0 0,0.6 0,-0.5 0.1,2.5 0,0.7 0.1,-1.3 0.1,0 0.1,0 0,-0.2 0.1,0 0,0.7 0.1,-0.1 0.1,-0.1 0,-0.3 0.1,-0.1 0,-0.1 0.1,0 0,-0.7 0,0.3 0.1,1.4 0,-0.1 0,-0.1 0.1,0 0,-0.1 0,-0.1 0.1,-0.1 0,1.5 0,0.2 0.1,-1.8 0,-0.1 0,-1.4 0.1,-0.1 0,0.3 0,-0.1 0.1,-0.1 0,-0.2 0.1,-1.3 0,-0.1 0,-0.1 0,-0.1 0.1,-0.1 0,-1.9 0,1 0,-0.1 0.1,0 0,-0.1 0,-0.1 0.1,0 0,-0.1 0,2.3 0.1,-0.7 0,-0.1 0,-0.8 0.1,0 0,-0.1 0.1,-0.1 0,-0.1 0.1,-0.9 0,1.1 0,-1 0.1,0.2 0.1,0 0,-0.2 0,0.2 0.1,-0.1 0,0.1 0.1,0 0.1,0 0,1.1 0,-1.9 0.1,0 0,1.5 0,0.1 0.1,0 0,-0.4 0,0.1 0.1,-1.1 0,0.1 0,0.2 0.1,0.1 0,0.8 0.1,0 0,0.1 0,1 0.1,0.1 0,0.1 0,-0.1 0.1,-0.6 0,0.6 0,0.1 0.1,0.1 0,0.1 0,0.1 0.1,0 0,0.1 0,0.2 0,0.6 0.1,0 0,0.1 0,0.1 0,-0.4 0,0.1 0.1,0.1 0,0.1 0,0.1 0.1,0.1 0,0.1 0,0.1 0,0.1 0.1,0 0,0.9 0,0.1 0,-0.1 0,0.1 0.1,0 0,0.1 0,0.1 0,0.1 0.1,0.1 0,-3.3 0,0.1 0,0.3 0.1,0.1 0,0.1 0,0.4 0,0.1 0.1,0.2 0,1.7 0,0.1 0,0.1 0.1,0.9 0,0.1 0.1,0 0,0.1 0,1.199995 0,0.1 0.1,0 0,0.1 0.1,0 0,-0.1 0.1,-0.999995 0,0.1 0,-0.9 0.1,0.1 0,-1.8 0,-0.2 0.1,-0.7 0,0.1 0.1,0 0,-1.6 0,-0.6 0,0.2 0.1,0 0,0.1 0,0.8 0.1,0 0,0.3 0,0.3 0.1,0 0,-0.2 0.1,0 0,0.1 0,0.4 0,-1.1 0.1,0 0,-0.8 0.1,0 0,1 0.1,0.1 0.1,0 0.1,0 0,0.6 0.1,0 0,0.8 0.1,0 0,0.7 0.1,0 0.1,0 0,1.2 0.1,0 0,0.5 0.1,0 0,-0.6 0.1,0 0,0.1 0.1,0 0,-0.2 0.1,0 0,0.7 0.1,-0.4 0,-0.4 0.1,0.1 0,1.1 0.1,-0.1 0,0.4 0,-2.3 0,-0.3 0.1,-2.5 0,-0.1 0.1,0 0,1.7 0,-0.1 0.1,0 0,-0.1 0,0.4 0.1,-0.8 0,-0.1 0.1,0.9 0,-0.1 0,0.9 0.1,0.6 0,0.3 0,-0.1 0.1,0 0,-0.1 0,-1.9 0.1,0 0,-0.1 0,-0.1 0.1,0 0,-0.1 0,-1 0.1,0 0,-0.9 0,-1.2 0,-0.1 0.1,0 0,0.8 0,-0.1 0,-0.2 0.1,0 0,-0.5 0,-0.1 0.1,-0.1 0,1.3 0,2 0.1,0 0,-0.1 0,-0.1 0.1,-0.1 0,0.3 0,-0.1 0.1,-1.1 0,0.2 0,-0.1 0,0.2 0.1,-0.1 0,-0.1 0,-0.1 0.1,-0.1 0,0.2 0,-0.4 0.1,0 0,-0.1 0,-0.8 0,-0.1 0.1,0 0,-0.1 0,-1.1 0,-0.3 0,-0.1 0.1,-1.1 0,2.4 0,-0.1 0,2.4 0.1,-0.1 0,-0.1 0,-0.1 0.1,-0.1 0,0.8 0,2 0,-0.1 0.1,0 0,-0.1 0,-0.1 0,-0.1 0.1,-0.1 0,-0.1 0,-0.1 0.1,-0.1 0,-0.1 0,-0.1 0,-0.1 0.1,0 0,-0.1 0,-0.1 0,-0.1 0.1,-0.6 0,-0.1 0,-0.1 0,-0.1 0.1,-0.1 0,-0.1 0,-0.1 0.1,0 0,-0.1 0,0.6 0,1.6 0.1,-0.1 0,-1.4 0,-0.1 0,-0.1 0.1,-0.1 0,-0.1 0,1.2 0,-0.1 0.1,0 0,-0.1 0,-0.3 0,-0.1 0.1,0.6 0,-0.1 0,-0.1 0,-0.1 0.1,0 0,-0.8 0,-0.1 0,-0.1 0,-0.1 0.1,-0.1 0,1 0,-0.8 0,-0.1 0,-0.1 0.1,-0.1 0,1.9 0,-0.1 0,-0.1 0,-0.1 0.1,-0.1 0,-0.1 0,-0.1 0,-0.1 0.1,-0.1 0,-0.1 0,-0.1 0,-0.1 0,-0.1 0.1,-0.1 0,-0.1 0,1 0,-0.1 0.1,-0.1 0,-0.1 0,-0.1 0,-0.1 0.1,-0.1 0,-0.1 0,-0.1 0,-0.1 0,-0.1 0.1,1.4 0,-0.1 0,-0.1 0,-0.1 0,-0.1 0.1,-0.1 0,-0.1 0,-0.1 0,-0.1 0,-1.2 0.1,-0.1 0,-0.1 0,-0.1 0,-0.1 0,-0.1 0.1,-0.1 0,-0.1 0,-0.1 0,-0.1 0.1,-0.3 0,-0.1 0,-0.1 0,-0.5 0,-0.1 0.1,-0.1 0,-0.1 0,-0.1 0,0.5 0,-0.1 0.1,-0.1 0,-0.1 0,-1.2 0,-0.1 0.1,0.8 0,-0.1 0,-0.1 0,-0.1 0.1,-0.1 0,-0.1 0,-0.1 0,-0.1 0.1,-0.1 0,-0.1 0,-0.1 0,-0.1 0,0.8 0.1,-0.1 0,-0.1 0,-0.1 0.1,-0.1 0,-0.1 0,-0.9 0.1,-0.1 0,-0.1 0,-0.4 0,0.2 0.1,0 0,0.7 0,-0.1 0,-0.1 0.1,1.2 0,-0.1 0,-0.1 0.1,-0.1 0,-0.1 0,-1.3 0.1,0 0,-0.1 0,-0.1 0.1,-0.1 0,-0.1 0.1,-0.1 0,-0.1 0,0.7 0.1,1.6 0,-0.1 0.1,-0.1 0,-0.1 0.1,-0.1 0,-0.1 0,-0.9 0.1,0 0,-0.1 0.1,0 0,1.1 0,-0.1 0.1,1.2 0,-0.1 0.1,0 0,-0.1 0.1,-1.5 0,-0.1 0.1,0 0.1,0 0,1.2 0.1,0 0,0.1 0.1,0 0.1,0.1 0.1,-1.6 0,0.1 0,-0.4 0.1,0 0,-0.8 0,0.1 0.1,0 0,0.1 0,0.8 0,0.8 0.1,-1.3 0,0.1 0,0.1 0.1,0 0,-0.1 0,0.1 0.1,0.1 0,0.1 0,-0.7 0.1,0.1 0,0.8 0,-1 0,0.1 0.1,-0.3 0,0.1 0,0.1 0.1,0 0,0.1 0,-1.8 0,0.1 0.1,0.1 0,0.1 0,0.1 0.1,0.1 0,-1 0,0.1 0.1,0.1 0,0.1 0,0.1 0,-0.5 0.1,0.1 0,0.1 0,0.1 0,0.1 0.1,0.1 0,0.1 0,-1.1 0,0.6 0.1,0.1 0,0.1 0,0.1 0,0.1 0.1,0.1 0,0.1 0,-1.4 0,0.1 0,0.1 0.1,0.1 0,0.1 0,0.9 0,0.1 0,0.2 0.1,2.3 0,0.1 0,0.1 0,-2.1 0,0.2 0.1,0.1 0,0.1 0,0.1 0,0.1 0,0.1 0.1,0.1 0,0.1 0,-2.4 0,0.2 0,0.1 0.1,0.1 0,-2.9 0,0.1 0,0.2 0,0.1 0.1,-1 0,0.1 0,0.5 0,0.3 0,0.1 0.1,0.1 0,0.1 0,0.1 0,0.2 0,0.1 0.1,0.1 0,0.1 0,-0.2 0,0.1 0,0.1 0.1,0.2 0,0.1 0,0.1 0,0.1 0,0.1 0.1,0.5 0,-0.1 0,0.2 0,0.1 0,1 0.1,0.1 0,0.1 0,0.2 0,0.1 0,0.1 0.1,0.1 0,-0.6 0,0.1 0,0.2 0.1,0.1 0,1.7 0,0.6 0,0.1 0,0.1 0.1,-1.8 0,0.1 0,0.1 0,0.1 0,0.1 0.1,0.1 0,0.1 0,0.1 0,0.1 0,0.1 0.1,0.1 0,0.1 0,0.1 0,0.1 0,0.1 0.1,0.1 0,0.1 0,0.5 0,0.1 0,0.1 0.1,0.1 0,0.1 0,0.1 0,0.1 0,0.1 0.1,0 0,0.1 0,0.4 0,0.1 0,0.1 0.1,0.1 0,-0.3 0,0.1 0,0.1 0.1,0.1 0,0.1 0,0.1 0,-1.5 0.1,0.1 0,0.1 0,0.1 0,0.1 0.1,0.1 0,0.1 0,0.1 0,0.1 0,0.1 0.1,0.1 0,0.1 0,0.8 0,0.1 0,0.1 0.1,0.8 0,-0.7 0,0.1 0,0.1 0,0.1 0.1,0 0,0.1 0,0.1 0,0.1 0,0.9 0.1,0 0,0.1 0,0.1 0,0.1 0.1,0.1 0,0.1 0,0.1 0,0.3 0.1,0 0,0.1 0,0.1 0,0.1 0.1,0.1 0,0.1 0,0.1 0.1,-1.7 0,0.5 0,0.3 0,0.1 0.1,0 0,0.1 0.1,0.1 0,-1.7 0,-1 0,0.5 0.1,0 0,0.1 0.1,-0.5 0,2 0,1.4 0.1,0 0,0.4 0.1,0 0,0.1 0.1,0.6 0.1,1.8 0,-0.1 0.1,0 0,-2 0,-0.5 0.1,0 0,-0.1 0,0.2 0,-0.1 0.1,0 0,-0.1 0.1,-0.1 0,-0.1 0.1,0 0,-0.1 0,-0.1 0.1,-0.1 0,-0.1 0,-0.1 0.1,0 0,-0.1 0,-0.1 0.1,-0.1 0,-0.1 0,-0.1 0.1,-0.1 0,-0.1 0,-0.1 0,-0.1 0.1,0 0,-0.1 0,-0.1 0,-0.1 0.1,-0.1 0,-0.1 0,-0.1 0,-0.1 0.1,0 0,-0.1 0,-0.1 0,-0.1 0.1,-0.1 0,-0.1 0,-0.1 0,-0.1 0.1,-0.1 0,-0.1 0,-0.1 0,-0.1 0.1,-0.1 0,-0.1 0,-0.1 0,-0.1 0,-0.1 0.1,0 0,-0.1 0,-0.1 0,-0.1 0,-0.1 0.1,-0.1 0,-0.1 0,-0.1 0,-0.1 0.1,-0.1 0,-0.1 0,-0.1 0,-0.1 0.1,-0.1 0,-0.1 0,-0.1 0,-0.1 0.1,-0.1 0,-0.1 0,-0.1 0,-0.1 0,-0.1 0.1,0 0,-0.1 0,-0.1 0,-0.1 0,-0.1 0.1,0 0,-0.1 0,-0.1 0,-0.1 0.1,-0.1 0,-0.1 0,-0.1 0,-0.1 0.1,-0.1 0,-0.1 0,-0.1 0,-0.1 0.1,-0.1 0,-0.1 0,-0.1 0.1,-0.1 0,-0.1 0,-0.1 0.1,-0.1 0,-0.1 0,-0.1 0.1,0 0,-0.1 0,-0.1 0.1,0 0,-0.1 0.1,-0.1 0,-0.1 0.1,0 0,-0.1 0.1,0 0.1,0 0.1,0 0,0.1 0.1,0 0,0.1 0.1,0 0,0.1 0.1,0 0,0.1 0,0.1 0.1,0 0,0.1 0,0.1 0.1,0 0,0.1 0,0.1 0.1,0 0,0.1 0,0.1 0.1,0.1 0,0.1 0,0.1 0.1,0.1 0,0.1 0,0.1 0.1,0.1 0,0.1 0,0.1 0.1,0 0,0.1 0,0.1 0,0.1 0.1,0 0,0.1 0,0.1 0.1,0.1 0,0.1 0,0.1 0.1,0.1 0,0.1 0.1,0.1 0,0.1 0,0.1 0.1,0 0,0.1 0,0.1 0.1,0 0,0.1 0.1,0.1 0,0.1 0.1,0 0,0.1 0.1,0 0,0.1 0.1,0 0.1,0 0,0.1 0.1,0 0.1,0 0.1,0 0.1,0 0.1,0 0.1,0 0.1,0 0.1,0 0.1,0 0.1,0 0,0.1 0.1,0 0,0.1 0.1,0 0,0.1 0.1,0 0,0.1 0.1,0 0,0.1 0,0.1 0.1,0 0,0.1 0.1,0.1 0,0.1 0.1,0 0,0.1 0,0.1 0.1,0.1 0,0.1 0.1,0.1 0,0.1 0,0.1 0.1,0 0,0.1 0,0.1 0.1,0.1 0,0.1 0,0.1 0.1,0 0,0.1 0,0.1 0.1,0.1 0,0.1 0,0.1 0.1,0.1 0,0.1 0,0.1 0.1,0 0,0.1 0,0.1 0.1,0.1 0,0.1 0,0.1 0.1,0.1 0,0.1 0,0.1 0.1,0 0,0.1 0,0.1 0.1,0.1 0,0.1 0,0.1 0.1,0 0,0.1 0,0.1 0.1,0.1 0,0.1 0,0.1 0.1,0 0,0.1 0,0.1 0.1,0.1 0,0.1 0.1,0.1 0,0.1 0.1,0.1 0,0.1 0.1,0 0,0.1 0,0.1 0.1,0 0,0.1 0.1,0.1 0,0.1 0.1,0 0,0.1 0.1,0 0,0.1 0.1,0 0,0.1 0.1,0 0,0.1 0.1,0 0,0.1 0.1,0 0.1,0 0.1,0 0,0.1 0.1,0 0.1,0 0.1,0 0.1,0 0.1,0 0.1,0 0.1,0 0.1,0 0,0.1 0.1,0 0.1,0 0.1,0 0,0.1 0.1,0 0,0.1 0.1,0 0.1,0 0,0.1 0.1,0 0,0.1 0.1,0 0,0.1 0.1,0 0,0.1 0.1,0 0,0.1 0.1,0 0,0.1 0.1,0.1 0.1,0.1 0.1,0.1 0.1,0.1 0.1,0 0,0.1 0.1,0 0,0.1 0.1,0 0.1,0 0.1,0 0.1,0 0.1,0 0.1,0 0,-0.1 0.1,0 0.1,0 0,-0.1 0.1,0 0,-0.1 0.1,0 0,-0.1 0.1,0 0,-0.1 0.1,0 0,-0.1 0.1,-0.1 0,-0.1 0.1,0 0,-0.1 0.1,0 0,-0.1 0.1,0 0,-0.1 0.1,0 0,-0.1 0.1,-0.1 0.1,-0.1 0.1,0 0,-0.1 0.1,0 0,-0.1 0.1,0 0.1,0 0.1,0 0.1,0 0.1,0 0.1,0 0.1,0 0,0.1 0.1,0 0,0.1 0.1,0 0.1,0.1 0,0.1 0.1,0 0,0.1 0.1,0 0,0.1 0.1,0 0,0.1 0.1,0 0,0.1 0.1,0 0,0.1 0.1,0 0,0.1 0.1,0 0,0.1 0.1,0 0,0.1 0.1,0 0,0.1 0.1,0 0,0.1 0.1,0 0,0.1 0.1,0 0.1,0 0,0.1 0.1,0 0.1,0 0.1,0 0.1,0 0.1,0 0,-0.1 0.1,0 0.1,0 0,-0.1 0.1,0 0.1,-0.1 0.1,-0.1 0.1,-0.1 0,-0.1 0.1,0 0,-0.1 0.1,-0.1 0,-0.1 0.1,0 0,-0.1 0,-0.1 0.1,0 0,-0.1 0,-0.1 0.1,0 0,-0.1 0,-0.1 0.1,0 0,-0.1 0,-0.1 0.1,-0.1 0,-0.1 0,-0.1 0.1,0 0,-0.1 0,-0.1 0.1,-0.1 0,-0.1 0,-0.1 0.1,-0.1 0,-0.1 0,-0.1 0.1,-0.1 0,-0.1 0,-0.1 0.1,-0.1 0,-0.1 0,-0.1 0,-0.1 0.1,0 0,-0.1 0,-0.1 0,-0.1 0.1,-0.1 0,-0.1 0,-0.1 0.1,-0.1 0,-0.1 0,-0.1 0,-0.1 0.1,-0.1 0,-0.1 0,-0.1 0,-0.1 0.1,0 0,-0.1 0,-0.1 0,-0.1 0.1,-0.1 0,-0.1 0,-0.1 0,-0.1 0.1,-0.1 0,-0.1 0,-0.1 0,-0.1 0.1,-0.1 0,-0.1 0,-0.1 0,-0.1 0,-0.1 0.1,0 0,-0.1 0,-0.1 0,-0.1 0,-0.1 0.1,0 0,-0.1 0,-0.1 0,-0.1 0,-0.1 0.1,0 0,-0.1 0,-0.1 0,-0.1 0,-0.1 0.1,-0.1 0,-0.1 0,-0.1 0,-0.1 0.1,-0.1 0,-0.1 0,-0.1 0,-0.1 0.1,-0.1 0,-0.1 0,-0.1 0,-0.1 0.1,-0.1 0,-0.1 0,-0.1 0,-0.1 0.1,-0.1 0,-0.1 0,-0.1 0,-0.1 0.1,0 0,-0.1 0,-0.1 0,-0.1 0,-0.1 0.1,0 0,-0.1 0,-0.1 0,-0.1 0.1,-0.1 0,-0.1 0,-0.1 0,-0.1 0.1,-0.1 0,-0.1 0,-0.1 0,-0.1 0.1,0 0,-0.1 0,-0.1 0,-0.1 0.1,-0.1 0,-0.1 0,-0.1 0,-0.1 0.1,0 0,-0.1 0,-0.1 0,-0.1 0.1,-0.1 0,-0.1 0,-0.1 0.1,-0.1 0,-0.1 0,-0.1 0.1,-0.1 0,-0.1 0,-0.1 0.1,0 0,-0.1 0,-0.1 0.1,-0.1 0,-0.1 0,-0.1 0.1,0 0,-0.1 0,-0.1 0.1,0 0,-0.1 0.1,-0.1 0,-0.1 0.1,0 0,-0.1 0.1,-0.1 0,-0.1 0.1,0 0.1,-0.1 0.1,0 0.1,0 0.1,0 0.1,0 0.1,0 0,0.1 0.1,0 0.1,0.1 0.1,0.1 0.1,0.1 0,0.1 0.1,0 0,0.1 0.1,0 0,0.1 0,0.1 0.1,0 0,0.1 0.1,0.1 0,0.1 0.1,0.1 0,0.1 0.1,0 0,0.1 0,0.1 0.1,0 0,0.1 0,0.1 0.1,0 0,0.1 0,0.1 0.1,0.1 0,0.1 0.1,0.1 0,0.1 0.1,0.1 0,0.1 0.1,0.1 0,0.1 0.1,0.1 0,0.1 0,0.1 0.1,0 0,0.1 0,0.1 0.1,0 0,0.1 0,0.1 0.1,0 0,0.1 0,0.1 0.1,0 0,0.1 0,0.1 0.1,0 0,0.1 0,0.1 0.1,0.1 0,0.1 0.1,0.1 0,0.1 0,0.1 0.1,0 0,0.1 0,0.1 0.1,0 0,0.1 0,0.1 0.1,0.1 0,0.1 0,0.1 0.1,0 0,0.1 0,0.1 0.1,0.1 0,0.1 0,0.1 0.1,0 0,0.1 0,0.1 0,0.1 0.1,0 0,0.1 0,0.1 0.1,0.1 0,0.1 0,0.1 0.1,0.1 0,0.1 0,0.1 0.1,0.1 0,0.1 0,0.1 0,0.1 0.1,0 0,0.1 0,0.1 0,0.1 0.1,0.1 0,0.1 0,0.1 0,0.1 0.1,0 0,0.1 0,0.1 0,0.1 0.1,0.1 0,0.1 0,0.1 0,0.1 0.1,0.1 0,0.1 0,0.1 0,0.1 0.1,0.1 0,0.1 0,0.1 0,0.1 0.1,0.1 0,0.1 0,0.1 0,0.1 0,0.1 0.1,0 0,0.1 0,0.1 0,0.1 0,0.1 0.1,0.1 0,0.1 0,0.1 0,0.1 0.1,0.1 0,0.1 0,0.1 0,0.1 0,0.1 0.1,0.1 0,0.1 0,0.1 0,0.1 0,0.1 0.1,0.1 0,0.1 0,0.1 0,0.1 0.1,0.1 0,0.1 0,0.1 0,0.1 0,0.1 0.1,0.1 0,0.1 0,0.1 0,0.1 0,0.1 0.1,0.1 0,0.1 0,0.1 0,0.1 0,0.1 0.1,0 0,0.1 0,0.1 0,0.1 0,0.1 0.1,0.1 0,0.1 0,0.1 0,0.1 0,0.1 0.1,0.1 0,0.1 0,0.1 0,0.1 0.1,0.1 0,0.1 0,0.1 0,0.1 0,0.1 0.1,0 0,0.1 0,0.1 0,0.1 0,0.1 0.1,0.1 0,0.1 0,0.1 0,0.1 0.1,0 0,0.1 0,0.1 0,0.1 0.1,0.1 0,0.1 0,0.1 0,0.1 0.1,0.1 0,0.1 0,0.1 0.1,0.1 0,0.1 0,0.1 0.1,0 0,0.1 0,0.1 0.1,0 0,0.1 0,0.1 0.1,0 0,0.1 0.1,0 0,0.1 0.1,0 0.1,0 0.1,0 0,-0.1 0.1,0 0.1,-0.1 0,-0.1 0.1,0 0,-0.1 0.1,-0.1 0,-0.1 0,-0.1 0.1,0 0,-0.1 0,-0.1 0.1,0 0,-0.1 0,-0.1 0.1,-0.1 0,-0.1 0,-0.1 0.1,-0.1 0,-0.1 0,-0.1 0.1,-0.1 0,-0.1 0,-0.1 0.1,-0.1 0,-0.1 0,-0.1 0,-0.1 0.1,0 0,-0.1 0,-0.1 0,-0.1 0.1,-0.1 0,-0.1 0,-0.1 0.1,-0.1 0,-0.1 0,-0.1 0,-0.1 0.1,0 0,-0.1 0,-0.1 0,-0.1 0.1,-0.1 0,-0.1 0,-0.1 0.1,-0.1 0,-0.1 0,-0.1 0,-0.1 0.1,0 0,-0.1 0,-0.1 0,-0.1 0.1,0 0,-0.1 0,-0.1 0,-0.1 0.1,0 0,-0.1 0,-0.1 0,-0.1 0.1,0 0,-0.1 0,-0.1 0.1,-0.1 0,-0.1 0,-0.1 0.1,0 0,-0.1 0,-0.1 0.1,-0.1 0,-0.1 0,-0.1 0.1,0 0,-0.1 0,-0.1 0.1,0 0,-0.1 0,-0.1 0.1,0 0,-0.1 0.1,-0.1 0,-0.1 0.1,0 0,-0.1 0.1,0 0,-0.1 0.1,-0.1 0.1,-0.1 0.1,0 0,-0.1 0.1,0 0,-0.1 0.1,0 0.1,0 0.1,0 0.1,0 0.1,0 0.1,0 0.1,0 0.1,0 0,0.1 0.1,0 0.1,0 0.1,0.1 0.1,0 0,0.1 0.1,0 0.1,0 0,0.1 0.1,0 0,0.1 0.1,0 0.1,0 0,0.1 0.1,0 0,0.1 0.1,0 0,0.1 0.1,0 0.1,0.1 0.1,0.1 0.1,0 0,0.1 0.1,0 0,0.1 0.1,0 0,0.1 0.1,0 0,0.1 0.1,0 0,0.1 0.1,0 0,0.1 0.1,0 0,0.1 0.1,0 0,0.1 0.1,0 0,0.1 0.1,0 0,0.1 0.1,0 0,0.1 0.1,0 0,0.1 0.1,0 0,0.1 0.1,0 0,0.1 0.1,0 0,0.1 0.1,0 0.1,0 0,0.1 0.1,0 0.1,0.1 0.1,0 0.1,0 0.1,0 0.1,0 0.1,0 0.1,0 0,-0.1 0.1,0 0.1,0 0,-0.1 0.1,0 0.1,0 0,-0.1 0.1,0 0.1,0 0,-0.1 0.1,0 0,-0.1 0.1,0 0.1,0 0,-0.1 0.1,0 0.1,0 0.1,0 0.1,0 0.1,0 0.1,0.1 0.1,0 0,0.1 0.1,0 0,0.1 0.1,0 0,0.1 0.1,0 0,0.1 0,0.1 0.1,0 0,0.1 0.1,0.1 0,0.1 0.1,0.1 0,0.1 0,0.1 0.1,0 0,0.1 0,0.1 0.1,0.1 0,0.1 0,0.1 0.1,0 0,0.1 0,0.1 0,0.1 0.1,0 0,0.1 0,0.1 0,0.1 0.1,0.1 0,0.1 0,0.1 0.1,0.1 0,0.1 0,0.1 0,0.1 0.1,0 0,0.1 0,0.1 0,0.1 0.1,0.1 0,0.1 0,0.1 0,0.1 0.1,0 0,0.1 0,0.1 0,0.1 0.1,0.1 0,0.1 0,0.1 0,0.1 0.1,0.1 0,0.1 0,0.1 0,0.1 0.1,0.1 0,0.1 0,0.1 0,0.1 0.1,0.1 0,0.1 0,0.1 0,0.1 0.1,0 0,0.1 0,0.1 0,0.1 0.1,0.1 0,0.1 0,0.1 0,0.1 0.1,0.1 0,0.1 0,0.1 0,0.1 0.1,0.1 0,0.1 0,0.1 0.1,0.1 0,0.1 0,0.1 0,0.1 0.1,0.1 0,0.1 0,0.1 0.1,0.1 0,0.1 0,0.1 0.1,0.1 0,0.1 0,0.1 0,0.1 0.1,0.1 0,0.1 0,0.1 0.1,0 0,0.1 0,0.1 0.1,0.1 0,0.1 0,0.1 0.1,0 0,0.1 0,0.1 0.1,0 0,0.1 0,0.1 0.1,0 0,0.1 0.1,0 0,0.1 0.1,0.1 0.1,0 0,0.1 0.1,0 0.1,0 0.1,0 0.1,0 0,-0.1 0.1,0 0,-0.1 0.1,0 0,-0.1 0,-0.1 0.1,0 0,-0.1 0.1,-0.1 0,-0.1 0,-0.1 0.1,0 0,-0.1 0,-0.1 0.1,-0.1 0,-0.1 0,-0.1 0.1,-0.1 0,-0.1 0,-0.1 0.1,-0.1 0,-0.1 0,-0.1 0,-0.1 0.1,-0.1 0,-0.1 0,-0.1 0,-0.1 0.1,-0.1 0,-0.1 0,-0.1 0,-0.1 0.1,-0.1 0,-0.1 0,-0.1 0,-0.1 0,-0.1 0.1,-0.1 0,-0.1 0,-0.1 0,-0.1 0,-0.1 0.1,-0.1 0,-0.1 0,-0.1 0,-0.1 0,-0.1 0.1,-0.1 0,-0.1 0,-0.1 0,-0.1 0,-0.1 0.1,-0.2 0,-0.1 0,-0.1 0,-0.1 0,-0.1 0.1,-0.1 0,-0.2 0,-0.1 0,-0.1 0,-0.1 0.1,-0.1 0,-0.2 0,-0.1 0,-0.1 0,-0.1 0.1,-0.2 0,-0.1 0,-0.1 0,-0.1 0,-0.2 0.1,-0.1 0,-0.1 0,-0.2 0,-0.1 0,-0.1 0.1,-0.2 0,-0.1 0,-0.1 0,-0.2 0,-0.1 0.1,-0.1 0,-0.2 0,-0.1 0,-0.1 0,-0.2 0.1,-0.1 0,-0.1 0,-0.2 0,-0.1 0,-0.1 0.1,-0.2 0,-0.1 0,-0.1 0,-0.2 0,-0.1 0.1,-0.2 0,-0.1 0,-0.1 0,-0.2 0,-0.1 0.1,-0.1 0,-0.2 0,-0.1 0,-0.1 0,-0.2 0.1,-0.1 0,-0.1 0,-0.2 0,-0.1 0,-0.1 0.1,-0.2 0,-0.1 0,-0.1 0,-0.2 0,-0.1 0.1,-0.1 0,-0.2 0,-0.1 0,-0.1 0,-0.1 0.1,-0.2 0,-0.1 0,-0.1 0,-0.1 0,-0.2 0.1,-0.1 0,-0.1 0,-0.1 0,-0.1 0,-0.2 0.1,-0.1 0,-0.1 0,-0.1 0,-0.1 0,-0.1 0.1,-0.2 0,-0.1 0,-0.1 0,-0.1 0,-0.1 0,-0.1 0.1,-0.1 0,-0.1 0,-0.1 0,-0.1 0,-0.1 0.1,-0.1 0,-0.1 0,-0.1 0,-0.1 0,-0.1 0.1,-0.1 0,-0.1 0,-0.1 0,-0.1 0.1,-0.1 0,-0.1 0,-0.1 0,-0.1 0,-0.1 0.1,0 0,-0.1 0,-0.1 0,-0.1 0.1,-0.1 0,-0.1 0,-0.1 0,-0.1 0.1,0 0,-0.1 0,-0.1 0.1,-0.1 0,-0.1 0,-0.1 0.1,0 0,-0.1 0,-0.1 0.1,0 0,-0.1 0.1,0 0,-0.1 0.1,0 0.1,0 0.1,0 0,0.1 0.1,0 0,0.1 0.1,0 0,0.1 0,0.1 0.1,0 0,0.1 0,0.1 0.1,0 0,0.1 0,0.1 0,0.1 0.1,0 0,0.1 0,0.1 0,0.1 0.1,0 0,0.1 0,0.1 0,0.1 0.1,0.1 0,0.1 0,0.1 0,0.1 0,0.1 0.1,0.1 0,0.1 0,0.1 0,0.1 0.1,0.1 0,0.1 0,0.1 0,0.1 0,0.1 0.1,0.1 0,0.1 0,0.1 0,0.1 0,0.2 0.1,0.1 0,0.1 0,0.1 0,0.1 0,0.1 0.1,0.1 0,0.2 0,0.1 0,0.1 0,0.1 0.1,0.1 0,0.2 0,0.1 0,0.1 0,0.1 0.1,0.2 0,0.1 0,0.1 0,0.2 0,0.1 0.1,0.1 0,0.1 0,0.2 0,0.1 0,0.1 0.1,0.2 0,0.1 0,0.1 0,0.2 0,0.1 0.1,0.1 0,0.2 0,0.1 0,0.2 0,0.1 0.1,0.1 0,0.2 0,0.1 0,0.1 0,0.2 0.1,0.1 0,0.1 0,0.2 0,0.1 0,0.1 0.1,0.2 0,0.1 0,0.1 0,0.2 0,0.1 0.1,0.1 0,0.2 0,0.1 0,0.1 0,0.2 0.1,0.1 0,0.1 0,0.1 0,0.2 0,0.1 0.1,0.1 0,0.1 0,0.2 0,0.1 0,0.1 0.1,0.1 0,0.1 0,0.2 0,0.1 0,0.1 0.1,0.1 0,0.1 0,0.1 0,0.1 0,0.1 0.1,0.1 0,0.2 0,0.1 0,0.1 0,0.1 0.1,0.1 0,0.1 0,0.1 0,0.1 0,0.1 0.1,0 0,0.1 0,0.1 0,0.1 0,0.1 0.1,0.1 0,0.1 0,0.1 0,0.1 0.1,0.1 0,0.1 0,0.1 0,0.1 0,0.1 0.1,0 0,0.1 0,0.1 0,0.1 0.1,0 0,0.1 0,0.1 0,0.1 0.1,0 0,0.1 0,0.1 0.1,0 0,0.1 0,0.1 0.1,0 0,0.1 0.1,0.1 0,0.1 0.1,0 0.1,0 0,0.1 0.1,0 0.1,0 0.1,0 0,-0.1 0.1,0 0,-0.1 0.1,0 0.1,-0.1 0,-0.1 0.1,0 0,-0.1 0.1,0 0,-0.1 0.1,0 0,-0.1 0.1,-0.1 0,-0.1 0.1,0 0,-0.1 0.1,0 0,-0.1 0.1,-0.1 0.1,-0.1 0,-0.1 0.1,0 0.1,-0.1 0.1,0 0,-0.1 0.1,0 0.1,0 0.1,0 0.1,0 0.1,0.1 0.1,0 0,0.1 0.1,0 0,0.1 0.1,0.1 0,0.1 0.1,0 0,0.1 0,0.1 0.1,0 0,0.1 0,0.1 0.1,0 0,0.1 0,0.1 0.1,0.1 0,0.1 0,0.1 0.1,0 0,0.1 0,0.1 0.1,0.1 0,0.1 0,0.1 0.1,0.1 0,0.1 0,0.1 0,0.1 0.1,0 0,0.1 0,0.1 0,0.1 0.1,0.1 0,0.1 0,0.1 0,0.1 0.1,0 0,0.1 0,0.1 0,0.1 0.1,0.1 0,0.1 0,0.1 0,0.1 0,0.1 0.1,0.1 0,0.1 0,0.1 0,0.1 0.1,0.1 0,0.1 0,0.1 0,0.1 0.1,0.1 0,0.1 0,0.1 0,0.1 0.1,0.1 0,0.1 0,0.1 0,0.1 0.1,0.1 0,0.1 0,0.1 0,0.1 0.1,0 0,0.1 0,0.1 0,0.1 0,0.1 0.1,0 0,0.1 0,0.1 0,0.1 0.1,0.1 0,0.1 0,0.1 0,0.1 0.1,0.1 0,0.1 0,0.1 0.1,0.1 0,0.1 0,0.1 0.1,0.1 0,0.1 0,0.1 0.1,0.1 0,0.1 0,0.1 0.1,0 0,0.1 0,0.1 0.1,0 0,0.1 0,0.1 0.1,0 0,0.1 0.1,0.1 0.1,0 0,0.1 0.1,0 0.1,0 0,-0.1 0.1,0 0,-0.1 0.1,0 0,-0.1 0.1,-0.1 0,-0.1 0.1,-0.1 0,-0.1 0,-0.1 0.1,-0.1 0,-0.1 0,-0.1 0.1,-0.1 0,-0.1 0,-0.1 0,-0.1 0.1,-0.1 0,-0.1 0,-0.1 0,-0.1 0.1,-0.1 0,-0.1 0,-0.1 0,-0.1 0,-0.1 0.1,-0.1 0,-0.1 0,-0.1 0,-0.1 0,-0.1 0.1,-0.1 0,-0.1 0,-0.1 0,-0.1 0,-0.1 0.1,-0.1 0,-0.2 0,-0.1 0,-0.1 0,-0.1 0.1,-0.1 0,-0.2 0,-0.1 0,-0.1 0,-0.1 0.1,-0.1 0,-0.2 0,-0.1 0,-0.1 0,-0.2 0.1,-0.1 0,-0.1 0,-0.1 0,-0.2 0,-0.1 0.1,-0.1 0,-0.2 0,-0.1 0,-0.1 0,-0.2 0.1,-0.1 0,-0.2 0,-0.1 0,-0.1 0,-0.2 0.1,-0.1 0,-0.1 0,-0.2 0,-0.1 0,-0.2 0.1,-0.1 0,-0.1 0,-0.2 0,-0.1 0,-0.1 0.1,-0.2 0,-0.1 0,-0.2 0,-0.1 0,-0.1 0.1,-0.2 0,-0.1 0,-0.1 0,-0.2 0,-0.1 0.1,-0.1 0,-0.2 0,-0.1 0,-0.1 0,-0.2 0.1,-0.1 0,-0.1 0,-0.2 0,-0.1 0,-0.1 0.1,-0.1 0,-0.2 0,-0.1 0,-0.1 0,-0.1 0.1,-0.2 0,-0.1 0,-0.1 0,-0.1 0,-0.2 0.1,-0.1 0,-0.1 0,-0.1 0,-0.1 0,-0.2 0,-0.1 0.1,-0.1 0,-0.1 0,-0.1 0,-0.1 0,-0.1 0.1,-0.1 0,-0.1 0,-0.2 0,-0.1 0,-0.1 0.1,-0.1 0,-0.1 0,-0.1 0,-0.1 0,-0.1 0.1,-0.1 0,-0.1 0,-0.1 0,-0.1 0,-0.1 0.1,-0.1 0,-0.1 0,-0.1 0,-0.1 0.1,-0.1 0,-0.1 0,-0.1 0,-0.1 0,-0.1 0.1,-0.1 0,-0.1 0,-0.1 0,-0.1 0.1,-0.1 0,-0.1 0,-0.1 0,-0.1 0.1,-0.1 0,-0.1 0,-0.1 0,-0.1 0.1,-0.1 0,-0.1 0,-0.1 0,-0.1 0.1,-0.1 0,-0.1 0,-0.1 0.1,-0.1 0,-0.1 0,-0.1 0,-0.1 0.1,0 0,-0.1 0,-0.1 0,-0.1 0.1,-0.1 0,-0.1 0,-0.1 0.1,-0.1 0,-0.1 0,-0.1 0.1,-0.1 0,-0.1 0,-0.1 0.1,-0.1 0,-0.1 0,-0.1 0.1,-0.1 0,-0.1 0,-0.1 0.1,-0.1 0,-0.1 0,-0.1 0.1,-0.1 0,-0.1 0,-0.1 0.1,0 0,-0.1 0,-0.1 0,-0.1 0.1,0 0,-0.1 0,-0.1 0.1,-0.1 0,-0.1 0,-0.1 0.1,-0.1 0,-0.1 0,-0.1 0.1,0 0,-0.1 0,-0.1 0.1,-0.1 0,-0.1 0,-0.1 0.1,-0.1 0,-0.1 0,-0.1 0.1,0 0,-0.1 0,-0.1 0.1,-0.1 0,-0.1 0,-0.1 0.1,0 0,-0.1 0,-0.1 0.1,0 0,-0.1 0,-0.1 0.1,-0.1 0,-0.1 0,-0.1 0.1,0 0,-0.1 0,-0.1 0.1,0 0,-0.1 0,-0.1 0.1,0 0,-0.1 0,-0.1 0.1,0 0,-0.1 0,-0.1 0.1,0 0,-0.1 0.1,-0.1 0,-0.1 0.1,0 0,-0.1 0,-0.1 0.1,0 0,-0.1 0.1,0 0,-0.1 0.1,0 0,-0.1 0.1,-0.1 0.1,0 0,-0.1 0.1,0 0,-0.1 0.1,0 0.1,0 0,-0.1 0.1,0 0.1,0 0.1,0 0.1,0 0.1,0 0,0.1 0.1,0 0.1,0 0.1,0 0,0.1 0.1,0 0.1,0.1 0.1,0 0,0.1 0.1,0 0.1,0 0,0.1 0.1,0 0,0.1 0.1,0 0.1,0 0,0.1 0.1,0 0,0.1 0.1,0 0.1,0 0,0.1 0.1,0 0,0.1 0.1,0 0.1,0 0,0.1 0.1,0 0,0.1 0.1,0 0.1,0 0,0.1 0.1,0 0,0.1 0.1,0 0,0.1 0.1,0 0,0.1 0.1,0 0,0.1 0.1,0 0,0.1 0,0.1 0.1,0 0,0.1 0.1,0.1 0,0.1 0.1,0 0,0.1 0,0.1 0.1,0 0,0.1 0,0.1 0.1,0.1 0,0.1 0,0.1 0.1,0 0,0.1 0,0.1 0.1,0.1 0,0.1 0,0.1 0.1,0.1 0,0.1 0,0.1 0.1,0.1 0,0.1 0,0.1 0,0.1 0.1,0.1 0,0.1 0,0.1 0.1,0.1 0,0.1 0,0.1 0,0.1 0.1,0.1 0,0.1 0,0.1 0,0.1 0,0.1 0.1,0 0,0.1 0,0.1 0,0.1 0.1,0.1 0,0.1 0,0.1 0,0.1 0.1,0.1 0,0.1 0,0.1 0,0.1 0.1,0.1 0,0.1 0,0.1 0,0.1 0.1,0 0,0.1 0,0.1 0,0.1 0.1,0.1 0,0.1 0,0.1 0,0.1 0.1,0 0,0.1 0,0.1 0,0.1 0.1,0.1 0,0.1 0,0.1 0.1,0.1 0,0.1 0,0.1 0.1,0 0,0.1 0,0.1 0.1,0.1 0,0.1 0,0.1 0.1,0 0,0.1 0.1,0.1 0,0.1 0.1,0 0,0.1 0.1,0.1 0,0.1 0.1,0 0.1,0.1 0.1,0 0.1,0.1 0.1,0 0.1,0 0,-0.1 0.1,0 0.1,0 0.1,-0.1 0.1,0 0,-0.1 0.1,0 0,-0.1 0.1,-0.1 0,-0.1 0.1,0 0,-0.1 0.1,-0.1 0,-0.1 0.1,0 0,-0.1 0,-0.1 0.1,0 0,-0.1 0,-0.1 0.1,-0.1 0,-0.1 0.1,-0.1 0,-0.1 0,-0.1 0.1,0 0,-0.1 0,-0.1 0.1,-0.1 0,-0.1 0,-0.1 0.1,-0.1 0,-0.1 0,-0.1 0.1,-0.1 0,-0.1 0,-0.1 0.1,0 0,-0.1 0,-0.1 0,-0.1 0.1,0 0,-0.1 0,-0.1 0.1,-0.1 0,-0.1 0,-0.1 0.1,-0.1 0,-0.1 0,-0.1 0.1,0 0,-0.1 0,-0.1 0.1,-0.1 0,-0.1 0.1,-0.1 0,-0.1 0,-0.1 0.1,0 0,-0.1 0,-0.1 0.1,0 0,-0.1 0.1,-0.1 0,-0.1 0.1,0 0,-0.1 0.1,-0.1 0.1,-0.1 0.1,-0.1 0.1,0 0,-0.1 0.1,0 0.1,0 0,-0.1 0.1,0 0.1,0 0.1,0 0.1,0 0.1,0 0.1,0 0.1,0 0.1,0 0.1,0 0.1,0 0.1,0 0,0.1 0.1,0 0.1,0 0.1,0 0.1,0 0.1,0 0,0.1 0.1,0 0.1,0 0.1,0 0.1,0 0.1,0 0,0.1 0.1,0 0.1,0 0.1,0 0,0.1 0.1,0 0.1,0 0,0.1 0.1,0 0.1,0 0,0.1 0.1,0 0.1,0 0,0.1 0.1,0 0,0.1 0.1,0 0.1,0 0,0.1 0.1,0 0,0.1 0.1,0 0,0.1 0.1,0 0.1,0 0,0.1 0.1,0 0,0.1 0.1,0 0.1,0 0,0.1 0.1,0 0.1,0 0.1,0 0.1,0.1 0.1,0 0.1,0 0.1,0 0.1,0 0.1,0 0.1,0 0.1,0 0.1,0 0,0.1 0.1,0 0.1,0 0,0.1 0.1,0 0,0.1 0.1,0 0.1,0.1 0,0.1 0.1,0 0,0.1 0.1,0 0,0.1 0.1,0.1 0,0.1 0.1,0 0,0.1 0,0.1 0.1,0 0,0.1 0,0.1 0.1,0 0,0.1 0,0.1 0.1,0 0,0.1 0,0.1 0.1,0.1 0,0.1 0,0.1 0.1,0 0,0.1 0,0.1 0.1,0.1 0,0.1 0,0.1 0.1,0 0,0.1 0,0.1 0,0.1 0.1,0 0,0.1 0,0.1 0.1,0.1 0,0.1 0,0.1 0.1,0 0,0.1 0,0.1 0,0.1 0.1,0 0,0.1 0,0.1 0.1,0.1 0,0.1 0,0.1 0.1,0 0,0.1 0,0.1 0.1,0.1 0,0.1 0,0.1 0.1,0 0,0.1 0,0.1 0.1,0 0,0.1 0,0.1 0.1,0 0,0.1 0,0.1 0.1,0 0,0.1 0,0.1 0.1,0 0,0.1 0.1,0.1 0.1,0.1 0.1,0.1 0.1,0 0,0.1 0.1,0 0.1,0 0.1,0 0.1,0 0.1,0 0,-0.1 0.1,0 0.1,0 0,-0.1 0.1,0 0,-0.1 0.1,0 0,-0.1 0.1,0 0,-0.1 0.1,0 0,-0.1 0.1,-0.1 0,-0.1 0.1,0 0,-0.1 0.1,0 0,-0.1 0.1,-0.1 0,-0.1 0.1,0 0,-0.1 0.1,0 0,-0.1 0.1,-0.1 0,-0.1 0.1,0 0,-0.1 0.1,0 0,-0.1 0.1,0 0,-0.1 0.1,0 0,-0.1 0.1,-0.1 0.1,-0.1 0,-0.1 0.1,0 0,-0.1 0.1,0 0,-0.1 0.1,0 0,-0.1 0.1,0 0,-0.1 0.1,-0.1 0,-0.1 0.1,0 0,-0.1 0.1,0 0,-0.1 0.1,0 0,-0.1 0,-0.1 0.1,0 0,-0.1 0.1,0 0,-0.1 0,-0.1 0.1,0 0,-0.1 0.1,0 0,-0.1 0,-0.1 0.1,0 0,-0.1 0.1,-0.1 0,-0.1 0.1,0 0,-0.1 0,-0.1 0.1,0 0,-0.1 0.1,-0.1 0,-0.1 0.1,0 0,-0.1 0.1,-0.1 0,-0.1 0.1,0 0,-0.1 0.1,-0.1 0,-0.1 0.1,0 0,-0.1 0.1,0 0,-0.1 0.1,0 0,-0.1 0.1,0 0,-0.1 0.1,0 0,-0.1 0.1,0 0,-0.1 0.1,0 0.1,0 0.1,-0.1 0.1,0 0.1,0 0.1,0 0,0.1 0.1,0 0.1,0 0,0.1 0.1,0 0.1,0.1 0.1,0.1 0,0.1 0.1,0 0,0.1 0.1,0 0,0.1 0.1,0.1 0,0.1 0.1,0.1 0,0.1 0.1,0 0,0.1 0,0.1 0.1,0.1 0,0.1 0.1,0.1 0,0.1 0,0.1 0.1,0 0,0.1 0,0.1 0.1,0.1 0,0.1 0,0.1 0.1,0.1 0,0.1 0,0.1 0.1,0.1 0,0.1 0,0.1 0.1,0.1 0,0.1 0,0.1 0.1,0.1 0,0.1 0,0.1 0,0.1 0.1,0 0,0.1 0,0.1 0,0.1 0.1,0.1 0,0.1 0,0.1 0,0.1 0.1,0 0,0.1 0,0.1 0,0.1 0.1,0.1 0,0.1 0,0.1 0,0.1 0.1,0.1 0,0.1 0,0.1 0,0.1 0.1,0.1 0,0.1 0,0.1 0,0.1 0,0.1 0.1,0 0,0.1 0,0.1 0,0.1 0,0.1 0.1,0.1 0,0.1 0,0.1 0,0.1 0,0.1 0.1,0.1 0,0.1 0,0.1 0,0.1 0,0.1 0.1,0.1 0,0.1 0,0.1 0,0.1 0.1,0.1 0,0.1 0,0.1 0,0.1 0,0.1 0.1,0.1 0,0.1 0,0.1 0,0.1 0,0.1 0.1,0 0,0.1 0,0.1 0,0.1 0,0.1 0.1,0.1 0,0.1 0,0.1 0,0.1 0,0.1 0.1,0.1 0,0.1 0,0.1 0,0.1 0,0.1 0.1,0.1 0,0.1 0,0.1 0,0.1 0.1,0.1 0,0.1 0,0.1 0,0.1 0,0.1 0.1,0.1 0,0.1 0,0.1 0,0.1 0,0.1 0.1,0 0,0.1 0,0.1 0,0.1 0,0.1 0.1,0.1 0,0.1 0,0.1 0,0.1 0.1,0.1 0,0.1 0,0.1 0,0.1 0,0.1 0.1,0.1 0,0.1 0,0.1 0,0.1 0.1,0.1 0,0.1 0,0.1 0,0.1 0.1,0.1 0,0.1 0,0.1 0,0.1 0.1,0.1 0,0.1 0,0.1 0,0.1 0.1,0 0,0.1 0,0.1 0,0.1 0.1,0.1 0,0.1 0,0.1 0,0.1 0.1,0.1 0,0.1 0,0.1 0.1,0.1 0,0.1 0,0.1 0,0.1 0.1,0 0,0.1 0,0.1 0,0.1 0.1,0 0,0.1 0,0.1 0,0.1 0.1,0 0,0.1 0,0.1 0.1,0.1 0,0.1 0,0.1 0.1,0.1 0,0.1 0.1,0.1 0,0.1 0,0.1 0.1,0 0,0.1 0,0.1 0.1,0 0,0.1 0,0.1 0.1,0 0,0.1 0.1,0.1 0,0.1 0.1,0 0,0.1 0.1,0 0,0.1 0.1,0 0,0.1 0.1,0 0.1,0 0,0.1 0.1,0 0.1,0 0.1,0 0.1,-0.1 0.1,0 0.1,0 0,-0.1 0.1,0 0.1,0 0,-0.1 0.1,0 0,-0.1 0.1,0 0.1,0 0,-0.1 0.1,0 0.1,0 0,-0.1 0.1,0 0.1,0 0,-0.1 0.1,0 0.1,0 0,-0.1 0.1,0 0.1,0 0,-0.1 0.1,0 0,-0.1 0.1,0 0,-0.1 0.1,0 0,-0.1 0.1,0 0,-0.1 0.1,-0.1 0,-0.1 0.1,0 0,-0.1 0,-0.1 0.1,0 0,-0.1 0,-0.1 0.1,0 0,-0.1 0,-0.1 0.1,0 0,-0.1 0,-0.1 0,-0.1 0.1,0 0,-0.1 0,-0.1 0.1,-0.1 0,-0.1 0,-0.1 0.1,-0.1 0,-0.1 0,-0.1 0,-0.1 0.1,-0.1 0,-0.1 0,-0.1 0,-0.1 0.1,0 0,-0.1 0,-0.1 0,-0.1 0.1,-0.1 0,-0.1 0,-0.1 0,-0.1 0,-0.1 0.1,-0.1 0,-0.1 0,-0.1 0,-0.1 0.1,-0.1 0,-0.1 0,-0.1 0,-0.1 0,-0.1 0.1,-0.1 0,-0.1 0,-0.1 0,-0.1 0.1,-0.1 0,-0.1 0,-0.1 0,-0.1 0,-0.1 0.1,-0.1 0,-0.1 0,-0.1 0,-0.1 0,-0.1 0.1,-0.1 0,-0.1 0,-0.1 0,-0.1 0,-0.1 0.1,-0.1 0,-0.1 0,-0.1 0,-0.1 0,-0.1 0.1,-0.2 0,-0.1 0,-0.1 0,-0.1 0,-0.1 0.1,-0.1 0,-0.1 0,-0.1 0,-0.1 0,-0.1 0.1,-0.1 0,-0.1 0,-0.1 0,-0.1 0,-0.1 0.1,-0.1 0,-0.1 0,-0.1 0,-0.1 0,-0.1 0.1,-0.1 0,-0.1 0,-0.1 0,-0.1 0,-0.1 0.1,-0.1 0,-0.1 0,-0.1 0,-0.1 0,-0.1 0.1,-0.1 0,-0.1 0,-0.1 0,-0.1 0,-0.1 0.1,-0.1 0,-0.1 0,-0.1 0,-0.1 0,-0.1 0.1,-0.1 0,-0.1 0,-0.1 0,-0.1 0,-0.1 0.1,-0.1 0,-0.1 0,-0.1 0,-0.1 0.1,-0.1 0,-0.1 0,-0.1 0,-0.1 0,-0.1 0,-0.1 0.1,-0.1 0,-0.1 0,-0.1 0,-0.1 0.1,-0.1 0,-0.1 0,-0.1 0,-0.1 0.1,-0.1 0,-0.1 0,-0.1 0,-0.1 0,-0.1 0.1,-0.1 0,-0.1 0,-0.1 0,-0.1 0.1,-0.1 0,-0.1 0,-0.1 0,-0.1 0.1,-0.1 0,-0.1 0,-0.1 0,-0.1 0.1,-0.1 0,-0.1 0,-0.1 0,-0.1 0.1,-0.1 0,-0.1 0,-0.1 0,-0.1 0.1,-0.1 0,-0.1 0,-0.1 0,-0.1 0.1,-0.1 0,-0.1 0,-0.1 0,-0.1 0.1,-0.1 0,-0.1 0,-0.1 0,-0.1 0.1,-0.1 0,-0.1 0,-0.1 0,-0.1 0.1,-0.1 0,-0.1 0,-0.1 0,-0.1 0.1,-0.1 0,-0.1 0,-0.1 0,-0.1 0.1,-0.1 0,-0.1 0,-0.1 0,-0.1 0.1,-0.1 0,-0.1 0,-0.1 0,-0.1 0.1,-0.1 0,-0.1 0,-0.1 0,-0.1 0.1,-0.1 0,-0.1 0,-0.1 0,-0.1 0.1,0 0,-0.1 0,-0.1 0,-0.1 0,-0.1 0.1,0 0,-0.1 0,-0.1 0,-0.1 0.1,-0.1 0,-0.1 0,-0.1 0,-0.1 0.1,-0.1 0,-0.1 0,-0.1 0.1,-0.1 0,-0.1 0,-0.1 0,-0.1 0.1,-0.1 0,-0.1 0,-0.1 0.1,-0.1 0,-0.1 0,-0.1 0.1,-0.1 0,-0.1 0,-0.1 0,-0.1 0.1,0 0,-0.1 0,-0.1 0,-0.1 0.1,0 0,-0.1 0,-0.1 0.1,-0.1 0,-0.1 0,-0.1 0.1,0 0,-0.1 0,-0.1 0.1,-0.1 0,-0.1 0,-0.1 0.1,0 0,-0.1 0,-0.1 0.1,0 0,-0.1 0.1,-0.1 0,-0.1 0.1,0 0,-0.1 0.1,0 0,-0.1 0.1,0 0,-0.1 0.1,0 0.1,0 0.1,0 0.1,0 0.1,0 0,0.1 0.1,0 0,0.1 0.1,0 0,0.1 0.1,0 0,0.1 0.1,0 0,0.1 0.1,0 0,0.1 0.1,0 0,0.1 0.1,0 0,0.1 0.1,0.1 0,0.1 0.1,0 0,0.1 0.1,0 0,0.1 0.1,0 0,0.1 0.1,0 0,0.1 0.1,0 0,0.1 0.1,0 0,0.1 0.1,0 0,0.1 0.1,0 0,0.1 0.1,0 0,0.1 0.1,0 0,0.1 0.1,0 0,0.1 0.1,0 0,0.1 0.1,0.1 0,0.1 0.1,0 0,0.1 0.1,0 0,0.1 0.1,0 0,0.1 0.1,0.1 0,0.1 0.1,0 0,0.1 0.1,0.1 0,0.1 0.1,0 0,0.1 0.1,0.1 0,0.1 0.1,0 0,0.1 0.1,0.1 0,0.1 0.1,0 0,0.1 0,0.1 0.1,0 0,0.1 0.1,0.1 0,0.1 0.1,0 0,0.1 0,0.1 0.1,0 0,0.1 0,0.1 0.1,0 0,0.1 0.1,0.1 0,0.1 0.1,0.1 0,0.1 0.1,0.1 0,0.1 0.1,0.1 0,0.1 0,0.1 0.1,0 0,0.1 0,0.1 0.1,0 0,0.1 0,0.1 0.1,0.1 0,0.1 0,0.1 0.1,0 0,0.1 0,0.1 0.1,0.1 0,0.1 0,0.1 0.1,0.1 0,0.1 0,0.1 0,0.1 0.1,0 0,0.1 0,0.1 0,0.1 0.1,0 0,0.1 0,0.1 0,0.1 0.1,0.1 0,0.1 0,0.1 0,0.1 0.1,0 0,0.1 0,0.1 0,0.1 0.1,0.1 0,0.1 0,0.1 0,0.1 0.1,0.1 0,0.1 0,0.1 0,0.1 0.1,0 0,0.1 0,0.1 0,0.1 0,0.1 0.1,0 0,0.1 0,0.1 0,0.1 0.1,0.1 0,0.1 0,0.1 0,0.1 0.1,0.1 0,0.1 0,0.1 0,0.1 0.1,0.1 0,0.1 0,0.1 0,0.1 0.1,0.1 0,0.1 0,0.1 0,0.1 0.1,0.1 0,0.1 0,0.1 0.1,0.1 0,0.1 0,0.1 0,0.1 0.1,0 0,0.1 0,0.1 0,0.1 0.1,0 0,0.1 0,0.1 0.1,0.1 0,0.1 0,0.1 0.1,0 0,0.1 0,0.1 0.1,0 0,0.1 0.1,0 0,0.1 0.1,0 0,0.1 0.1,0 0.1,0 0.1,-0.1 0.1,0 0,-0.1 0.1,-0.1 0,-0.1 0.1,0 0,-0.1 0,-0.1 0.1,0 0,-0.1 0,-0.1 0.1,0 0,-0.1 0,-0.1 0.1,0 0,-0.1 0,-0.1 0.1,-0.1 0,-0.1 0,-0.1 0.1,-0.1 0,-0.1 0,-0.1 0.1,0 0,-0.1 0,-0.1 0.1,-0.1 0,-0.1 0,-0.1 0.1,-0.1 0,-0.1 0,-0.1 0.1,0 0,-0.1 0,-0.1 0,-0.1 0.1,0 0,-0.1 0,-0.1 0.1,-0.1 0,-0.1 0.1,-0.1 0,-0.1 0,-0.1 0.1,0 0,-0.1 0,-0.1 0.1,0 0,-0.1 0,-0.1 0.1,0 0,-0.1 0.1,-0.1 0,-0.1 0.1,0 0,-0.1 0.1,0 0,-0.1 0.1,0 0,-0.1 0.1,0 0.1,0 0.1,0 0.1,0 0,0.1 0.1,0 0.1,0.1 0,0.1 0.1,0 0,0.1 0.1,0 0,0.1 0,0.1 0.1,0 0,0.1 0,0.1 0.1,0 0,0.1 0,0.1 0.1,0 0,0.1 0,0.1 0.1,0.1 0,0.1 0,0.1 0.1,0.1 0,0.1 0,0.1 0,0.1 0.1,0 0,0.1 0,0.1 0,0.1 0.1,0.1 0,0.1 0,0.1 0,0.1 0.1,0.1 0,0.1 0,0.1 0,0.1 0.1,0.1 0,0.1 0,0.1 0,0.1 0.1,0.1 0,0.1 0,0.1 0,0.1 0,0.1 0.1,0 0,0.1 0,0.1 0,0.1 0,0.1 0.1,0.1 0,0.1 0,0.1 0,0.1 0,0.1 0.1,0.1 0,0.1 0,0.1 0,0.1 0,0.1 0.1,0.2 0,0.1 0,0.1 0,0.1 0,0.1 0.1,0.1 0,0.1 0,0.1 0,0.1 0,0.1 0.1,0.1 0,0.1 0,0.199995 0,0.1 0,0.1 0.1,0.1 0,0.1 0,0.1 0,0.1 0,0.1 0.1,0.2 0,0.1 0,0.1 0,0.1 0,0.1 0.1,0.1 0,0.1 0,0.2 0,0.1 0,0.1 0.1,0.1 0,0.1 0,0.1 0,0.1 0,0.1 0.1,0.2 0,0.1 0,0.1 0,0.1 0,0.1 0.1,0.1 0,0.1 0,0.1 0,0.1 0,0.1 0.1,0.1 0,0.1 0,0.2 0,0.1 0,0.1 0.1,0.1 0,0.1 0,0.1 0,0.1 0,0.1 0.1,0.1 0,0.1 0,0.1 0,0.1 0.1,0.1 0,0.1 0,0.1 0,0.1 0,0.1 0.1,0.1 0,0.1 0,0.1 0,0.1 0.1,0.1 0,0.1 0,0.1 0,0.1 0.1,0.1 0,0.1 0,0.1 0.1,0.1 0,0.1 0,0.1 0,0.1 0.1,0 0,0.1 0,0.1 0,0.1 0.1,0 0,0.1 0,0.1 0.1,0.1 0,0.1 0,0.1 0.1,0 0,0.1 0,0.1 0.1,0 0,0.1 0,0.1 0.1,0 0,0.1 0.1,0.1 0,0.1 0.1,0 0,0.1 0.1,0 0,0.1 0.1,0 0,0.1 0.1,0.1 0.1,0 0,0.1 0.1,0 0,0.1 0.1,0 0,0.1 0.1,0 0,0.1 0.1,0 0,0.1 0.1,0 0,0.1 0.1,0 0.1,0.1 0.1,0 0,0.1 0.1,0 0,0.1 0.1,0 0,0.1 0.1,0 0,0.1 0.1,0 0.1,0.1 0.1,0 0,0.1 0.1,0 0,0.1 0.1,0 0,0.1 0.1,0 0.1,0 0,0.1 0.1,0 0.1,0 0,0.1 0.1,0 0.1,0 0,0.1 0.1,0 0.1,0 0.1,0 0.1,0 0.1,0 0.1,0 0,-0.1 0.1,0 0.1,0 0,-0.1 0.1,0 0,-0.1 0.1,0 0,-0.1 0.1,0 0,-0.1 0.1,0 0,-0.1 0.1,-0.1 0,-0.1 0.1,-0.1 0,-0.1 0.1,-0.1 0,-0.1 0,-0.1 0.1,0 0,-0.1 0,-0.1 0.1,-0.1 0,-0.1 0,-0.1 0.1,-0.1 0,-0.1 0,-0.1 0.1,-0.1 0,-0.1 0,-0.1 0,-0.1 0.1,0 0,-0.1 0,-0.1 0,-0.1 0.1,-0.1 0,-0.1 0,-0.1 0,-0.1 0.1,-0.1 0,-0.1 0,-0.1 0,-0.1 0,-0.1 0.1,-0.1 0,-0.1 0,-0.1 0,-0.1 0.1,-0.1 0,-0.1 0,-0.1 0,-0.1 0,-0.1 0.1,-0.1 0,-0.1 0,-0.1 0,-0.1 0,-0.1 0.1,-0.1 0,-0.1 0,-0.1 0,-0.1 0,-0.1 0.1,-0.1 0,-0.2 0,-0.1 0,-0.1 0,-0.1 0.1,-0.1 0,-0.1 0,-0.1 0,-0.2 0,-0.1 0.1,-0.1 0,-0.1 0,-0.1 0,-0.2 0,-0.1 0.1,-0.1 0,-0.1 0,-0.1 0,-0.2 0,-0.1 0.1,-0.1 0,-0.2 0,-0.1 0,-0.1 0,-0.1 0.1,-0.2 0,-0.1 0,-0.1 0,-0.2 0,-0.1 0.1,-0.1 0,-0.2 0,-0.1 0,-0.1 0,-0.2 0.1,-0.1 0,-0.2 0,-0.1 0,-0.1 0,-0.2 0.1,-0.1 0,-0.199995 0,-0.1 0,-0.1 0,-0.2 0.1,-0.1 0,-0.2 0,-0.1 0,-0.2 0,-0.1 0.1,-0.1 0,-0.2 0,-0.1 0,-0.2 0,-0.1 0.1,-0.2 0,-0.1 0,-0.2 0,-0.1 0,-0.2 0.1,-0.1 0,-0.2 0,-0.1 0,-0.2 0,-0.1 0.1,-0.2 0,-0.1 0,-0.2 0,-0.2 0,-0.1 0.1,-0.2 0,-0.1 0,-0.2 0,-0.1 0,-0.2 0.1,-0.1 0,-0.2 0,-0.2 0,-0.1 0,-0.2 0.1,-0.1 0,-0.2 0,-0.2 0,-0.1 0,-0.2 0.1,-0.1 0,-0.2 0,-0.2 0,-0.1 0,-0.2 0.1,-0.1 0,-0.2 0,-0.2 0,-0.1 0,-0.2 0.1,-0.2 0,-0.1 0,-0.2 0,-0.1 0,-0.2 0.1,-0.2 0,-0.1 0,-0.2 0,-0.2 0,-0.1 0.1,-0.2 0,-0.2 0,-0.1 0,-0.2 0,-0.2 0.1,-0.1 0,-0.2 0,-0.1 0,-0.2 0,-0.2 0.1,-0.1 0,-0.2 0,-0.2 0,-0.1 0,-0.2 0.1,-0.2 0,-0.1 0,-0.2 0,-0.2 0,-0.1 0.1,-0.2 0,-0.2 0,-0.1 0,-0.2 0,-0.1 0.1,-0.2 0,-0.2 0,-0.1 0,-0.2 0,-0.2 0.1,-0.1 0,-0.2 0,-0.1 0,-0.2 0,-0.2 0.1,-0.1 0,-0.2 0,-0.1 0,-0.2 0,-0.1 0.1,-0.2 0,-0.2 0,-0.1 0,-0.2 0,-0.1 0.1,-0.2 0,-0.1 0,-0.2 0,-0.1 0,-0.2 0.1,-0.1 0,-0.2 0,-0.1 0,-0.2 0,-0.1 0.1,-0.2 0,-0.1 0,-0.2 0,-0.1 0,-0.2 0,-0.1 0.1,-0.1 0,-0.2 0,-0.1 0,-0.2 0,-0.1 0.1,-0.1 0,-0.2 0,-0.1 0,-0.2 0,-0.1 0.1,-0.1 0,-0.1 0,-0.2 0,-0.1 0,-0.1 0.1,-0.2 0,-0.1 0,-0.1 0,-0.1 0,-0.2 0.1,-0.1 0,-0.1 0,-0.1 0,-0.1 0,-0.2 0.1,-0.1 0,-0.1 0,-0.1 0,-0.1 0,-0.1 0.1,-0.1 0,-0.1 0,-0.1 0,-0.1 0,-0.2 0.1,-0.1 0,-0.1 0,-0.1 0,-0.1 0,-0.1 0.1,-0.1 0,-0.1 0,-0.1 0,-0.1 0.1,-0.1 0,-0.1 0,-0.1 0,-0.1 0,-0.1 0.1,0 0,-0.1 0,-0.1 0,-0.1 0,-0.1 0.1,0 0,-0.1 0,-0.1 0,-0.1 0.1,-0.1 0,-0.1 0,-0.1 0,-0.1 0.1,0 0,-0.1 0,-0.1 0,-0.1 0.1,0 0,-0.1 0,-0.1 0.1,-0.1 0,-0.1 0.1,-0.1 0,-0.1 0.1,-0.1 0,-0.1 0.1,0 0,-0.1 0.1,0 0,-0.1 0.1,0 0.1,0 0.1,0 0.1,0 0,0.1 0.1,0 0,0.1 0.1,0 0,0.1 0,0.1 0.1,0 0,0.1 0,0.1 0.1,0 0,0.1 0,0.1 0.1,0.1 0,0.1 0,0.1 0.1,0 0,0.1 0,0.1 0,0.1 0.1,0.1 0,0.1 0,0.1 0,0.1 0.1,0 0,0.1 0,0.1 0,0.1 0,0.1 0.1,0 0,0.1 0,0.1 0,0.1 0,0.1 0.1,0.1 0,0.1 0,0.1 0,0.1 0,0.1 0.1,0.1 0,0.1 0,0.1 0,0.1 0,0.1 0.1,0.1 0,0.1 0,0.2 0,0.1 0,0.1 0.1,0.1 0,0.1 0,0.2 0,0.1 0,0.1 0.1,0.1 0,0.2 0,0.1 0,0.1 0,0.2 0.1,0.1 0,0.1 0,0.2 0,0.1 0,0.2 0.1,0.1 0,0.2 0,0.1 0,0.2 0,0.1 0.1,0.2 0,0.1 0,0.2 0,0.1 0,0.2 0.1,0.2 0,0.1 0,0.2 0,0.1 0,0.2 0.1,0.2 0,0.2 0,0.1 0,0.2 0,0.2 0.1,0.1 0,0.2 0,0.2 0,0.2 0,0.2 0,0.1 0.1,0.2 0,0.2 0,0.2 0,0.2 0,0.2 0.1,0.1 0,0.2 0,0.2 0,0.2 0,0.2 0.1,0.2 0,0.2 0,0.2 0,0.2 0,0.2 0.1,0.2 0,0.2 0,0.2 0,0.2 0,0.2 0.1,0.2 0,0.2 0,0.2 0,0.2 0,0.2 0.1,0.2 0,0.2 0,0.2 0,0.2 0,0.2 0.1,0.2 0,0.2 0,0.2 0,0.2 0,0.2 0.1,0.2 0,0.2 0,0.2 0,0.2 0,0.2 0.1,0.2 0,0.2 0,0.2 0,0.2 0,0.2 0.1,0.2 0,0.2 0,0.2 0,0.2 0,0.2 0.1,0.2 0,0.2 0,0.2 0,0.2 0,0.2 0.1,0.2 0,0.2 0,0.2 0,0.2 0,0.2 0.1,0.2 0,0.2 0,0.2 0,0.1 0,0.2 0.1,0.2 0,0.2 0,0.2 0,0.2 0,0.1 0.1,0.2 0,0.2 0,0.2 0,0.1 0,0.2 0.1,0.2 0,0.1 0,0.2 0,0.2 0,0.1 0.1,0.2 0,0.2 0,0.1 0,0.2 0,0.1 0.1,0.2 0,0.1 0,0.2 0,0.1 0,0.2 0.1,0.1 0,0.2 0,0.1 0,0.1 0,0.2 0.1,0.1 0,0.1 0,0.1 0,0.2 0,0.1 0.1,0.1 0,0.1 0,0.2 0,0.1 0,0.1 0.1,0.1 0,0.1 0,0.1 0,0.1 0,0.1 0.1,0.1 0,0.1 0,0.1 0,0.1 0,0.1 0.1,0.1 0,0.1 0,0.1 0,0.1 0.1,0.1 0,0.1 0,0.1 0,0.1 0.1,0.1 0,0.1 0,0.1 0,0.1 0.1,0 0,0.1 0,0.1 0.1,0.1 0,0.1 0,0.1 0.1,0 0,0.1 0,0.1 0.1,0 0,0.1 0.1,0.1 0.1,0.1 0.1,0 0,0.1 0.1,0 0.1,0 0.1,0 0.1,-0.1 0.1,0 0,-0.1 0.1,0 0,-0.1 0.1,0 0,-0.1 0.1,-0.1 0,-0.1 0.1,0 0,-0.1 0,-0.1 0.1,0 0,-0.1 0,-0.1 0.1,0 0,-0.1 0,-0.1 0.1,-0.1 0,-0.1 0,-0.1 0.1,0 0,-0.1 0,-0.1 0.1,-0.1 0,-0.1 0,-0.1 0.1,0 0,-0.1 0,-0.1 0,-0.1 0.1,0 0,-0.1 0,-0.1 0,-0.1 0.1,0 0,-0.1 0,-0.1 0,-0.1 0.1,-0.1 0,-0.1 0,-0.1 0.1,-0.1 0,-0.1 0,-0.1 0,-0.1 0.1,-0.1 0,-0.1 0,-0.1 0,-0.1 0.1,0 0,-0.1 0,-0.1 0,-0.1 0.1,-0.1 0,-0.1 0,-0.1 0,-0.1 0.1,-0.1 0,-0.1 0,-0.1 0,-0.1 0.1,-0.1 0,-0.1 0,-0.1 0,-0.1 0,-0.1 0.1,0 0,-0.1 0,-0.1 0,-0.1 0,-0.1 0.1,-0.1 0,-0.1 0,-0.1 0,-0.1 0.1,-0.1 0,-0.1 0,-0.1 0,-0.1 0,-0.1 0.1,-0.1 0,-0.1 0,-0.1 0,-0.1 0.1,-0.1 0,-0.1 0,-0.1 0,-0.1 0,-0.1 0.1,-0.1 0,-0.1 0,-0.1 0,-0.1 0.1,-0.1 0,-0.1 0,-0.1 0,-0.1 0,-0.1 0.1,-0.1 0,-0.1 0,-0.1 0,-0.1 0.1,-0.1 0,-0.1 0,-0.1 0,-0.1 0,-0.1 0.1,-0.1 0,-0.1 0,-0.1 0,-0.1 0,-0.1 0.1,0 0,-0.1 0,-0.1 0,-0.1 0,-0.1 0.1,-0.1 0,-0.1 0,-0.1 0,-0.1 0.1,-0.1 0,-0.1 0,-0.1 0,-0.1 0,-0.1 0.1,-0.1 0,-0.1 0,-0.1 0,-0.1 0.1,-0.1 0,-0.1 0,-0.1 0,-0.1 0.1,-0.1 0,-0.1 0,-0.1 0,-0.1 0.1,-0.1 0,-0.1 0,-0.1 0,-0.1 0.1,0 0,-0.1 0,-0.1 0,-0.1 0.1,-0.1 0,-0.1 0,-0.1 0,-0.1 0.1,0 0,-0.1 0,-0.1 0,-0.1 0.1,0 0,-0.1 0,-0.1 0,-0.1 0.1,0 0,-0.1 0,-0.1 0.1,-0.1 0,-0.1 0,-0.1 0.1,0 0,-0.1 0,-0.1 0.1,0 0,-0.1 0.1,-0.1 0,-0.1 0.1,0 0,-0.1 0.1,0 0,-0.1 0.1,0 0,-0.1 0.1,0 0.1,-0.1 0.1,0 0.1,0 0,0.1 0.1,0 0.1,0 0,0.1 0.1,0 0,0.1 0.1,0 0,0.1 0.1,0.1 0,0.1 0.1,0 0,0.1 0,0.1 0.1,0 0,0.1 0.1,0.1 0,0.1 0.1,0.1 0,0.1 0,0.1 0.1,0 0,0.1 0,0.1 0.1,0.1 0,0.1 0,0.1 0.1,0 0,0.1 0,0.1 0.1,0.1 0,0.1 0,0.1 0.1,0.1 0,0.1 0,0.1 0.1,0.1 0,0.1 0,0.1 0.1,0.1 0,0.1 0,0.1 0.1,0.1 0,0.1 0,0.1 0.1,0.1 0,0.1 0,0.1 0.1,0.1 0,0.1 0,0.1 0,0.1 0.1,0 0,0.1 0,0.1 0,0.1 0.1,0.1 0,0.1 0,0.1 0.1,0.1 0,0.1 0,0.1 0.1,0.1 0,0.1 0,0.1 0.1,0.1 0,0.1 0,0.1 0,0.1 0.1,0 0,0.1 0,0.1 0,0.1 0.1,0 0,0.1 0,0.1 0,0.1 0.1,0 0,0.1 0,0.1 0.1,0.1 0,0.1 0,0.1 0.1,0.1 0,0.1 0,0.1 0.1,0 0,0.1 0,0.1 0.1,0.1 0,0.1 0,0.1 0.1,0 0,0.1 0,0.1 0.1,0.1 0,0.1 0,0.1 0.1,0 0,0.1 0,0.1 0.1,0 0,0.1 0,0.1 0.1,0 0,0.1 0,0.1 0.1,0.1 0,0.1 0.1,0.1 0,0.1 0.1,0.1 0,0.1 0.1,0.1 0,0.1 0.1,0 0,0.1 0,0.1 0.1,0 0,0.1 0,0.1 0.1,0 0,0.1 0,0.1 0.1,0 0,0.1 0.1,0.1 0,0.1 0.1,0 0,0.1 0.1,0.1 0,0.1 0.1,0 0,0.1 0.1,0 0,0.1 0.1,0 0.1,0 0,0.1 0.1,0 0.1,0 0.1,0 0.1,0 0.1,0 0,-0.1 0.1,0 0,-0.1 0.1,0 0,-0.1 0.1,0 0,-0.1 0.1,-0.1 0,-0.1 0.1,0 0,-0.1 0.1,-0.1 0,-0.1 0.1,-0.1 0,-0.1 0.1,-0.1 0,-0.1 0,-0.1 0.1,0 0,-0.1 0,-0.1 0.1,-0.1 0,-0.1 0,-0.1 0.1,0 0,-0.1 0,-0.1 0.1,-0.1 0,-0.1 0,-0.1 0.1,-0.1 0,-0.1 0,-0.1 0.1,-0.1 0,-0.1 0,-0.1 0.1,-0.1 0,-0.1 0,-0.1 0,-0.1 0.1,-0.1 0,-0.1 0,-0.1 0.1,-0.1 0,-0.1 0,-0.1 0,-0.1 0.1,-0.1 0,-0.1 0,-0.1 0,-0.1 0.1,-0.1 0,-0.1 0,-0.1 0,-0.1 0.1,-0.1 0,-0.1 0,-0.1 0,-0.1 0.1,-0.1 0,-0.1 0,-0.1 0,-0.1 0,-0.1 0.1,-0.1 0,-0.1 0,-0.1 0,-0.1 0.1,-0.1 0,-0.1 0,-0.1 0,-0.1 0,-0.1 0.1,-0.1 0,-0.1 0,-0.1 0,-0.1 0,-0.1 0.1,-0.1 0,-0.1 0,-0.1 0,-0.1 0,-0.1 0.1,-0.1 0,-0.1 0,-0.1 0,-0.1 0,-0.1 0.1,-0.1 0,-0.1 0,-0.1 0,-0.1 0,-0.1 0.1,-0.1 0,-0.1 0,-0.1 0,-0.1 0,-0.1 0.1,-0.1 0,-0.1 0,-0.1 0,-0.1 0,-0.2 0.1,-0.1 0,-0.1 0,-0.1 0,-0.1 0,-0.1 0.1,-0.1 0,-0.1 0,-0.1 0,-0.1 0,-0.1 0,-0.1 0.1,-0.1 0,-0.1 0,-0.1 0,-0.1 0,-0.1 0.1,-0.1 0,-0.1 0,-0.1 0,-0.1 0.1,-0.1 0,-0.1 0,-0.1 0,-0.1 0,-0.1 0.1,-0.1 0,-0.1 0,-0.1 0,-0.1 0.1,-0.1 0,-0.1 0,-0.1 0,-0.1 0.1,-0.1 0,-0.1 0,-0.1 0,-0.1 0.1,-0.1 0,-0.1 0,-0.1 0.1,-0.1 0,-0.1 0,-0.1 0,-0.1 0.1,0 0,-0.1 0,-0.1 0.1,-0.1 0,-0.1 0.1,-0.1 0,-0.1 0.1,-0.1 0,-0.1 0.1,0 0,-0.1 0.1,0 0.1,0 0,-0.1 0.1,0.1 0.1,0 0.1,0.1 0,0.1 0.1,0 0,0.1 0.1,0 0,0.1 0,0.1 0.1,0 0,0.1 0,0.1 0.1,0.1 0,0.1 0,0.1 0.1,0 0,0.1 0,0.1 0.1,0.1 0,0.1 0,0.1 0.1,0.1 0,0.1 0,0.1 0,0.1 0.1,0 0,0.1 0,0.1 0,0.1 0.1,0.1 0,0.1 0,0.1 0,0.1 0.1,0.1 0,0.1 0,0.1 0,0.1 0.1,0 0,0.1 0,0.1 0,0.1 0,0.1 0.1,0 0,0.1 0,0.1 0,0.1 0.1,0.1 0,0.1 0,0.1 0,0.1 0.1,0.1 0,0.1 0,0.1 0,0.1 0.1,0.1 0,0.1 0,0.1 0,0.1 0.1,0 0,0.1 0,0.1 0,0.1 0.1,0.1 0,0.1 0,0.1 0,0.1 0.1,0 0,0.1 0,0.1 0,0.1 0.1,0 0,0.1 0,0.1 0,0.1 0.1,0 0,0.1 0,0.1 0.1,0.1 0,0.1 0,0.1 0.1,0 0,0.1 0,0.1 0.1,0 0,0.1 0,0.1 0.1,0 0,0.1 0.1,0 0,0.1 0.1,0.1 0.1,0.1 0.1,0 0.1,0 0.1,0 0.1,0 0,-0.1 0.1,0 0,-0.1 0.1,0 0,-0.1 0.1,0 0,-0.1 0.1,-0.1 0,-0.1 0.1,0 0,-0.1 0,-0.1 0.1,0 0,-0.1 0,-0.1 0.1,0 0,-0.1 0,-0.1 0.1,0 0,-0.1 0,-0.1 0.1,-0.1 0,-0.1 0,-0.1 0.1,0 0,-0.1 0,-0.1 0.1,-0.1 0,-0.1 0,-0.1 0.1,0 0,-0.1 0,-0.1 0,-0.1 0.1,0 0,-0.1 0,-0.1 0,-0.1 0.1,0 0,-0.1 0,-0.1 0,-0.1 0.1,0 0,-0.1 0,-0.1 0,-0.1 0.1,0 0,-0.1 0,-0.1 0,-0.1 0.1,0 0,-0.1 0,-0.1 0,-0.1 0.1,0 0,-0.1 0,-0.1 0,-0.1 0.1,0 0,-0.1 0,-0.1 0,-0.1 0.1,-0.1 0,-0.1 0,-0.1 0.1,-0.1 0,-0.1 0,-0.1 0.1,-0.1 0,-0.1 0,-0.1 0.1,0 0,-0.1 0,-0.1 0,-0.1 0.1,0 0,-0.1 0,-0.1 0.1,-0.1 0,-0.1 0,-0.1 0.1,0 0,-0.1 0,-0.1 0.1,-0.1 0,-0.1 0.1,-0.1 0,-0.1 0.1,-0.1 0,-0.1 0.1,0 0,-0.1 0.1,-0.1 0.1,-0.1 0.1,-0.1 0.1,0 0.1,0 0,-0.1 0.1,0.1 0.1,0 0.1,0 0,0.1 0.1,0 0,0.1 0.1,0 0,0.1 0.1,0.1 0,0.1 0.1,0 0,0.1 0,0.1 0.1,0 0,0.1 0,0.1 0.1,0 0,0.1 0,0.1 0.1,0 0,0.1 0,0.1 0.1,0.1 0,0.1 0,0.1 0.1,0 0,0.1 0,0.1 0.1,0.1 0,0.1 0,0.1 0.1,0.1 0,0.1 0,0.1 0.1,0 0,0.1 0,0.1 0,0.1 0.1,0 0,0.1 0,0.1 0,0.1 0.1,0 0,0.1 0,0.1 0,0.1 0.1,0 0,0.1 0,0.1 0,0.1 0.1,0.1 0,0.1 0,0.1 0.1,0.1 0,0.1 0,0.1 0.1,0.1 0,0.1 0,0.1 0.1,0.1 0,0.1 0,0.1 0.1,0 0,0.1 0,0.1 0,0.1 0.1,0 0,0.1 0,0.1 0.1,0.1 0,0.1 0,0.1 0.1,0 0,0.1 0,0.1 0.1,0.1 0,0.1 0,0.1 0.1,0 0,0.1 0,0.1 0.1,0 0,0.1 0,0.1 0.1,0 0,0.1 0.1,0.1 0,0.1 0.1,0 0,0.1 0.1,0.1 0,0.1 0.1,0 0,0.1 0.1,0 0.1,0.1 0.1,0 0,0.1 0.1,0 0.1,0 0.1,0 0.1,0 0.1,0 0.1,0 0,-0.1 0.1,0 0.1,0 0,-0.1 0.1,0 0,-0.1 0.1,0 0.1,-0.1 0.1,0 0,-0.1 0.1,-0.1 0,-0.1 0.1,0 0,-0.1 0.1,0 0,-0.1 0.1,0 0,-0.1 0.1,0 0,-0.1 0.1,0 0,-0.1 0.1,-0.1 0,-0.1 0.1,0 0,-0.1 0.1,0 0,-0.1 0.1,0 0,-0.1 0.1,0 0,-0.1 0.1,0 0,-0.1 0.1,0 0,-0.1 0.1,0 0.1,0 0,-0.1 0.1,0 0.1,0 0.1,0 0.1,0 0.1,0 0,0.1 0.1,0 0.1,0 0,0.1 0.1,0 0,0.1 0.1,0 0,0.1 0,0.1 0.1,0 0,0.1 0.1,0 0,0.1 0,0.1 0.1,0 0,0.1 0,0.1 0.1,0 0,0.1 0,0.1 0.1,0.1 0,0.1 0,0.1 0.1,0 0,0.1 0,0.1 0.1,0.1 0,0.1 0,0.1 0.1,0.1 0,0.1 0,0.1 0.1,0.1 0,0.1 0,0.1 0.1,0.1 0,0.1 0,0.1 0.1,0.1 0,0.1 0,0.1 0,0.1 0.1,0 0,0.1 0,0.1 0,0.1 0.1,0.1 0,0.1 0,0.1 0,0.1 0.1,0 0,0.1 0,0.1 0,0.1 0.1,0.1 0,0.1 0,0.1 0,0.1 0.1,0.1 0,0.1 0,0.1 0.1,0.1 0,0.1 0,0.1 0,0.1 0.1,0.1 0,0.1 0,0.1 0,0.1 0.1,0 0,0.1 0,0.1 0,0.1 0.1,0.1 0,0.1 0,0.1 0,0.1 0.1,0.1 0,0.1 0,0.1 0,0.1 0.1,0 0,0.1 0,0.1 0,0.1 0.1,0 0,0.1 0,0.1 0,0.1 0.1,0 0,0.1 0,0.1 0,0.1 0.1,0 0,0.1 0,0.1 0,0.1 0.1,0 0,0.1 0,0.1 0.1,0.1 0,0.1 0,0.1 0.1,0 0,0.1 0,0.1 0.1,0.1 0,0.1 0.1,0.1 0,0.1 0,0.1 0.1,0 0,0.1 0.1,0.1 0,0.1 0.1,0.1 0,0.1 0.1,0 0,0.1 0.1,0.1 0,0.1 0.1,0 0,0.1 0.1,0 0,0.1 0.1,0 0,0.1 0.1,0 0.1,0 0,0.1 0.1,0 0.1,0 0.1,0 0,0.1 0.1,0 0,-0.1 0.1,0 0.1,0 0.1,0 0.1,-0.1 0.1,0 0,-0.1 0.1,0 0,-0.1 0.1,0 0,-0.1 0.1,0 0,-0.1 0.1,0 0,-0.1 0.1,0 0,-0.1 0.1,0 0,-0.1 0.1,-0.1 0,-0.1 0.1,0 0,-0.1 0.1,0 0,-0.1 0.1,-0.1 0,-0.1 0.1,0 0,-0.1 0.1,-0.1 0,-0.1 0.1,0 0,-0.1 0.1,0 0,-0.1 0.1,0 0,-0.1 0,-0.1 0.1,0 0,-0.1 0.1,0 0,-0.1 0.1,0 0.1,0 0,-0.1 0.1,0 0.1,0 0,-0.1 0.1,0 0.1,0 0.1,0.1 0.1,0 0.1,0 0,0.1 0.1,0 0,0.1 0.1,0 0,0.1 0.1,0 0,0.1 0.1,0 0,0.1 0.1,0 0,0.1 0.1,0 0,0.1 0,0.1 0.1,0 0,0.1 0.1,0 0,0.1 0,0.1 0.1,0 0,0.1 0.1,0 0,0.1 0,0.1 0.1,0 0,0.1 0.1,0.1 0,0.1 0.1,0 0,0.1 0.1,0.1 0,0.1 0.1,0 0,0.1 0.1,0 0,0.1 0.1,0 0,0.1 0.1,0.1 0,0.1 0.1,0 0,0.1 0.1,0 0.1,0.1 0.1,0 0,0.1 0.1,0 0,0.1 0.1,0 0.1,0 0,0.1 0.1,0 0.1,0 0,0.1 0.1,0 0.1,0 0,0.1 0.1,0 0.1,0.1 0.1,0 0,0.1 0.1,0 0.1,0 0,0.1 0.1,0 0,0.1 0.1,0 0,0.1 0.1,0 0.1,0 0,0.1 0.1,0 0,0.1 0.1,0 0,0.1 0.1,0 0,0.1 0.1,0 0.1,0.1 0.1,0 0,0.1 0.1,0 0,0.1 0.1,0 0.1,0 0,0.1 0.1,0 0.1,0 0,0.1 0.1,0 0.1,0 0.1,0 0.1,0 0.1,0 0.1,-0.1 0.1,0 0.1,-0.1 0.1,0 0,-0.1 0.1,0 0,-0.1 0.1,0 0,-0.1 0.1,0 0,-0.1 0.1,-0.1 0,-0.1 0.1,0 0,-0.1 0.1,-0.1 0,-0.1 0.1,-0.1 0,-0.1 0.1,0 0,-0.1 0,-0.1 0.1,0 0,-0.1 0,-0.1 0.1,0 0,-0.1 0,-0.1 0.1,0 0,-0.1 0,-0.1 0.1,0 0,-0.1 0,-0.1 0.1,-0.1 0,-0.1 0.1,-0.1 0,-0.1 0.1,-0.1 0,-0.1 0,-0.1 0.1,0 0,-0.1 0,-0.1 0.1,0 0,-0.1 0,-0.1 0.1,0 0,-0.1 0,-0.1 0.1,0 0,-0.1 0,-0.1 0.1,0 0,-0.1 0,-0.1 0.1,0 0,-0.1 0.1,-0.1 0,-0.1 0.1,0 0,-0.1 0.1,-0.1 0,-0.1 0.1,0 0,-0.1 0.1,0 0,-0.1 0.1,0 0,-0.1 0.1,0 0,-0.1 0.1,0 0.1,0 0,-0.1 0.1,0 0.1,0 0,-0.1 0.1,0 0.1,0 0.1,0 0.1,0 0,-0.1 0.1,0 0.1,0 0.1,0 0.1,0 0,-0.1 0.1,0 0.1,0 0.1,0 0,-0.1 0.1,0 0.1,-0.1 0.1,0 0,-0.1 0.1,0 0,-0.1 0.1,0 0,-0.1 0.1,0 0,-0.1 0.1,0 0,-0.1 0.1,0 0,-0.1 0.1,-0.1 0,-0.1 0.1,0 0,-0.1 0.1,0 0,-0.1 0.1,-0.1 0,-0.1 0.1,0 0,-0.1 0.1,0 0,-0.1 0.1,-0.1 0,-0.1 0.1,0 0,-0.1 0.1,0 0,-0.1 0.1,0 0,-0.1 0.1,0 0,-0.1 0.1,0 0.1,0 0,-0.1 0.1,0 0.1,0 0.1,0 0.1,0 0,0.1 0.1,0 0,0.1 0.1,0 0,0.1 0.1,0 0,0.1 0.1,0 0,0.1 0,0.1 0.1,0 0,0.1 0,0.1 0.1,0 0,0.1 0,0.1 0.1,0.1 0,0.1 0,0.1 0.1,0 0,0.1 0,0.1 0,0.1 0.1,0.1 0,0.1 0,0.1 0.1,0.1 0,0.1 0,0.1 0,0.1 0.1,0.1 0,0.1 0,0.1 0,0.1 0.1,0.1 0,0.1 0,0.1 0,0.1 0.1,0.1 0,0.1 0,0.1 0,0.1 0,0.1 0.1,0.1 0,0.1 0,0.1 0,0.1 0,0.1 0.1,0.1 0,0.1 0,0.1 0,0.1 0,0.1 0.1,0.1 0,0.1 0,0.1 0,0.2 0,0.1 0.1,0.1 0,0.1 0,0.1 0,0.1 0,0.1 0.1,0.2 0,0.1 0,0.1 0,0.1 0,0.1 0.1,0.2 0,0.1 0,0.1 0,0.1 0,0.1 0.1,0.2 0,0.1 0,0.1 0,0.1 0,0.2 0.1,0.1 0,0.1 0,0.1 0,0.2 0,0.1 0.1,0.1 0,0.1 0,0.2 0,0.1 0,0.1 0.1,0.2 0,0.1 0,0.1 0,0.1 0,0.2 0.1,0.1 0,0.1 0,0.1 0,0.2 0,0.1 0.1,0.1 0,0.1 0,0.2 0,0.1 0,0.1 0.1,0.1 0,0.2 0,0.1 0,0.1 0,0.1 0.1,0.1 0,0.2 0,0.1 0,0.1 0,0.1 0.1,0.1 0,0.1 0,0.1 0,0.2 0,0.1 0.1,0.1 0,0.1 0,0.1 0,0.1 0,0.1 0.1,0.1 0,0.1 0,0.1 0,0.1 0,0.1 0.1,0.1 0,0.1 0,0.1 0,0.1 0,0.1 0.1,0.1 0,0.1 0,0.1 0,0.1 0.1,0.1 0,0.1 0,0.1 0,0.1 0.1,0 0,0.1 0,0.1 0,0.1 0.1,0 0,0.1 0,0.1 0,0.1 0.1,0 0,0.1 0,0.1 0.1,0 0,0.1 0.1,0.1 0.1,0.1 0.1,0 0.1,0 0,-0.1 0.1,0 0,-0.1 0,-0.1 0.1,0 0,-0.1 0,-0.1 0.1,0 0,-0.1 0,-0.1 0.1,-0.1 0,-0.1 0,-0.1 0,-0.1 0.1,0 0,-0.1 0,-0.1 0,-0.1 0.1,-0.1 0,-0.1 0,-0.1 0,-0.1 0.1,-0.1 0,-0.1 0,-0.1 0,-0.1 0,-0.1 0.1,-0.1 0,-0.1 0,-0.1 0,-0.1 0,-0.1 0.1,-0.1 0,-0.1 0,-0.1 0,-0.1 0,-0.2 0.1,-0.1 0,-0.1 0,-0.1 0,-0.1 0,-0.1 0.1,-0.2 0,-0.1 0,-0.1 0,-0.1 0,-0.2 0.1,-0.1 0,-0.1 0,-0.1 0,-0.2 0,-0.1 0.1,-0.1 0,-0.1 0,-0.2 0,-0.1 0,-0.1 0.1,-0.2 0,-0.1 0,-0.1 0,-0.2 0,-0.1 0.1,-0.1 0,-0.2 0,-0.1 0,-0.2 0,-0.1 0.1,-0.1 0,-0.2 0,-0.1 0,-0.1 0,-0.2 0.1,-0.1 0,-0.2 0,-0.1 0,-0.1 0,-0.2 0.1,-0.1 0,-0.1 0,-0.2 0,-0.1 0,-0.1 0.1,-0.2 0,-0.1 0,-0.1 0,-0.2 0,-0.1 0.1,-0.1 0,-0.2 0,-0.1 0,-0.1 0,-0.2 0.1,-0.1 0,-0.1 0,-0.2 0,-0.1 0,-0.1 0.1,-0.1 0,-0.199995 0,-0.1 0,-0.1 0,-0.1 0.1,-0.2 0,-0.1 0,-0.1 0,-0.1 0,-0.1 0.1,-0.1 0,-0.2 0,-0.1 0,-0.1 0,-0.1 0.1,-0.1 0,-0.1 0,-0.1 0,-0.1 0,-0.1 0.1,-0.1 0,-0.1 0,-0.1 0,-0.1 0,-0.1 0.1,-0.1 0,-0.1 0,-0.1 0,-0.1 0,-0.1 0.1,-0.1 0,-0.1 0,-0.1 0,-0.1 0,-0.1 0.1,0 0,-0.1 0,-0.1 0,-0.1 0,-0.1 0.1,0 0,-0.1 0,-0.1 0,-0.1 0.1,-0.1 0,-0.1 0,-0.1 0.1,-0.1 0,-0.1 0,-0.1 0.1,0 0,-0.1 0,-0.1 0.1,-0.1 0,-0.1 0.1,0 0,-0.1 0,-0.1 0.1,0 0,-0.1 0.1,0 0.1,0 0.1,0 0.1,0 0,0.1 0.1,0 0,0.1 0.1,0 0,0.1 0.1,0 0,0.1 0,0.1 0.1,0 0,0.1 0,0.1 0.1,0.1 0,0.1 0,0.1 0.1,0 0,0.1 0,0.1 0.1,0.1 0,0.1 0,0.1 0.1,0 0,0.1 0,0.1 0.1,0.1 0,0.1 0,0.1 0.1,0.1 0,0.1 0,0.1 0.1,0.1 0,0.1 0,0.1 0.1,0 0,0.1 0,0.1 0.1,0.1 0,0.1 0,0.1 0.1,0 0,0.1 0,0.1 0.1,0.1 0,0.1 0.1,0 0,0.1 0,0.1 0.1,0 0,0.1 0.1,0 0,0.1 0.1,0 0.1,0 0.1,0 0,-0.1 0.1,0 0,-0.1 0.1,0 0,-0.1 0.1,-0.1 0,-0.1 0.1,-0.1 0,-0.1 0,-0.1 0.1,-0.1 0,-0.1 0,-0.1 0.1,-0.1 0,-0.1 0,-0.1 0.1,-0.1 0,-0.1 0,-0.1 0,-0.1 0.1,-0.1 0,-0.1 0,-0.1 0,-0.1 0.1,-0.1 0,-0.1 0,-0.1 0,-0.1 0,-0.1 0.1,0 0,-0.1 0,-0.1 0,-0.1 0,-0.1 0.1,-0.1 0,-0.1 0,-0.1 0,-0.1 0,-0.1 0.1,-0.1 0,-0.1 0,-0.1 0,-0.1 0,-0.1 0.1,-0.1 0,-0.1 0,-0.1 0,-0.1 0,-0.1 0.1,-0.1 0,-0.1 0,-0.1 0,-0.2 0,-0.1 0.1,-0.1 0,-0.1 0,-0.1 0,-0.1 0,-0.1 0.1,-0.1 0,-0.1 0,-0.1 0,-0.1 0,-0.2 0.1,-0.1 0,-0.1 0,-0.1 0,-0.1 0,-0.1 0.1,-0.1 0,-0.1 0,-0.1 0,-0.2 0,-0.1 0.1,-0.1 0,-0.1 0,-0.1 0,-0.1 0,-0.1 0.1,-0.1 0,-0.1 0,-0.2 0,-0.1 0,-0.1 0.1,-0.1 0,-0.1 0,-0.1 0,-0.1 0,-0.1 0.1,-0.1 0,-0.1 0,-0.2 0,-0.1 0,-0.1 0.1,-0.1 0,-0.1 0,-0.1 0,-0.1 0,-0.1 0.1,-0.1 0,-0.1 0,-0.1 0,-0.1 0,-0.1 0.1,-0.1 0,-0.1 0,-0.1 0,-0.1 0,-0.1 0.1,-0.1 0,-0.1 0,-0.1 0,-0.1 0,-0.1 0.1,-0.1 0,-0.1 0,-0.1 0,-0.1 0,-0.1 0,-0.1 0.1,-0.1 0,-0.1 0,-0.1 0,-0.1 0.1,-0.1 0,-0.1 0,-0.1 0,-0.1 0.1,-0.1 0,-0.1 0,-0.1 0,-0.1 0.1,-0.1 0,-0.1 0,-0.1 0,-0.1 0.1,0 0,-0.1 0,-0.1 0,-0.1 0.1,0 0,-0.1 0,-0.1 0,-0.1 0.1,0 0,-0.1 0,-0.1 0.1,0 0,-0.1 0,-0.1 0.1,0 0,-0.1 0,-0.1 0.1,0 0,-0.1 0.1,0 0,-0.1 0.1,0 0.1,0 0.1,0 0,0.1 0.1,0 0.1,0.1 0,0.1 0.1,0 0,0.1 0.1,0.1 0,0.1 0.1,0.1 0,0.1 0.1,0.1 0,0.1 0,0.1 0.1,0 0,0.1 0,0.1 0.1,0.1 0,0.1"
     id="path150"
     inkscape:connector-curvature="0" />
  <g
     style="color:#000000;fill:none;stroke:currentColor;stroke-width:1;stroke-linecap:butt;stroke-linejoin:miter"
     id="g152"
     transform="translate(19.114048,-8.5118652)">
    <path
       d="m 31,13.9 0,318.1 398.2,0 0,-318.1 -398.2,0 z"
       id="path154"
       inkscape:connector-curvature="0" />
  </g>
  <path
     style="fill:none;stroke:#000000;stroke-width:1.20000005;stroke-linecap:butt;stroke-linejoin:miter;stroke-miterlimit:4;stroke-opacity:1;stroke-dasharray:1.2, 2.4;stroke-dashoffset:0"
     d="m 249.31891,322.73874 0,-317.4666222"
     id="path3963"
     inkscape:connector-curvature="0" />
  <text
     xml:space="preserve"
     style="font-size:40px;font-style:normal;font-variant:normal;font-weight:normal;font-stretch:normal;line-height:125%;letter-spacing:0px;word-spacing:0px;fill:#000000;fill-opacity:1;stroke:none;font-family:Bitstream Charter;-inkscape-font-specification:Bitstream Charter"
     x="373.34293"
     y="24.108149"
     id="text3884"
     sodipodi:linespacing="125%"><tspan
       sodipodi:role="line"
       id="tspan3886"
       x="373.34293"
       y="24.108149"
       style="font-size:14px">MD</tspan></text>
  <text
     xml:space="preserve"
     style="font-size:40px;font-style:normal;font-variant:normal;font-weight:normal;font-stretch:normal;line-height:125%;letter-spacing:0px;word-spacing:0px;fill:#000000;fill-opacity:1;stroke:none;font-family:Bitstream Charter;-inkscape-font-specification:Bitstream Charter"
     x="144.41589"
     y="365.11954"
     id="text3888"
     sodipodi:linespacing="125%"><tspan
       sodipodi:role="line"
       id="tspan3890"
       x="144.41589"
       y="365.11954"
       style="font-size:20px">Time Steps (Thousands)</tspan></text>
  <text
     xml:space="preserve"
     style="font-size:40px;font-style:normal;font-variant:normal;font-weight:normal;font-stretch:normal;line-height:125%;letter-spacing:0px;word-spacing:0px;fill:#000000;fill-opacity:1;stroke:none;font-family:Bitstream Charter;-inkscape-font-specification:Bitstream Charter"
     x="-237.63763"
     y="16.360001"
     id="text3892"
     sodipodi:linespacing="125%"
     transform="matrix(0,-1,1,0,0,0)"><tspan
       sodipodi:role="line"
       id="tspan3894"
       x="-237.63763"
       y="16.360001"
       style="font-size:20px">Temperature (K)</tspan></text>
  <text
     xml:space="preserve"
     style="font-size:40px;font-style:normal;font-variant:normal;font-weight:normal;font-stretch:normal;line-height:125%;letter-spacing:0px;word-spacing:0px;fill:#000000;fill-opacity:1;stroke:none;font-family:Bitstream Charter;-inkscape-font-specification:Bitstream Charter"
     x="200.04428"
     y="187.63647"
     id="text3896"
     sodipodi:linespacing="125%"><tspan
       sodipodi:role="line"
       id="tspan3898"
       x="200.04428"
       y="187.63647"
       style="font-size:12px;text-align:center;text-anchor:middle">Thermostat</tspan><tspan
       sodipodi:role="line"
       x="200.04428"
       y="202.63647"
       id="tspan3900"
       style="font-size:12px;text-align:center;text-anchor:middle">ON</tspan></text>
  <text
     xml:space="preserve"
     style="font-size:40px;font-style:normal;font-variant:normal;font-weight:normal;font-stretch:normal;line-height:125%;letter-spacing:0px;word-spacing:0px;fill:#000000;fill-opacity:1;stroke:none;font-family:Bitstream Charter;-inkscape-font-specification:Bitstream Charter"
     x="298.15662"
     y="187.63647"
     id="text3896-7"
     sodipodi:linespacing="125%"><tspan
       sodipodi:role="line"
       id="tspan3898-2"
       x="298.15662"
       y="187.63647"
       style="font-size:12px;text-align:center;text-anchor:middle">Thermostat</tspan><tspan
       sodipodi:role="line"
       x="298.15662"
       y="202.63647"
       id="tspan3900-3"
       style="font-size:12px;text-align:center;text-anchor:middle">OFF</tspan></text>
</svg>
